STARTFONT 2.1
COMMENT
COMMENT Converted from OpenType font "UbuntuMono-Bold.ttf" by "otf2bdf 3.0".
COMMENT
FONT -FreeType-Ubuntu Mono-Bold-R-Normal--28-200-100-100-P-125-ISO10646-1
SIZE 20 100 100
FONTBOUNDINGBOX 29 28 -11 -5
STARTPROPERTIES 19
FOUNDRY "FreeType"
FAMILY_NAME "Ubuntu Mono"
WEIGHT_NAME "Bold"
SLANT "R"
SETWIDTH_NAME "Normal"
ADD_STYLE_NAME ""
PIXEL_SIZE 28
POINT_SIZE 200
RESOLUTION_X 100
RESOLUTION_Y 100
SPACING "P"
AVERAGE_WIDTH 125
CHARSET_REGISTRY "ISO10646"
CHARSET_ENCODING "1"
FONT_ASCENT 23
FONT_DESCENT 4
COPYRIGHT "Copyright 2011 Canonical Ltd.  Licensed under the Ubuntu Font Licence 1.0"
_OTF_FONTFILE "UbuntuMono-Bold.ttf"
_OTF_PSNAME "UbuntuMono-Bold"
ENDPROPERTIES
CHARS 1224
STARTCHAR 0000
ENCODING 0
SWIDTH 468 0
DWIDTH 13 0
BBX 0 0 0 0
BITMAP
ENDCHAR
STARTCHAR 0008
ENCODING 8
SWIDTH 468 0
DWIDTH 13 0
BBX 0 0 0 0
BITMAP
ENDCHAR
STARTCHAR 0009
ENCODING 9
SWIDTH 468 0
DWIDTH 13 0
BBX 0 0 0 0
BITMAP
ENDCHAR
STARTCHAR 000D
ENCODING 13
SWIDTH 468 0
DWIDTH 13 0
BBX 0 0 0 0
BITMAP
ENDCHAR
STARTCHAR 001D
ENCODING 29
SWIDTH 468 0
DWIDTH 13 0
BBX 0 0 0 0
BITMAP
ENDCHAR
STARTCHAR 0020
ENCODING 32
SWIDTH 468 0
DWIDTH 13 0
BBX 0 0 0 0
BITMAP
ENDCHAR
STARTCHAR 0021
ENCODING 33
SWIDTH 468 0
DWIDTH 13 0
BBX 4 17 5 0
BITMAP
F0
F0
F0
F0
F0
F0
F0
F0
F0
F0
60
00
00
F0
F0
F0
F0
ENDCHAR
STARTCHAR 0022
ENCODING 34
SWIDTH 468 0
DWIDTH 13 0
BBX 10 8 2 11
BITMAP
F3C0
F3C0
F380
7380
7380
7380
7380
6180
ENDCHAR
STARTCHAR 0023
ENCODING 35
SWIDTH 468 0
DWIDTH 13 0
BBX 13 17 0 0
BITMAP
0E30
0E70
0E70
0E70
FFF8
FFF8
FFF8
1CE0
1CE0
1CE0
FFF8
FFF8
FFF8
39C0
39C0
31C0
7380
ENDCHAR
STARTCHAR 0024
ENCODING 36
SWIDTH 468 0
DWIDTH 13 0
BBX 12 22 1 -3
BITMAP
0F00
0F00
0F80
3FE0
7FE0
7860
7000
7000
7C00
7F00
3FC0
0FE0
01F0
00F0
00F0
60F0
FFE0
FFE0
1F80
0F00
0F00
0F00
ENDCHAR
STARTCHAR 0025
ENCODING 37
SWIDTH 468 0
DWIDTH 13 0
BBX 14 18 0 0
BITMAP
1000
7C18
7C38
EC30
EE60
EEE0
ECC0
7D80
3B80
0300
0670
0EF8
0DD8
19DC
39DC
31D8
70F8
E0F8
ENDCHAR
STARTCHAR 0026
ENCODING 38
SWIDTH 468 0
DWIDTH 13 0
BBX 12 18 1 0
BITMAP
0C00
3F00
7F80
7380
7380
7380
7380
7F00
3E00
7C70
7E70
EF60
E7E0
E3E0
E1E0
F7E0
7FF0
3E70
ENDCHAR
STARTCHAR 0027
ENCODING 39
SWIDTH 468 0
DWIDTH 13 0
BBX 4 8 5 11
BITMAP
F0
F0
F0
F0
F0
F0
60
60
ENDCHAR
STARTCHAR 0028
ENCODING 40
SWIDTH 468 0
DWIDTH 13 0
BBX 8 24 3 -4
BITMAP
07
0F
1E
3C
78
70
F0
E0
E0
E0
E0
E0
E0
E0
E0
E0
F0
70
78
3C
1E
0F
07
02
ENDCHAR
STARTCHAR 0029
ENCODING 41
SWIDTH 468 0
DWIDTH 13 0
BBX 8 23 3 -4
BITMAP
E0
F0
78
3C
1C
0E
0E
0F
07
07
07
07
07
07
07
07
0E
0E
1E
3C
78
F0
E0
ENDCHAR
STARTCHAR 002A
ENCODING 42
SWIDTH 468 0
DWIDTH 13 0
BBX 12 10 1 6
BITMAP
0F00
0F00
6620
76E0
FFF0
3FE0
0F00
3FC0
39C0
39C0
ENDCHAR
STARTCHAR 002B
ENCODING 43
SWIDTH 468 0
DWIDTH 13 0
BBX 12 13 1 1
BITMAP
0E00
0E00
0E00
0E00
0E00
FFF0
FFF0
FFF0
0E00
0E00
0E00
0E00
0E00
ENDCHAR
STARTCHAR 002C
ENCODING 44
SWIDTH 468 0
DWIDTH 13 0
BBX 6 9 4 -4
BITMAP
30
78
7C
7C
7C
18
38
F0
C0
ENDCHAR
STARTCHAR 002D
ENCODING 45
SWIDTH 468 0
DWIDTH 13 0
BBX 8 4 3 5
BITMAP
FF
FF
FF
FF
ENDCHAR
STARTCHAR 002E
ENCODING 46
SWIDTH 468 0
DWIDTH 13 0
BBX 5 5 4 0
BITMAP
30
78
F8
78
78
ENDCHAR
STARTCHAR 002F
ENCODING 47
SWIDTH 468 0
DWIDTH 13 0
BBX 11 24 1 -5
BITMAP
00E0
01E0
01E0
01C0
03C0
03C0
0380
0380
0780
0700
0700
0F00
0E00
0E00
1E00
1C00
1C00
3C00
3C00
3800
7800
7800
7000
F000
ENDCHAR
STARTCHAR 0030
ENCODING 48
SWIDTH 468 0
DWIDTH 13 0
BBX 12 18 1 0
BITMAP
0600
1F80
3FC0
7BE0
70E0
F0F0
E070
E670
EE70
EE70
E670
E070
E070
F0F0
70E0
7FE0
3FC0
1F80
ENDCHAR
STARTCHAR 0031
ENCODING 49
SWIDTH 468 0
DWIDTH 13 0
BBX 12 17 1 0
BITMAP
0700
0F00
3F00
FF00
7F00
6700
0700
0700
0700
0700
0700
0700
0700
0700
7FF0
7FF0
7FF0
ENDCHAR
STARTCHAR 0032
ENCODING 50
SWIDTH 468 0
DWIDTH 13 0
BBX 12 18 1 0
BITMAP
0400
3F80
FFC0
7BE0
41E0
00E0
01E0
01E0
03C0
0780
0F00
1E00
3C00
7800
7800
7FF0
7FF0
7FF0
ENDCHAR
STARTCHAR 0033
ENCODING 51
SWIDTH 468 0
DWIDTH 13 0
BBX 12 18 1 0
BITMAP
0E00
7F80
7FC0
73E0
01E0
01E0
01E0
07C0
1F80
1FC0
07E0
00E0
00F0
00F0
01E0
7FE0
FFC0
FF80
ENDCHAR
STARTCHAR 0034
ENCODING 52
SWIDTH 468 0
DWIDTH 13 0
BBX 12 17 1 0
BITMAP
01C0
03C0
07C0
0FC0
1FC0
1DC0
39C0
79C0
71C0
E1C0
FFF0
FFF0
FFF0
01C0
01C0
01C0
01C0
ENDCHAR
STARTCHAR 0035
ENCODING 53
SWIDTH 468 0
DWIDTH 13 0
BBX 11 17 1 0
BITMAP
3FE0
3FE0
3FE0
3800
3800
3800
3E00
7F80
7FC0
03E0
00E0
00E0
00E0
01E0
FFE0
FFC0
FF80
ENDCHAR
STARTCHAR 0036
ENCODING 54
SWIDTH 468 0
DWIDTH 13 0
BBX 12 17 1 0
BITMAP
03E0
0FE0
1FE0
3E00
7800
7800
7F80
FFC0
FFE0
F0E0
F0F0
F0F0
F0F0
70E0
7FE0
3FC0
1F80
ENDCHAR
STARTCHAR 0037
ENCODING 55
SWIDTH 468 0
DWIDTH 13 0
BBX 12 17 1 0
BITMAP
FFF0
FFF0
FFF0
01E0
01C0
03C0
0380
0780
0700
0F00
0E00
0E00
1E00
1E00
1C00
1C00
1C00
ENDCHAR
STARTCHAR 0038
ENCODING 56
SWIDTH 468 0
DWIDTH 13 0
BBX 12 18 1 0
BITMAP
0600
3FC0
7FE0
79E0
70E0
F0E0
70E0
79E0
3FC0
3FC0
7FE0
71E0
E0F0
E070
F0F0
FFE0
7FE0
3FC0
ENDCHAR
STARTCHAR 0039
ENCODING 57
SWIDTH 468 0
DWIDTH 13 0
BBX 12 18 1 0
BITMAP
0C00
3F80
7FC0
79E0
F0E0
F0F0
F0F0
F0F0
78F0
7FF0
3FE0
06E0
01E0
03C0
07C0
7F80
7E00
7800
ENDCHAR
STARTCHAR 003A
ENCODING 58
SWIDTH 468 0
DWIDTH 13 0
BBX 5 13 4 0
BITMAP
78
78
F8
78
30
00
00
00
30
78
F8
78
78
ENDCHAR
STARTCHAR 003B
ENCODING 59
SWIDTH 468 0
DWIDTH 13 0
BBX 6 17 3 -4
BITMAP
3C
3C
7C
3C
18
00
00
00
18
3C
7C
3C
3C
0C
3C
F8
60
ENDCHAR
STARTCHAR 003C
ENCODING 60
SWIDTH 468 0
DWIDTH 13 0
BBX 12 12 1 1
BITMAP
0060
01E0
07F0
3FC0
FF00
F800
FC00
7F00
1FE0
07F0
00E0
0020
ENDCHAR
STARTCHAR 003D
ENCODING 61
SWIDTH 468 0
DWIDTH 13 0
BBX 12 8 1 3
BITMAP
FFF0
FFF0
0000
0000
0000
FFF0
FFF0
FFF0
ENDCHAR
STARTCHAR 003E
ENCODING 62
SWIDTH 468 0
DWIDTH 13 0
BBX 12 12 1 1
BITMAP
6000
7800
FE00
3FC0
0FF0
01F0
03F0
0FF0
7F80
FE00
7000
4000
ENDCHAR
STARTCHAR 003F
ENCODING 63
SWIDTH 468 0
DWIDTH 13 0
BBX 10 18 2 0
BITMAP
0800
FF80
FF80
67C0
03C0
03C0
03C0
0780
0F00
1E00
1C00
1C00
0000
0000
1C00
3E00
3E00
1C00
ENDCHAR
STARTCHAR 0040
ENCODING 64
SWIDTH 468 0
DWIDTH 13 0
BBX 13 22 0 -4
BITMAP
0180
0FE0
1FF0
3870
3038
7038
73F8
67F8
67F8
6738
E738
E738
6738
6738
67F8
63F8
71F8
3800
3C00
1FF0
0FF0
01F0
ENDCHAR
STARTCHAR 0041
ENCODING 65
SWIDTH 468 0
DWIDTH 13 0
BBX 14 17 0 0
BITMAP
0780
0780
0FC0
0FC0
0FC0
1CE0
1CE0
1CE0
3CE0
38F0
3FF0
3FF0
7FF8
7078
7078
7038
F03C
ENDCHAR
STARTCHAR 0042
ENCODING 66
SWIDTH 468 0
DWIDTH 13 0
BBX 12 17 1 0
BITMAP
FF80
FFC0
FFE0
F0E0
F0E0
F0E0
F3C0
FF80
FFC0
F3E0
F0F0
F070
F070
F0F0
FFE0
FFE0
FF80
ENDCHAR
STARTCHAR 0043
ENCODING 67
SWIDTH 468 0
DWIDTH 13 0
BBX 12 18 1 0
BITMAP
0300
1FF0
3FF0
7EE0
7800
F000
F000
E000
E000
E000
E000
E000
F000
F000
7800
7FF0
3FF0
1FE0
ENDCHAR
STARTCHAR 0044
ENCODING 68
SWIDTH 468 0
DWIDTH 13 0
BBX 12 17 1 0
BITMAP
FF80
FFC0
FFE0
F1E0
F0F0
F0F0
F070
F070
F070
F070
F0F0
F0F0
F0F0
F1E0
FFE0
FFC0
FF00
ENDCHAR
STARTCHAR 0045
ENCODING 69
SWIDTH 468 0
DWIDTH 13 0
BBX 11 17 2 0
BITMAP
FFC0
FFC0
FFC0
E000
E000
E000
FF80
FF80
FF80
E000
E000
E000
E000
E000
FFE0
FFE0
FFE0
ENDCHAR
STARTCHAR 0046
ENCODING 70
SWIDTH 468 0
DWIDTH 13 0
BBX 10 17 2 0
BITMAP
FFC0
FFC0
FFC0
E000
E000
E000
E000
FF80
FF80
FF80
E000
E000
E000
E000
E000
E000
E000
ENDCHAR
STARTCHAR 0047
ENCODING 71
SWIDTH 468 0
DWIDTH 13 0
BBX 12 18 1 0
BITMAP
0380
1FF0
3FF0
7EE0
7800
F000
F000
E000
E000
E0F0
E0F0
E0F0
F0F0
F0F0
78F0
7FF0
3FF0
1FF0
ENDCHAR
STARTCHAR 0048
ENCODING 72
SWIDTH 468 0
DWIDTH 13 0
BBX 12 17 1 0
BITMAP
F0F0
F0F0
F0F0
F0F0
F0F0
F0F0
F0F0
FFF0
FFF0
F0F0
F0F0
F0F0
F0F0
F0F0
F0F0
F0F0
F0F0
ENDCHAR
STARTCHAR 0049
ENCODING 73
SWIDTH 468 0
DWIDTH 13 0
BBX 11 17 1 0
BITMAP
FFE0
FFE0
FFE0
0F00
0F00
0F00
0F00
0F00
0F00
0F00
0F00
0F00
0F00
0F00
FFE0
FFE0
FFE0
ENDCHAR
STARTCHAR 004A
ENCODING 74
SWIDTH 468 0
DWIDTH 13 0
BBX 11 17 1 0
BITMAP
3FE0
3FE0
3FE0
00E0
00E0
00E0
00E0
00E0
00E0
00E0
00E0
00E0
00E0
41E0
7FC0
FFC0
7F80
ENDCHAR
STARTCHAR 004B
ENCODING 75
SWIDTH 468 0
DWIDTH 13 0
BBX 12 17 1 0
BITMAP
F0F0
F1E0
F1E0
F3C0
F780
F700
FF00
FE00
FE00
FF00
F780
F3C0
F3C0
F1E0
F0F0
F0F0
F070
ENDCHAR
STARTCHAR 004C
ENCODING 76
SWIDTH 468 0
DWIDTH 13 0
BBX 11 17 2 0
BITMAP
E000
E000
E000
E000
E000
E000
E000
E000
E000
E000
E000
E000
E000
E000
FFE0
FFE0
FFE0
ENDCHAR
STARTCHAR 004D
ENCODING 77
SWIDTH 468 0
DWIDTH 13 0
BBX 12 17 1 0
BITMAP
70E0
F0E0
F1E0
F9F0
F9F0
FBF0
FF70
EF70
EF70
EF70
E670
E070
E070
E070
E070
E070
E070
ENDCHAR
STARTCHAR 004E
ENCODING 78
SWIDTH 468 0
DWIDTH 13 0
BBX 12 17 1 0
BITMAP
E070
F070
F870
F870
FC70
FC70
EE70
EE70
E770
E770
E3F0
E3F0
E1F0
E1F0
E0F0
E0F0
E070
ENDCHAR
STARTCHAR 004F
ENCODING 79
SWIDTH 468 0
DWIDTH 13 0
BBX 12 18 1 0
BITMAP
0600
1F80
3FC0
7FE0
F0E0
F0F0
E0F0
E070
E070
E070
E070
E070
E0F0
F0F0
F0E0
7FE0
3FC0
1F80
ENDCHAR
STARTCHAR 0050
ENCODING 80
SWIDTH 468 0
DWIDTH 13 0
BBX 12 17 1 0
BITMAP
FFC0
FFE0
FFF0
F0F0
F070
F070
F0F0
F0F0
FFE0
FFE0
FF80
F000
F000
F000
F000
F000
F000
ENDCHAR
STARTCHAR 0051
ENCODING 81
SWIDTH 468 0
DWIDTH 13 0
BBX 12 22 1 -4
BITMAP
1F80
3FC0
7FE0
F0E0
F0F0
E0F0
E070
E070
E070
E070
E070
E0F0
F0F0
F0E0
7FE0
3FC0
1F80
0E00
0780
07F0
01F0
0020
ENDCHAR
STARTCHAR 0052
ENCODING 82
SWIDTH 468 0
DWIDTH 13 0
BBX 12 17 1 0
BITMAP
FF80
FFC0
FFE0
F1E0
F0E0
F0E0
F0E0
F1E0
FFE0
FF80
FF80
F3C0
F1C0
F1E0
F0E0
F0F0
F070
ENDCHAR
STARTCHAR 0053
ENCODING 83
SWIDTH 468 0
DWIDTH 13 0
BBX 12 18 1 0
BITMAP
0200
3FE0
7FE0
7CC0
F000
F000
F000
7C00
7F80
1FC0
07E0
01F0
00F0
00F0
40F0
7FE0
FFE0
7FC0
ENDCHAR
STARTCHAR 0054
ENCODING 84
SWIDTH 468 0
DWIDTH 13 0
BBX 12 17 1 0
BITMAP
FFF0
FFF0
FFF0
0F00
0F00
0F00
0F00
0F00
0F00
0F00
0F00
0F00
0F00
0F00
0F00
0F00
0F00
ENDCHAR
STARTCHAR 0055
ENCODING 85
SWIDTH 468 0
DWIDTH 13 0
BBX 12 17 1 0
BITMAP
F0F0
F0F0
F0F0
F0F0
F0F0
F0F0
F0F0
F0F0
F0F0
F0F0
F0F0
F0F0
F0F0
F0F0
7FE0
7FE0
3FC0
ENDCHAR
STARTCHAR 0056
ENCODING 86
SWIDTH 468 0
DWIDTH 13 0
BBX 13 17 0 0
BITMAP
F038
7038
7078
7878
7870
3870
3870
38F0
3CE0
1CE0
1CE0
1CE0
0FC0
0FC0
0FC0
0780
0780
ENDCHAR
STARTCHAR 0057
ENCODING 87
SWIDTH 468 0
DWIDTH 13 0
BBX 12 17 1 0
BITMAP
E070
E070
E070
E070
E070
E070
E670
EF70
EF70
EF70
FF70
F9F0
F9F0
F9F0
F0E0
F0E0
70E0
ENDCHAR
STARTCHAR 0058
ENCODING 88
SWIDTH 468 0
DWIDTH 13 0
BBX 13 17 0 0
BITMAP
7878
3870
3CF0
1CE0
1FE0
0FC0
0FC0
0780
0780
0FC0
0FC0
1CE0
1CF0
3CF0
7878
7878
F038
ENDCHAR
STARTCHAR 0059
ENCODING 89
SWIDTH 468 0
DWIDTH 13 0
BBX 12 17 1 0
BITMAP
E070
F0F0
F0F0
70E0
79E0
39C0
3DC0
1F80
1F80
0F00
0F00
0F00
0F00
0F00
0F00
0F00
0F00
ENDCHAR
STARTCHAR 005A
ENCODING 90
SWIDTH 468 0
DWIDTH 13 0
BBX 12 17 1 0
BITMAP
7FE0
7FE0
7FE0
01E0
03C0
0380
0780
0F00
0E00
1E00
1C00
3C00
3800
7800
7FF0
FFF0
FFF0
ENDCHAR
STARTCHAR 005B
ENCODING 91
SWIDTH 468 0
DWIDTH 13 0
BBX 8 24 3 -5
BITMAP
FF
FF
E0
E0
E0
E0
E0
E0
E0
E0
E0
E0
E0
E0
E0
E0
E0
E0
E0
E0
E0
FF
FF
FF
ENDCHAR
STARTCHAR 005C
ENCODING 92
SWIDTH 468 0
DWIDTH 13 0
BBX 11 24 2 -5
BITMAP
E000
E000
F000
7000
7000
7800
3800
3800
3C00
1C00
1C00
1E00
0E00
0E00
0F00
0F00
0700
0780
0780
0380
03C0
03C0
01C0
01E0
ENDCHAR
STARTCHAR 005D
ENCODING 93
SWIDTH 468 0
DWIDTH 13 0
BBX 8 24 3 -5
BITMAP
FF
FF
0F
0F
0F
0F
0F
0F
0F
0F
0F
0F
0F
0F
0F
0F
0F
0F
0F
0F
0F
FF
FF
FF
ENDCHAR
STARTCHAR 005E
ENCODING 94
SWIDTH 468 0
DWIDTH 13 0
BBX 12 10 1 7
BITMAP
0F00
0F80
1F80
3FC0
3FC0
79E0
78F0
F0F0
E070
2040
ENDCHAR
STARTCHAR 005F
ENCODING 95
SWIDTH 468 0
DWIDTH 13 0
BBX 14 3 0 -5
BITMAP
FFFC
FFFC
FFFC
ENDCHAR
STARTCHAR 0060
ENCODING 96
SWIDTH 468 0
DWIDTH 13 0
BBX 6 4 4 14
BITMAP
60
70
FC
3C
ENDCHAR
STARTCHAR 0061
ENCODING 97
SWIDTH 468 0
DWIDTH 13 0
BBX 11 13 1 0
BITMAP
7F80
3FC0
3FE0
00E0
00E0
1FE0
7FE0
F8E0
F0E0
F0E0
FCE0
7FE0
3FE0
ENDCHAR
STARTCHAR 0062
ENCODING 98
SWIDTH 468 0
DWIDTH 13 0
BBX 11 19 2 0
BITMAP
E000
E000
E000
E000
E000
E000
FF80
FFC0
FFC0
E1E0
E1E0
E1E0
E0E0
E1E0
E1E0
E1E0
FFC0
FF80
FF00
ENDCHAR
STARTCHAR 0063
ENCODING 99
SWIDTH 468 0
DWIDTH 13 0
BBX 12 13 1 0
BITMAP
0FF0
3FE0
7FE0
7800
F000
F000
F000
F000
F000
7800
7FF0
3FF0
0FF0
ENDCHAR
STARTCHAR 0064
ENCODING 100
SWIDTH 468 0
DWIDTH 13 0
BBX 11 19 1 0
BITMAP
00E0
00E0
00E0
00E0
00E0
00E0
3FE0
7FE0
7FE0
F0E0
E0E0
E0E0
E0E0
E0E0
F0E0
F0E0
7FE0
7FE0
1FE0
ENDCHAR
STARTCHAR 0065
ENCODING 101
SWIDTH 468 0
DWIDTH 13 0
BBX 12 13 1 0
BITMAP
1F80
3FE0
7FE0
F0F0
F070
FFF0
FFF0
FFF0
F000
F000
7FE0
3FE0
1FE0
ENDCHAR
STARTCHAR 0066
ENCODING 102
SWIDTH 468 0
DWIDTH 13 0
BBX 13 19 1 0
BITMAP
07F8
0FF0
1FF0
1E00
1C00
1C00
FFF0
FFF0
FFF0
1C00
1C00
1C00
1C00
1C00
1C00
1C00
1C00
1C00
1C00
ENDCHAR
STARTCHAR 0067
ENCODING 103
SWIDTH 468 0
DWIDTH 13 0
BBX 11 18 1 -5
BITMAP
1FE0
7FE0
7DE0
F0E0
F0E0
E0E0
E0E0
F0E0
F0E0
7FE0
7FE0
3FE0
00E0
01E0
43E0
FFC0
FF80
1C00
ENDCHAR
STARTCHAR 0068
ENCODING 104
SWIDTH 468 0
DWIDTH 13 0
BBX 10 19 2 0
BITMAP
E000
E000
E000
E000
E000
E000
FF00
FF80
FFC0
E3C0
E1C0
E1C0
E1C0
E1C0
E1C0
E1C0
E1C0
E1C0
E1C0
ENDCHAR
STARTCHAR 0069
ENCODING 105
SWIDTH 468 0
DWIDTH 13 0
BBX 12 19 1 0
BITMAP
1C00
1E00
1E00
1C00
0000
0000
FE00
FE00
FE00
0E00
0E00
0E00
0E00
0E00
0E00
0E00
0FF0
0FF0
07F0
ENDCHAR
STARTCHAR 006A
ENCODING 106
SWIDTH 468 0
DWIDTH 13 0
BBX 10 24 1 -5
BITMAP
0380
07C0
07C0
0380
0000
0000
7FC0
7FC0
7FC0
01C0
01C0
01C0
01C0
01C0
01C0
01C0
01C0
01C0
01C0
01C0
73C0
7F80
FF80
1E00
ENDCHAR
STARTCHAR 006B
ENCODING 107
SWIDTH 468 0
DWIDTH 13 0
BBX 11 19 2 0
BITMAP
E000
E000
E000
E000
E000
E000
E1E0
E3C0
E780
EF00
EE00
FC00
FE00
EF00
E700
E780
E3C0
E1E0
E1E0
ENDCHAR
STARTCHAR 006C
ENCODING 108
SWIDTH 468 0
DWIDTH 13 0
BBX 12 19 1 0
BITMAP
FE00
FE00
FE00
0E00
0E00
0E00
0E00
0E00
0E00
0E00
0E00
0E00
0E00
0E00
0E00
0E00
0FF0
0FF0
07F0
ENDCHAR
STARTCHAR 006D
ENCODING 109
SWIDTH 468 0
DWIDTH 13 0
BBX 12 13 1 0
BITMAP
FFE0
FFF0
FFF0
EE70
E670
E670
E670
E670
E070
E070
E070
E070
E070
ENDCHAR
STARTCHAR 006E
ENCODING 110
SWIDTH 468 0
DWIDTH 13 0
BBX 10 13 2 0
BITMAP
FF00
FF80
FFC0
E3C0
E1C0
E1C0
E1C0
E1C0
E1C0
E1C0
E1C0
E1C0
E1C0
ENDCHAR
STARTCHAR 006F
ENCODING 111
SWIDTH 468 0
DWIDTH 13 0
BBX 12 13 1 0
BITMAP
1F80
3FC0
7FE0
F0F0
F0F0
E070
E070
E070
F0F0
F0F0
7FE0
3FC0
1F80
ENDCHAR
STARTCHAR 0070
ENCODING 112
SWIDTH 468 0
DWIDTH 13 0
BBX 11 18 2 -5
BITMAP
FF00
FF80
FFC0
E1E0
E1E0
E1E0
E0E0
E1E0
E1E0
E1E0
FFC0
FFC0
FF80
E000
E000
E000
E000
E000
ENDCHAR
STARTCHAR 0071
ENCODING 113
SWIDTH 468 0
DWIDTH 13 0
BBX 11 18 1 -5
BITMAP
1FE0
3FE0
7FE0
F0E0
F0E0
E0E0
E0E0
E0E0
F0E0
F0E0
7FE0
7FE0
3FE0
00E0
00E0
00E0
00E0
00E0
ENDCHAR
STARTCHAR 0072
ENCODING 114
SWIDTH 468 0
DWIDTH 13 0
BBX 11 13 2 0
BITMAP
7FE0
FFE0
FFC0
F000
F000
F000
F000
F000
F000
F000
F000
F000
F000
ENDCHAR
STARTCHAR 0073
ENCODING 115
SWIDTH 468 0
DWIDTH 13 0
BBX 10 13 2 0
BITMAP
3FC0
FFC0
FB80
E000
F000
FE00
7F80
1FC0
03C0
01C0
FFC0
FFC0
FF00
ENDCHAR
STARTCHAR 0074
ENCODING 116
SWIDTH 468 0
DWIDTH 13 0
BBX 12 17 1 0
BITMAP
0C00
1C00
1C00
1C00
FFF0
FFF0
FFF0
1C00
1C00
1C00
1C00
1C00
1C00
1E00
1FF0
0FF0
0FF0
ENDCHAR
STARTCHAR 0075
ENCODING 117
SWIDTH 468 0
DWIDTH 13 0
BBX 10 13 2 0
BITMAP
E1C0
E1C0
E1C0
E1C0
E1C0
E1C0
E1C0
E1C0
E1C0
F1C0
FFC0
7FC0
3FC0
ENDCHAR
STARTCHAR 0076
ENCODING 118
SWIDTH 468 0
DWIDTH 13 0
BBX 12 13 1 0
BITMAP
E070
E070
F0F0
F0E0
70E0
79E0
39C0
3BC0
3F80
1F80
1F00
0F00
0F00
ENDCHAR
STARTCHAR 0077
ENCODING 119
SWIDTH 468 0
DWIDTH 13 0
BBX 14 13 0 0
BITMAP
E01C
E018
6018
6318
67B8
67B8
77B8
77B8
7DF8
7CF0
3CF0
38F0
3870
ENDCHAR
STARTCHAR 0078
ENCODING 120
SWIDTH 468 0
DWIDTH 13 0
BBX 12 13 1 0
BITMAP
F0F0
70E0
79C0
3FC0
1F80
0F00
0F00
1F80
3FC0
39C0
71E0
F0F0
E070
ENDCHAR
STARTCHAR 0079
ENCODING 121
SWIDTH 468 0
DWIDTH 13 0
BBX 12 18 1 -5
BITMAP
F0F0
F0F0
70E0
78E0
78E0
39E0
3DC0
3DC0
1DC0
1F80
0F80
0F00
0700
0F00
9E00
FE00
FC00
F000
ENDCHAR
STARTCHAR 007A
ENCODING 122
SWIDTH 468 0
DWIDTH 13 0
BBX 10 13 2 0
BITMAP
FFC0
FFC0
FFC0
0780
0F00
1E00
1E00
3C00
7800
7000
FFC0
FFC0
FFC0
ENDCHAR
STARTCHAR 007B
ENCODING 123
SWIDTH 468 0
DWIDTH 13 0
BBX 10 24 2 -5
BITMAP
0FC0
1FC0
1E00
1C00
1C00
1C00
1C00
1C00
1C00
1C00
F800
E000
F800
3C00
1C00
1C00
1C00
1C00
1C00
1C00
1C00
1FC0
0FC0
01C0
ENDCHAR
STARTCHAR 007C
ENCODING 124
SWIDTH 468 0
DWIDTH 13 0
BBX 4 24 5 -5
BITMAP
F0
F0
F0
F0
F0
F0
F0
F0
F0
F0
F0
F0
F0
F0
F0
F0
F0
F0
F0
F0
F0
F0
F0
F0
ENDCHAR
STARTCHAR 007D
ENCODING 125
SWIDTH 468 0
DWIDTH 13 0
BBX 10 24 2 -5
BITMAP
FC00
FE00
1E00
0E00
0E00
0E00
0E00
0E00
0E00
0E00
07C0
01C0
07C0
0E00
0E00
0E00
0E00
0E00
0E00
0E00
1E00
FE00
FC00
E000
ENDCHAR
STARTCHAR 007E
ENCODING 126
SWIDTH 468 0
DWIDTH 13 0
BBX 12 5 1 5
BITMAP
3820
7E70
FFF0
EFF0
C3E0
ENDCHAR
STARTCHAR 00A0
ENCODING 160
SWIDTH 468 0
DWIDTH 13 0
BBX 0 0 0 0
BITMAP
ENDCHAR
STARTCHAR 00A1
ENCODING 161
SWIDTH 468 0
DWIDTH 13 0
BBX 4 18 5 -5
BITMAP
60
F0
F0
F0
60
00
00
E0
F0
F0
F0
F0
F0
F0
F0
F0
F0
F0
ENDCHAR
STARTCHAR 00A2
ENCODING 162
SWIDTH 468 0
DWIDTH 13 0
BBX 12 20 1 -3
BITMAP
0780
0780
0780
07C0
1FE0
3FE0
7C20
7000
F000
F000
F000
F000
7800
7FE0
3FE0
0FF0
0780
0780
0780
0780
ENDCHAR
STARTCHAR 00A3
ENCODING 163
SWIDTH 468 0
DWIDTH 13 0
BBX 12 18 1 0
BITMAP
0080
0FE0
1FE0
1E60
3C00
3C00
3C00
3C00
FFC0
FFC0
FFC0
3C00
3800
3800
3800
3FF0
3FF0
3FF0
ENDCHAR
STARTCHAR 00A4
ENCODING 164
SWIDTH 468 0
DWIDTH 13 0
BBX 12 11 1 3
BITMAP
6060
FFF0
7FE0
79E0
70E0
70E0
70E0
7FE0
FFF0
FFF0
6060
ENDCHAR
STARTCHAR 00A5
ENCODING 165
SWIDTH 468 0
DWIDTH 13 0
BBX 12 17 1 0
BITMAP
E070
F0F0
F0E0
70E0
79E0
39C0
1F80
1F80
FFE0
FFE0
0F00
0F00
FFE0
FFE0
0F00
0F00
0F00
ENDCHAR
STARTCHAR 00A6
ENCODING 166
SWIDTH 468 0
DWIDTH 13 0
BBX 4 24 5 -5
BITMAP
F0
F0
F0
F0
F0
F0
F0
F0
F0
00
00
00
00
00
F0
F0
F0
F0
F0
F0
F0
F0
F0
F0
ENDCHAR
STARTCHAR 00A7
ENCODING 167
SWIDTH 468 0
DWIDTH 13 0
BBX 11 21 1 -3
BITMAP
0300
1FE0
3FE0
7CC0
7800
3C00
3F80
3FC0
73E0
70E0
70E0
70E0
7CE0
3FC0
0FC0
03E0
01E0
61E0
7FE0
FFC0
0F00
ENDCHAR
STARTCHAR 00A8
ENCODING 168
SWIDTH 468 0
DWIDTH 13 0
BBX 10 4 2 15
BITMAP
6180
F3C0
F3C0
7380
ENDCHAR
STARTCHAR 00A9
ENCODING 169
SWIDTH 468 0
DWIDTH 13 0
BBX 12 13 1 0
BITMAP
1F80
3FC0
6060
C770
DF30
D830
D830
D830
DF30
CF30
6060
7FC0
1F80
ENDCHAR
STARTCHAR 00AA
ENCODING 170
SWIDTH 468 0
DWIDTH 13 0
BBX 8 10 3 8
BITMAP
18
7E
7F
07
3F
FF
E3
E3
FF
7F
ENDCHAR
STARTCHAR 00AB
ENCODING 171
SWIDTH 468 0
DWIDTH 13 0
BBX 11 12 2 1
BITMAP
1080
38C0
31C0
7180
E380
E700
E700
E380
7180
31C0
38E0
1000
ENDCHAR
STARTCHAR 00AC
ENCODING 172
SWIDTH 468 0
DWIDTH 13 0
BBX 11 9 1 1
BITMAP
FFE0
FFE0
FFE0
0060
0060
0060
0060
0060
0060
ENDCHAR
STARTCHAR 00AD
ENCODING 173
SWIDTH 468 0
DWIDTH 13 0
BBX 8 4 3 5
BITMAP
FF
FF
FF
FF
ENDCHAR
STARTCHAR 00AE
ENCODING 174
SWIDTH 468 0
DWIDTH 13 0
BBX 12 13 1 0
BITMAP
1F80
3FC0
6060
CF70
CB30
C9B0
CF30
CF30
C930
C9B0
6060
7FC0
1F80
ENDCHAR
STARTCHAR 00AF
ENCODING 175
SWIDTH 468 0
DWIDTH 13 0
BBX 8 2 3 16
BITMAP
FF
FF
ENDCHAR
STARTCHAR 00B0
ENCODING 176
SWIDTH 468 0
DWIDTH 13 0
BBX 8 7 3 12
BITMAP
7E
FF
E7
C7
E7
FE
7E
ENDCHAR
STARTCHAR 00B1
ENCODING 177
SWIDTH 468 0
DWIDTH 13 0
BBX 12 16 1 0
BITMAP
0E00
0E00
0E00
0E00
0E00
FFF0
FFF0
FFF0
0E00
0E00
0E00
0E00
0000
FFF0
FFF0
FFF0
ENDCHAR
STARTCHAR 00B2
ENCODING 178
SWIDTH 468 0
DWIDTH 13 0
BBX 7 11 4 7
BITMAP
10
FC
FC
8C
1C
3C
78
F0
FE
FE
FE
ENDCHAR
STARTCHAR 00B3
ENCODING 179
SWIDTH 468 0
DWIDTH 13 0
BBX 8 11 3 7
BITMAP
10
FE
7E
06
3E
3E
0E
07
7F
FE
38
ENDCHAR
STARTCHAR 00B4
ENCODING 180
SWIDTH 468 0
DWIDTH 13 0
BBX 5 5 5 14
BITMAP
10
78
F8
E0
80
ENDCHAR
STARTCHAR 00B5
ENCODING 181
SWIDTH 468 0
DWIDTH 13 0
BBX 10 18 2 -5
BITMAP
E1C0
E1C0
E1C0
E1C0
E1C0
E1C0
E1C0
E1C0
E1C0
F1C0
FFC0
FFC0
FFC0
E000
E000
E000
E000
E000
ENDCHAR
STARTCHAR 00B6
ENCODING 182
SWIDTH 468 0
DWIDTH 13 0
BBX 12 22 1 -5
BITMAP
3FF0
7FF0
FE70
FE70
FE70
FE70
FE70
FE70
FE70
7E70
0E70
0E70
0E70
0E70
0E70
0E70
0E70
0E70
0E70
0E70
0E70
0E70
ENDCHAR
STARTCHAR 00B7
ENCODING 183
SWIDTH 468 0
DWIDTH 13 0
BBX 5 5 4 5
BITMAP
30
78
F8
78
78
ENDCHAR
STARTCHAR 00B8
ENCODING 184
SWIDTH 468 0
DWIDTH 13 0
BBX 5 6 5 -5
BITMAP
30
60
38
38
F8
E0
ENDCHAR
STARTCHAR 00B9
ENCODING 185
SWIDTH 468 0
DWIDTH 13 0
BBX 8 10 4 7
BITMAP
38
F8
F8
98
18
18
18
FF
FF
FF
ENDCHAR
STARTCHAR 00BA
ENCODING 186
SWIDTH 468 0
DWIDTH 13 0
BBX 10 10 2 8
BITMAP
0800
3F00
7F80
F380
E1C0
E1C0
E1C0
F380
7F80
3F00
ENDCHAR
STARTCHAR 00BB
ENCODING 187
SWIDTH 468 0
DWIDTH 13 0
BBX 11 12 1 1
BITMAP
0100
E380
7180
31C0
38E0
1CE0
1CE0
38E0
31C0
7180
E380
0100
ENDCHAR
STARTCHAR 00BC
ENCODING 188
SWIDTH 468 0
DWIDTH 13 0
BBX 14 17 0 0
BITMAP
3870
F870
F8E0
38E0
39C0
39C0
3B80
0380
0700
0600
0E38
0C78
1CD8
1898
39FC
31FC
7018
ENDCHAR
STARTCHAR 00BD
ENCODING 189
SWIDTH 468 0
DWIDTH 13 0
BBX 14 17 0 0
BITMAP
3870
F870
F8E0
38E0
39C0
39C0
3B80
0380
0700
0600
0EF8
0CF8
1C18
1838
3870
30FC
70FC
ENDCHAR
STARTCHAR 00BE
ENCODING 190
SWIDTH 468 0
DWIDTH 13 0
BBX 13 18 1 0
BITMAP
2000
F870
18E0
78E0
79C0
19C0
FB80
F380
0700
0700
0E00
0C70
1CF0
19B0
3930
33F8
73F8
6030
ENDCHAR
STARTCHAR 00BF
ENCODING 191
SWIDTH 468 0
DWIDTH 13 0
BBX 10 18 2 -5
BITMAP
0E00
1F00
1F00
0F00
0400
0000
0000
0E00
1E00
3E00
7C00
F800
F000
F000
F080
FFC0
7FC0
0E00
ENDCHAR
STARTCHAR 00C0
ENCODING 192
SWIDTH 468 0
DWIDTH 13 0
BBX 14 23 0 0
BITMAP
0400
0F00
0F80
03C0
0080
0000
0780
0780
0FC0
0FC0
0FC0
1CE0
1CE0
1CE0
3CE0
38F0
3FF0
3FF0
7FF8
7078
7078
7038
F03C
ENDCHAR
STARTCHAR 00C1
ENCODING 193
SWIDTH 468 0
DWIDTH 13 0
BBX 14 23 0 0
BITMAP
0180
0380
07C0
0F00
0400
0000
0780
0780
0FC0
0FC0
0FC0
1CE0
1CE0
1CE0
3CE0
38F0
3FF0
3FF0
7FF8
7078
7078
7038
F03C
ENDCHAR
STARTCHAR 00C2
ENCODING 194
SWIDTH 468 0
DWIDTH 13 0
BBX 14 23 0 0
BITMAP
0300
0780
0FC0
1CE0
0840
0000
0780
0780
0FC0
0FC0
0FC0
1CE0
1CE0
1CE0
3CE0
38F0
3FF0
3FF0
7FF8
7078
7078
7038
F03C
ENDCHAR
STARTCHAR 00C3
ENCODING 195
SWIDTH 468 0
DWIDTH 13 0
BBX 14 22 0 1
BITMAP
0FE0
1FE0
19C0
0000
0000
0780
0780
0FC0
0FC0
0FC0
1CE0
1CE0
1CE0
3CE0
38F0
3FF0
3FF0
7FF8
7078
7078
7038
F03C
ENDCHAR
STARTCHAR 00C4
ENCODING 196
SWIDTH 468 0
DWIDTH 13 0
BBX 14 23 0 0
BITMAP
0840
3CE0
3CF0
1CE0
0000
0000
0780
0780
0FC0
0FC0
0FC0
1CE0
1CE0
1CE0
3CE0
38F0
3FF0
3FF0
7FF8
7078
7078
7038
F03C
ENDCHAR
STARTCHAR 00C5
ENCODING 197
SWIDTH 468 0
DWIDTH 13 0
BBX 14 22 0 0
BITMAP
0780
0FC0
0CC0
0CC0
0F80
0780
0780
0FC0
0FC0
0FC0
1CE0
1CE0
1CE0
3CE0
38F0
3FF0
3FF0
7FF8
7078
7078
7038
F03C
ENDCHAR
STARTCHAR 00C6
ENCODING 198
SWIDTH 468 0
DWIDTH 13 0
BBX 14 17 0 0
BITMAP
07F8
07F8
0FF8
0FC0
0FC0
1DC0
1DF8
1DF8
1DF8
39C0
3FC0
3FC0
7FC0
71C0
71FC
71FC
F1FC
ENDCHAR
STARTCHAR 00C7
ENCODING 199
SWIDTH 468 0
DWIDTH 13 0
BBX 12 23 1 -5
BITMAP
0300
1FF0
3FF0
7EE0
7800
F000
F000
E000
E000
E000
E000
E000
F000
F000
7800
7FF0
3FF0
1FE0
0600
0380
0380
0F80
0E00
ENDCHAR
STARTCHAR 00C8
ENCODING 200
SWIDTH 468 0
DWIDTH 13 0
BBX 11 23 2 0
BITMAP
1000
3C00
3E00
0F00
0200
0000
FFC0
FFC0
FFC0
E000
E000
E000
FF80
FF80
FF80
E000
E000
E000
E000
E000
FFE0
FFE0
FFE0
ENDCHAR
STARTCHAR 00C9
ENCODING 201
SWIDTH 468 0
DWIDTH 13 0
BBX 11 23 2 0
BITMAP
0600
0E00
1F00
3C00
1000
0000
FFC0
FFC0
FFC0
E000
E000
E000
FF80
FF80
FF80
E000
E000
E000
E000
E000
FFE0
FFE0
FFE0
ENDCHAR
STARTCHAR 00CA
ENCODING 202
SWIDTH 468 0
DWIDTH 13 0
BBX 11 23 2 0
BITMAP
0C00
1E00
3F00
7380
2100
0000
FFC0
FFC0
FFC0
E000
E000
E000
FF80
FF80
FF80
E000
E000
E000
E000
E000
FFE0
FFE0
FFE0
ENDCHAR
STARTCHAR 00CB
ENCODING 203
SWIDTH 468 0
DWIDTH 13 0
BBX 11 23 2 0
BITMAP
2100
F380
F3C0
7380
0000
0000
FFC0
FFC0
FFC0
E000
E000
E000
FF80
FF80
FF80
E000
E000
E000
E000
E000
FFE0
FFE0
FFE0
ENDCHAR
STARTCHAR 00CC
ENCODING 204
SWIDTH 468 0
DWIDTH 13 0
BBX 11 23 1 0
BITMAP
0800
1E00
1F00
0780
0100
0000
FFE0
FFE0
FFE0
0F00
0F00
0F00
0F00
0F00
0F00
0F00
0F00
0F00
0F00
0F00
FFE0
FFE0
FFE0
ENDCHAR
STARTCHAR 00CD
ENCODING 205
SWIDTH 468 0
DWIDTH 13 0
BBX 11 23 1 0
BITMAP
0300
0700
0F80
1E00
0800
0000
FFE0
FFE0
FFE0
0F00
0F00
0F00
0F00
0F00
0F00
0F00
0F00
0F00
0F00
0F00
FFE0
FFE0
FFE0
ENDCHAR
STARTCHAR 00CE
ENCODING 206
SWIDTH 468 0
DWIDTH 13 0
BBX 11 23 1 0
BITMAP
0600
0F00
1F80
39C0
1080
0000
FFE0
FFE0
FFE0
0F00
0F00
0F00
0F00
0F00
0F00
0F00
0F00
0F00
0F00
0F00
FFE0
FFE0
FFE0
ENDCHAR
STARTCHAR 00CF
ENCODING 207
SWIDTH 468 0
DWIDTH 13 0
BBX 11 23 1 0
BITMAP
1080
79C0
79E0
39C0
0000
0000
FFE0
FFE0
FFE0
0F00
0F00
0F00
0F00
0F00
0F00
0F00
0F00
0F00
0F00
0F00
FFE0
FFE0
FFE0
ENDCHAR
STARTCHAR 00D0
ENCODING 208
SWIDTH 468 0
DWIDTH 13 0
BBX 13 17 0 0
BITMAP
3FC0
3FE0
3FF0
38F0
3878
3878
3838
FF38
FF38
FF38
3878
3878
3878
38F0
3FF0
3FE0
3F80
ENDCHAR
STARTCHAR 00D1
ENCODING 209
SWIDTH 468 0
DWIDTH 13 0
BBX 12 22 1 1
BITMAP
1FC0
3FC0
3380
0000
0000
E070
F070
F870
F870
FC70
FC70
EE70
EE70
E770
E770
E3F0
E3F0
E1F0
E1F0
E0F0
E0F0
E070
ENDCHAR
STARTCHAR 00D2
ENCODING 210
SWIDTH 468 0
DWIDTH 13 0
BBX 12 23 1 0
BITMAP
0800
1E00
1F00
0780
0100
0600
1F80
3FC0
7FE0
F0E0
F0F0
E0F0
E070
E070
E070
E070
E070
E0F0
F0F0
F0E0
7FE0
3FC0
1F80
ENDCHAR
STARTCHAR 00D3
ENCODING 211
SWIDTH 468 0
DWIDTH 13 0
BBX 12 23 1 0
BITMAP
0300
0700
0F80
1E00
0800
0600
1F80
3FC0
7FE0
F0E0
F0F0
E0F0
E070
E070
E070
E070
E070
E0F0
F0F0
F0E0
7FE0
3FC0
1F80
ENDCHAR
STARTCHAR 00D4
ENCODING 212
SWIDTH 468 0
DWIDTH 13 0
BBX 12 23 1 0
BITMAP
0600
0F00
1F80
39C0
1080
0600
1F80
3FC0
7FE0
F0E0
F0F0
E0F0
E070
E070
E070
E070
E070
E0F0
F0F0
F0E0
7FE0
3FC0
1F80
ENDCHAR
STARTCHAR 00D5
ENCODING 213
SWIDTH 468 0
DWIDTH 13 0
BBX 12 22 1 1
BITMAP
1FC0
3FC0
3380
0000
0600
1F80
3FC0
7FE0
F0E0
F0F0
E0F0
E070
E070
E070
E070
E070
E0F0
F0F0
F0E0
7FE0
3FC0
1F80
ENDCHAR
STARTCHAR 00D6
ENCODING 214
SWIDTH 468 0
DWIDTH 13 0
BBX 12 23 1 0
BITMAP
1080
79C0
79E0
39C0
0000
0600
1F80
3FC0
7FE0
F0E0
F0F0
E0F0
E070
E070
E070
E070
E070
E0F0
F0F0
F0E0
7FE0
3FC0
1F80
ENDCHAR
STARTCHAR 00D7
ENCODING 215
SWIDTH 468 0
DWIDTH 13 0
BBX 10 11 2 2
BITMAP
4080
E1C0
F3C0
7F80
3F00
1E00
3F00
7F80
F3C0
E1C0
4080
ENDCHAR
STARTCHAR 00D8
ENCODING 216
SWIDTH 468 0
DWIDTH 13 0
BBX 12 19 1 -1
BITMAP
0660
1FE0
3FE0
7FE0
F1E0
F3F0
E3F0
E770
E770
EE70
EE70
FC70
FCF0
F8F0
F8E0
7FE0
7FC0
7F80
6000
ENDCHAR
STARTCHAR 00D9
ENCODING 217
SWIDTH 468 0
DWIDTH 13 0
BBX 12 23 1 0
BITMAP
0800
1C00
1F00
0F00
0100
0000
F0F0
F0F0
F0F0
F0F0
F0F0
F0F0
F0F0
F0F0
F0F0
F0F0
F0F0
F0F0
F0F0
F0F0
7FE0
7FE0
3FC0
ENDCHAR
STARTCHAR 00DA
ENCODING 218
SWIDTH 468 0
DWIDTH 13 0
BBX 12 23 1 0
BITMAP
0100
0780
0F80
0E00
0800
0000
F0F0
F0F0
F0F0
F0F0
F0F0
F0F0
F0F0
F0F0
F0F0
F0F0
F0F0
F0F0
F0F0
F0F0
7FE0
7FE0
3FC0
ENDCHAR
STARTCHAR 00DB
ENCODING 219
SWIDTH 468 0
DWIDTH 13 0
BBX 12 23 1 0
BITMAP
0600
0F00
1F80
39C0
1080
0000
F0F0
F0F0
F0F0
F0F0
F0F0
F0F0
F0F0
F0F0
F0F0
F0F0
F0F0
F0F0
F0F0
F0F0
7FE0
7FE0
3FC0
ENDCHAR
STARTCHAR 00DC
ENCODING 220
SWIDTH 468 0
DWIDTH 13 0
BBX 12 23 1 0
BITMAP
1080
79C0
79E0
39C0
0000
0000
F0F0
F0F0
F0F0
F0F0
F0F0
F0F0
F0F0
F0F0
F0F0
F0F0
F0F0
F0F0
F0F0
F0F0
7FE0
7FE0
3FC0
ENDCHAR
STARTCHAR 00DD
ENCODING 221
SWIDTH 468 0
DWIDTH 13 0
BBX 12 23 1 0
BITMAP
0100
0780
0F80
0E00
0800
0000
E070
F0F0
F0F0
70E0
79E0
39C0
3DC0
1F80
1F80
0F00
0F00
0F00
0F00
0F00
0F00
0F00
0F00
ENDCHAR
STARTCHAR 00DE
ENCODING 222
SWIDTH 468 0
DWIDTH 13 0
BBX 12 17 1 0
BITMAP
F000
F000
FE00
FFC0
FFE0
F1F0
F0F0
F070
F070
F0F0
F1F0
FFE0
FFC0
FF00
F000
F000
F000
ENDCHAR
STARTCHAR 00DF
ENCODING 223
SWIDTH 468 0
DWIDTH 13 0
BBX 13 19 1 0
BITMAP
3F80
7FC0
FFC0
F1C0
E1C0
E1C0
E3C0
E380
E780
E780
E780
E3E0
E1F0
E0F0
E078
E078
E7F0
E7F0
E7E0
ENDCHAR
STARTCHAR 00E0
ENCODING 224
SWIDTH 468 0
DWIDTH 13 0
BBX 11 19 1 0
BITMAP
0800
1E00
1F00
0700
0100
0000
7F80
3FC0
3FE0
00E0
00E0
1FE0
7FE0
F8E0
F0E0
F0E0
FCE0
7FE0
3FE0
ENDCHAR
STARTCHAR 00E1
ENCODING 225
SWIDTH 468 0
DWIDTH 13 0
BBX 11 19 1 0
BITMAP
0100
0780
0F80
0E00
0800
0000
7F80
3FC0
3FE0
00E0
00E0
1FE0
7FE0
F8E0
F0E0
F0E0
FCE0
7FE0
3FE0
ENDCHAR
STARTCHAR 00E2
ENCODING 226
SWIDTH 468 0
DWIDTH 13 0
BBX 11 19 1 0
BITMAP
0600
0F00
1F80
39C0
1080
0000
7F80
3FC0
3FE0
00E0
00E0
1FE0
7FE0
F8E0
F0E0
F0E0
FCE0
7FE0
3FE0
ENDCHAR
STARTCHAR 00E3
ENCODING 227
SWIDTH 468 0
DWIDTH 13 0
BBX 11 19 1 0
BITMAP
0800
3FC0
3FC0
3380
0000
0000
7F80
3FC0
3FE0
00E0
00E0
1FE0
7FE0
F8E0
F0E0
F0E0
FCE0
7FE0
3FE0
ENDCHAR
STARTCHAR 00E4
ENCODING 228
SWIDTH 468 0
DWIDTH 13 0
BBX 11 19 1 0
BITMAP
30C0
79E0
79E0
39C0
0000
0000
7F80
3FC0
3FE0
00E0
00E0
1FE0
7FE0
F8E0
F0E0
F0E0
FCE0
7FE0
3FE0
ENDCHAR
STARTCHAR 00E5
ENCODING 229
SWIDTH 468 0
DWIDTH 13 0
BBX 11 20 1 0
BITMAP
0600
0F00
1980
1980
1F80
0F00
0000
7F80
3FC0
3FE0
00E0
00E0
1FE0
7FE0
F8E0
F0E0
F0E0
FCE0
7FE0
3FE0
ENDCHAR
STARTCHAR 00E6
ENCODING 230
SWIDTH 468 0
DWIDTH 13 0
BBX 13 13 1 0
BITMAP
7DE0
7FF0
4F70
0730
0730
7FF8
FFF8
E7F8
C700
C700
FFF0
FFF0
7DF0
ENDCHAR
STARTCHAR 00E7
ENCODING 231
SWIDTH 468 0
DWIDTH 13 0
BBX 12 18 1 -5
BITMAP
0FF0
3FE0
7FE0
7800
F000
F000
F000
F000
F000
7800
7FF0
3FF0
0FF0
0600
0380
0380
0F80
0E00
ENDCHAR
STARTCHAR 00E8
ENCODING 232
SWIDTH 468 0
DWIDTH 13 0
BBX 12 19 1 0
BITMAP
0800
1E00
1F00
0700
0100
0000
1F80
3FE0
7FE0
F0F0
F070
FFF0
FFF0
FFF0
F000
F000
7FE0
3FE0
1FE0
ENDCHAR
STARTCHAR 00E9
ENCODING 233
SWIDTH 468 0
DWIDTH 13 0
BBX 12 19 1 0
BITMAP
0100
0780
0F80
0E00
0000
0000
1F80
3FE0
7FE0
F0F0
F070
FFF0
FFF0
FFF0
F000
F000
7FE0
3FE0
1FE0
ENDCHAR
STARTCHAR 00EA
ENCODING 234
SWIDTH 468 0
DWIDTH 13 0
BBX 12 19 1 0
BITMAP
0600
0F00
1F80
39C0
1080
0000
1F80
3FE0
7FE0
F0F0
F070
FFF0
FFF0
FFF0
F000
F000
7FE0
3FE0
1FE0
ENDCHAR
STARTCHAR 00EB
ENCODING 235
SWIDTH 468 0
DWIDTH 13 0
BBX 12 19 1 0
BITMAP
30C0
79E0
79E0
39C0
0000
0000
1F80
3FE0
7FE0
F0F0
F070
FFF0
FFF0
FFF0
F000
F000
7FE0
3FE0
1FE0
ENDCHAR
STARTCHAR 00EC
ENCODING 236
SWIDTH 468 0
DWIDTH 13 0
BBX 12 19 1 0
BITMAP
1800
1C00
3F00
0F00
0000
0000
FE00
FE00
FE00
0E00
0E00
0E00
0E00
0E00
0E00
0E00
0FF0
0FF0
07F0
ENDCHAR
STARTCHAR 00ED
ENCODING 237
SWIDTH 468 0
DWIDTH 13 0
BBX 12 19 1 0
BITMAP
0300
0700
1F80
1E00
0800
0000
FE00
FE00
FE00
0E00
0E00
0E00
0E00
0E00
0E00
0E00
0FF0
0FF0
07F0
ENDCHAR
STARTCHAR 00EE
ENCODING 238
SWIDTH 468 0
DWIDTH 13 0
BBX 12 19 1 0
BITMAP
0400
0E00
3F80
3B80
1000
0000
FE00
FE00
FE00
0E00
0E00
0E00
0E00
0E00
0E00
0E00
0FF0
0FF0
07F0
ENDCHAR
STARTCHAR 00EF
ENCODING 239
SWIDTH 468 0
DWIDTH 13 0
BBX 12 19 1 0
BITMAP
3180
7BC0
7BC0
71C0
0000
0000
FE00
FE00
FE00
0E00
0E00
0E00
0E00
0E00
0E00
0E00
0FF0
0FF0
07F0
ENDCHAR
STARTCHAR 00F0
ENCODING 240
SWIDTH 468 0
DWIDTH 13 0
BBX 12 19 1 0
BITMAP
0600
0F10
07F0
07F0
0FC0
0DC0
01E0
06E0
3FE0
7FF0
70F0
F0F0
F0F0
F0F0
F0E0
F1E0
7FE0
7FC0
1F80
ENDCHAR
STARTCHAR 00F1
ENCODING 241
SWIDTH 468 0
DWIDTH 13 0
BBX 10 19 2 0
BITMAP
1000
7F80
7F80
6700
0000
0000
FF00
FF80
FFC0
E3C0
E1C0
E1C0
E1C0
E1C0
E1C0
E1C0
E1C0
E1C0
E1C0
ENDCHAR
STARTCHAR 00F2
ENCODING 242
SWIDTH 468 0
DWIDTH 13 0
BBX 12 19 1 0
BITMAP
0800
1E00
1F00
0700
0100
0000
1F80
3FC0
7FE0
F0F0
F0F0
E070
E070
E070
F0F0
F0F0
7FE0
3FC0
1F80
ENDCHAR
STARTCHAR 00F3
ENCODING 243
SWIDTH 468 0
DWIDTH 13 0
BBX 12 19 1 0
BITMAP
0300
0780
0F80
1E00
0800
0000
1F80
3FC0
7FE0
F0F0
F0F0
E070
E070
E070
F0F0
F0F0
7FE0
3FC0
1F80
ENDCHAR
STARTCHAR 00F4
ENCODING 244
SWIDTH 468 0
DWIDTH 13 0
BBX 12 19 1 0
BITMAP
0600
0F00
1F80
39C0
1080
0000
1F80
3FC0
7FE0
F0F0
F0F0
E070
E070
E070
F0F0
F0F0
7FE0
3FC0
1F80
ENDCHAR
STARTCHAR 00F5
ENCODING 245
SWIDTH 468 0
DWIDTH 13 0
BBX 12 19 1 0
BITMAP
0800
3FC0
3FC0
3380
0000
0000
1F80
3FC0
7FE0
F0F0
F0F0
E070
E070
E070
F0F0
F0F0
7FE0
3FC0
1F80
ENDCHAR
STARTCHAR 00F6
ENCODING 246
SWIDTH 468 0
DWIDTH 13 0
BBX 12 19 1 0
BITMAP
30C0
79E0
79E0
39C0
0000
0000
1F80
3FC0
7FE0
F0F0
F0F0
E070
E070
E070
F0F0
F0F0
7FE0
3FC0
1F80
ENDCHAR
STARTCHAR 00F7
ENCODING 247
SWIDTH 468 0
DWIDTH 13 0
BBX 12 14 1 0
BITMAP
0F00
0F00
0F00
0600
0000
FFF0
FFF0
FFF0
0000
0000
0F00
0F00
0F00
0600
ENDCHAR
STARTCHAR 00F8
ENCODING 248
SWIDTH 468 0
DWIDTH 13 0
BBX 12 15 1 -1
BITMAP
0020
1FF0
3FE0
7FE0
F1F0
F3F0
E770
E670
EE70
FCF0
F8F0
7FE0
7FC0
FF80
4000
ENDCHAR
STARTCHAR 00F9
ENCODING 249
SWIDTH 468 0
DWIDTH 13 0
BBX 10 19 2 0
BITMAP
1000
3C00
3E00
0E00
0200
0000
E1C0
E1C0
E1C0
E1C0
E1C0
E1C0
E1C0
E1C0
E1C0
F1C0
FFC0
7FC0
3FC0
ENDCHAR
STARTCHAR 00FA
ENCODING 250
SWIDTH 468 0
DWIDTH 13 0
BBX 10 19 2 0
BITMAP
0600
0E00
3F00
3C00
1000
0000
E1C0
E1C0
E1C0
E1C0
E1C0
E1C0
E1C0
E1C0
E1C0
F1C0
FFC0
7FC0
3FC0
ENDCHAR
STARTCHAR 00FB
ENCODING 251
SWIDTH 468 0
DWIDTH 13 0
BBX 10 19 2 0
BITMAP
0C00
1E00
3F00
7380
2100
0000
E1C0
E1C0
E1C0
E1C0
E1C0
E1C0
E1C0
E1C0
E1C0
F1C0
FFC0
7FC0
3FC0
ENDCHAR
STARTCHAR 00FC
ENCODING 252
SWIDTH 468 0
DWIDTH 13 0
BBX 10 19 2 0
BITMAP
6180
F3C0
F3C0
7380
0000
0000
E1C0
E1C0
E1C0
E1C0
E1C0
E1C0
E1C0
E1C0
E1C0
F1C0
FFC0
7FC0
3FC0
ENDCHAR
STARTCHAR 00FD
ENCODING 253
SWIDTH 468 0
DWIDTH 13 0
BBX 12 24 1 -5
BITMAP
0300
0700
1F80
1E00
0800
0000
F0F0
F0F0
70E0
78E0
78E0
39E0
3DC0
3DC0
1DC0
1F80
0F80
0F00
0700
0F00
9E00
FE00
FC00
F000
ENDCHAR
STARTCHAR 00FE
ENCODING 254
SWIDTH 468 0
DWIDTH 13 0
BBX 11 24 2 -5
BITMAP
E000
E000
E000
E000
E000
E000
FF00
FF80
FFC0
E1E0
E1E0
E1E0
E0E0
E1E0
E1E0
E1E0
FFC0
FFC0
FF80
E000
E000
E000
E000
E000
ENDCHAR
STARTCHAR 00FF
ENCODING 255
SWIDTH 468 0
DWIDTH 13 0
BBX 12 24 1 -5
BITMAP
30C0
79E0
79E0
39C0
0000
0000
F0F0
F0F0
70E0
78E0
78E0
39E0
3DC0
3DC0
1DC0
1F80
0F80
0F00
0700
0F00
9E00
FE00
FC00
F000
ENDCHAR
STARTCHAR 0100
ENCODING 256
SWIDTH 468 0
DWIDTH 13 0
BBX 14 22 0 0
BITMAP
1FE0
1FE0
1FE0
0000
0000
0780
0780
0FC0
0FC0
0FC0
1CE0
1CE0
1CE0
3CE0
38F0
3FF0
3FF0
7FF8
7078
7078
7038
F03C
ENDCHAR
STARTCHAR 0101
ENCODING 257
SWIDTH 468 0
DWIDTH 13 0
BBX 11 18 1 0
BITMAP
3FC0
3FC0
0000
0000
0000
7F80
3FC0
3FE0
00E0
00E0
1FE0
7FE0
F8E0
F0E0
F0E0
FCE0
7FE0
3FE0
ENDCHAR
STARTCHAR 0102
ENCODING 258
SWIDTH 468 0
DWIDTH 13 0
BBX 14 23 0 0
BITMAP
18E0
1CE0
1FC0
0FC0
0000
0000
0780
0780
0FC0
0FC0
0FC0
1CE0
1CE0
1CE0
3CE0
38F0
3FF0
3FF0
7FF8
7078
7078
7038
F03C
ENDCHAR
STARTCHAR 0103
ENCODING 259
SWIDTH 468 0
DWIDTH 13 0
BBX 11 19 1 0
BITMAP
31C0
39C0
1F80
0F00
0000
0000
7F80
3FC0
3FE0
00E0
00E0
1FE0
7FE0
F8E0
F0E0
F0E0
FCE0
7FE0
3FE0
ENDCHAR
STARTCHAR 0104
ENCODING 260
SWIDTH 468 0
DWIDTH 13 0
BBX 14 22 0 -5
BITMAP
0780
0780
0FC0
0FC0
0FC0
1CE0
1CE0
1CE0
3CE0
38F0
3FF0
3FF0
7FF8
7078
7078
7038
F03C
0038
0070
0070
007C
0038
ENDCHAR
STARTCHAR 0105
ENCODING 261
SWIDTH 468 0
DWIDTH 13 0
BBX 11 18 1 -5
BITMAP
7F80
3FC0
3FE0
00E0
00E0
1FE0
7FE0
F8E0
F0E0
F0E0
FCE0
7FE0
3FE0
01C0
0180
0380
03E0
01E0
ENDCHAR
STARTCHAR 0106
ENCODING 262
SWIDTH 468 0
DWIDTH 13 0
BBX 12 23 1 0
BITMAP
0080
03C0
07C0
0700
0400
0300
1FF0
3FF0
7EE0
7800
F000
F000
E000
E000
E000
E000
E000
F000
F000
7800
7FF0
3FF0
1FE0
ENDCHAR
STARTCHAR 0107
ENCODING 263
SWIDTH 468 0
DWIDTH 13 0
BBX 12 19 1 0
BITMAP
0180
0380
07C0
0F00
0400
0000
0FF0
3FE0
7FE0
7800
F000
F000
F000
F000
F000
7800
7FF0
3FF0
0FF0
ENDCHAR
STARTCHAR 0108
ENCODING 264
SWIDTH 468 0
DWIDTH 13 0
BBX 12 23 1 0
BITMAP
0100
0380
07C0
0EE0
0440
0300
1FF0
3FF0
7EE0
7800
F000
F000
E000
E000
E000
E000
E000
F000
F000
7800
7FF0
3FF0
1FE0
ENDCHAR
STARTCHAR 0109
ENCODING 265
SWIDTH 468 0
DWIDTH 13 0
BBX 12 19 1 0
BITMAP
0300
0780
0FC0
0EE0
0840
0000
0FF0
3FE0
7FE0
7800
F000
F000
F000
F000
F000
7800
7FF0
3FF0
0FF0
ENDCHAR
STARTCHAR 010A
ENCODING 266
SWIDTH 468 0
DWIDTH 13 0
BBX 12 23 1 0
BITMAP
0100
0380
0780
0380
0000
0300
1FF0
3FF0
7EE0
7800
F000
F000
E000
E000
E000
E000
E000
F000
F000
7800
7FF0
3FF0
1FE0
ENDCHAR
STARTCHAR 010B
ENCODING 267
SWIDTH 468 0
DWIDTH 13 0
BBX 12 19 1 0
BITMAP
0300
0380
0780
0380
0000
0000
0FF0
3FE0
7FE0
7800
F000
F000
F000
F000
F000
7800
7FF0
3FF0
0FF0
ENDCHAR
STARTCHAR 010C
ENCODING 268
SWIDTH 468 0
DWIDTH 13 0
BBX 12 23 1 0
BITMAP
0C40
0EE0
07C0
0380
0100
0300
1FF0
3FF0
7EE0
7800
F000
F000
E000
E000
E000
E000
E000
F000
F000
7800
7FF0
3FF0
1FE0
ENDCHAR
STARTCHAR 010D
ENCODING 269
SWIDTH 468 0
DWIDTH 13 0
BBX 12 19 1 0
BITMAP
0C60
0EE0
07C0
0380
0100
0000
0FF0
3FE0
7FE0
7800
F000
F000
F000
F000
F000
7800
7FF0
3FF0
0FF0
ENDCHAR
STARTCHAR 010E
ENCODING 270
SWIDTH 468 0
DWIDTH 13 0
BBX 12 23 1 0
BITMAP
2100
7F80
3F00
1E00
0C00
0000
FF80
FFC0
FFE0
F1E0
F0F0
F0F0
F070
F070
F070
F070
F0F0
F0F0
F0F0
F1E0
FFE0
FFC0
FF00
ENDCHAR
STARTCHAR 010F
ENCODING 271
SWIDTH 468 0
DWIDTH 13 0
BBX 14 19 0 0
BITMAP
01DC
01DC
01DC
01DC
01DC
01DC
3FC0
7FC0
7FC0
71C0
F1C0
F1C0
F1C0
F1C0
F1C0
71C0
7FC0
3FC0
1FC0
ENDCHAR
STARTCHAR 0110
ENCODING 272
SWIDTH 468 0
DWIDTH 13 0
BBX 13 17 0 0
BITMAP
3FC0
3FE0
3FF0
38F0
3878
3878
3838
FF38
FF38
FF38
3878
3878
3878
38F0
3FF0
3FE0
3F80
ENDCHAR
STARTCHAR 0111
ENCODING 273
SWIDTH 468 0
DWIDTH 13 0
BBX 12 19 1 0
BITMAP
01E0
01E0
0FF0
0FF0
01E0
01E0
3FE0
7FE0
7FE0
F1E0
E1E0
E1E0
E1E0
E1E0
F1E0
F1E0
7FE0
7FE0
3FE0
ENDCHAR
STARTCHAR 0112
ENCODING 274
SWIDTH 468 0
DWIDTH 13 0
BBX 11 22 2 0
BITMAP
7F80
7F80
7F80
0000
0000
FFC0
FFC0
FFC0
E000
E000
E000
FF80
FF80
FF80
E000
E000
E000
E000
E000
FFE0
FFE0
FFE0
ENDCHAR
STARTCHAR 0113
ENCODING 275
SWIDTH 468 0
DWIDTH 13 0
BBX 12 18 1 0
BITMAP
3FC0
3FC0
0000
0000
0000
1F80
3FE0
7FE0
F0F0
F070
FFF0
FFF0
FFF0
F000
F000
7FE0
3FE0
1FE0
ENDCHAR
STARTCHAR 0114
ENCODING 276
SWIDTH 468 0
DWIDTH 13 0
BBX 11 23 2 0
BITMAP
6380
7380
7F00
3F00
0000
0000
FFC0
FFC0
FFC0
E000
E000
E000
FF80
FF80
FF80
E000
E000
E000
E000
E000
FFE0
FFE0
FFE0
ENDCHAR
STARTCHAR 0115
ENCODING 277
SWIDTH 468 0
DWIDTH 13 0
BBX 12 19 1 0
BITMAP
31C0
39C0
1F80
0F00
0000
0000
1F80
3FE0
7FE0
F0F0
F070
FFF0
FFF0
FFF0
F000
F000
7FE0
3FE0
1FE0
ENDCHAR
STARTCHAR 0116
ENCODING 278
SWIDTH 468 0
DWIDTH 13 0
BBX 11 23 2 0
BITMAP
0C00
1E00
1E00
1E00
0000
0000
FFC0
FFC0
FFC0
E000
E000
E000
FF80
FF80
FF80
E000
E000
E000
E000
E000
FFE0
FFE0
FFE0
ENDCHAR
STARTCHAR 0117
ENCODING 279
SWIDTH 468 0
DWIDTH 13 0
BBX 12 19 1 0
BITMAP
0600
0F00
0F00
0E00
0000
0000
1F80
3FE0
7FE0
F0F0
F070
FFF0
FFF0
FFF0
F000
F000
7FE0
3FE0
1FE0
ENDCHAR
STARTCHAR 0118
ENCODING 280
SWIDTH 468 0
DWIDTH 13 0
BBX 11 22 2 -5
BITMAP
FFC0
FFC0
FFC0
E000
E000
E000
FF80
FF80
FF80
E000
E000
E000
E000
E000
FFE0
FFE0
FFE0
01C0
0380
0380
03E0
01E0
ENDCHAR
STARTCHAR 0119
ENCODING 281
SWIDTH 468 0
DWIDTH 13 0
BBX 12 18 1 -5
BITMAP
1F80
3FE0
7FE0
F0F0
F070
FFF0
FFF0
FFF0
F000
F000
7FE0
3FE0
1FE0
01C0
0380
0380
03E0
01C0
ENDCHAR
STARTCHAR 011A
ENCODING 282
SWIDTH 468 0
DWIDTH 13 0
BBX 11 23 2 0
BITMAP
2100
7780
3F00
1E00
0800
0000
FFC0
FFC0
FFC0
E000
E000
E000
FF80
FF80
FF80
E000
E000
E000
E000
E000
FFE0
FFE0
FFE0
ENDCHAR
STARTCHAR 011B
ENCODING 283
SWIDTH 468 0
DWIDTH 13 0
BBX 12 19 1 0
BITMAP
1180
3FC0
1F80
0E00
0000
0000
1F80
3FE0
7FE0
F0F0
F070
FFF0
FFF0
FFF0
F000
F000
7FE0
3FE0
1FE0
ENDCHAR
STARTCHAR 011C
ENCODING 284
SWIDTH 468 0
DWIDTH 13 0
BBX 12 23 1 0
BITMAP
0100
0780
0FC0
1EE0
0840
0380
1FF0
3FF0
7EE0
7800
F000
F000
E000
E000
E0F0
E0F0
E0F0
F0F0
F0F0
78F0
7FF0
3FF0
1FF0
ENDCHAR
STARTCHAR 011D
ENCODING 285
SWIDTH 468 0
DWIDTH 13 0
BBX 11 24 1 -5
BITMAP
0600
0F00
1F80
39C0
1080
0000
1FE0
7FE0
7DE0
F0E0
F0E0
E0E0
E0E0
F0E0
F0E0
7FE0
7FE0
3FE0
00E0
01E0
43E0
FFC0
FF80
1C00
ENDCHAR
STARTCHAR 011E
ENCODING 286
SWIDTH 468 0
DWIDTH 13 0
BBX 12 23 1 0
BITMAP
1C60
1CE0
0FE0
07C0
0000
0380
1FF0
3FF0
7EE0
7800
F000
F000
E000
E000
E0F0
E0F0
E0F0
F0F0
F0F0
78F0
7FF0
3FF0
1FF0
ENDCHAR
STARTCHAR 011F
ENCODING 287
SWIDTH 468 0
DWIDTH 13 0
BBX 11 24 1 -5
BITMAP
31C0
39C0
1F80
0F00
0000
0000
1FE0
7FE0
7DE0
F0E0
F0E0
E0E0
E0E0
F0E0
F0E0
7FE0
7FE0
3FE0
00E0
01E0
43E0
FFC0
FF80
1C00
ENDCHAR
STARTCHAR 0120
ENCODING 288
SWIDTH 468 0
DWIDTH 13 0
BBX 12 23 1 0
BITMAP
0100
0780
0780
0380
0000
0380
1FF0
3FF0
7EE0
7800
F000
F000
E000
E000
E0F0
E0F0
E0F0
F0F0
F0F0
78F0
7FF0
3FF0
1FF0
ENDCHAR
STARTCHAR 0121
ENCODING 289
SWIDTH 468 0
DWIDTH 13 0
BBX 11 24 1 -5
BITMAP
0600
0F00
0F00
0E00
0000
0000
1FE0
7FE0
7DE0
F0E0
F0E0
E0E0
E0E0
F0E0
F0E0
7FE0
7FE0
3FE0
00E0
01E0
43E0
FFC0
FF80
1C00
ENDCHAR
STARTCHAR 0122
ENCODING 290
SWIDTH 468 0
DWIDTH 13 0
BBX 12 23 1 -5
BITMAP
0380
1FF0
3FF0
7EE0
7800
F000
F000
E000
E000
E0F0
E0F0
E0F0
F0F0
F0F0
78F0
7FF0
3FF0
1FF0
0000
0300
0700
0F00
0E00
ENDCHAR
STARTCHAR 0123
ENCODING 291
SWIDTH 468 0
DWIDTH 13 0
BBX 11 24 1 -4
BITMAP
0380
0780
0700
0700
0000
0000
1FE0
7FE0
7DE0
F0E0
F0E0
E0E0
E0E0
F0E0
F0E0
7FE0
7FE0
3FE0
00E0
01E0
43E0
FFC0
FF80
1C00
ENDCHAR
STARTCHAR 0124
ENCODING 292
SWIDTH 468 0
DWIDTH 13 0
BBX 12 23 1 0
BITMAP
0600
0F00
1F80
39C0
1080
0000
F0F0
F0F0
F0F0
F0F0
F0F0
F0F0
F0F0
FFF0
FFF0
F0F0
F0F0
F0F0
F0F0
F0F0
F0F0
F0F0
F0F0
ENDCHAR
STARTCHAR 0125
ENCODING 293
SWIDTH 468 0
DWIDTH 13 0
BBX 10 23 2 0
BITMAP
3000
7800
FE00
C400
0000
E000
E000
E000
E000
E000
FF00
FF80
FFC0
E3C0
E1C0
E1C0
E1C0
E1C0
E1C0
E1C0
E1C0
E1C0
E1C0
ENDCHAR
STARTCHAR 0126
ENCODING 294
SWIDTH 468 0
DWIDTH 13 0
BBX 13 17 0 0
BITMAP
3870
3870
FFF8
FFF8
FFF8
3870
3870
3FF0
3FF0
3FF0
3870
3870
3870
3870
3870
3870
3870
ENDCHAR
STARTCHAR 0127
ENCODING 295
SWIDTH 468 0
DWIDTH 13 0
BBX 11 19 1 0
BITMAP
7800
7800
FF00
FF00
7800
7800
7F80
7FC0
7FE0
79E0
78E0
78E0
78E0
78E0
78E0
78E0
78E0
78E0
78E0
ENDCHAR
STARTCHAR 0128
ENCODING 296
SWIDTH 468 0
DWIDTH 13 0
BBX 11 22 1 1
BITMAP
1FC0
3FC0
3380
0000
0000
FFE0
FFE0
FFE0
0F00
0F00
0F00
0F00
0F00
0F00
0F00
0F00
0F00
0F00
0F00
FFE0
FFE0
FFE0
ENDCHAR
STARTCHAR 0129
ENCODING 297
SWIDTH 468 0
DWIDTH 13 0
BBX 12 19 1 0
BITMAP
0080
3FC0
7F80
2700
0000
0000
FE00
FE00
FE00
0E00
0E00
0E00
0E00
0E00
0E00
0E00
0FF0
0FF0
07F0
ENDCHAR
STARTCHAR 012A
ENCODING 298
SWIDTH 468 0
DWIDTH 13 0
BBX 11 22 1 0
BITMAP
3FC0
3FC0
3FC0
0000
0000
FFE0
FFE0
FFE0
0F00
0F00
0F00
0F00
0F00
0F00
0F00
0F00
0F00
0F00
0F00
FFE0
FFE0
FFE0
ENDCHAR
STARTCHAR 012B
ENCODING 299
SWIDTH 468 0
DWIDTH 13 0
BBX 12 18 1 0
BITMAP
7F80
7F80
0000
0000
0000
FE00
FE00
FE00
0E00
0E00
0E00
0E00
0E00
0E00
0E00
0FF0
0FF0
07F0
ENDCHAR
STARTCHAR 012C
ENCODING 300
SWIDTH 468 0
DWIDTH 13 0
BBX 11 23 1 0
BITMAP
31C0
39C0
3F80
1F80
0000
0000
FFE0
FFE0
FFE0
0F00
0F00
0F00
0F00
0F00
0F00
0F00
0F00
0F00
0F00
0F00
FFE0
FFE0
FFE0
ENDCHAR
STARTCHAR 012D
ENCODING 301
SWIDTH 468 0
DWIDTH 13 0
BBX 12 19 1 0
BITMAP
7180
3B80
3F80
1F00
0000
0000
FE00
FE00
FE00
0E00
0E00
0E00
0E00
0E00
0E00
0E00
0FF0
0FF0
07F0
ENDCHAR
STARTCHAR 012E
ENCODING 302
SWIDTH 468 0
DWIDTH 13 0
BBX 11 22 1 -5
BITMAP
FFE0
FFE0
FFE0
0F00
0F00
0F00
0F00
0F00
0F00
0F00
0F00
0F00
0F00
0F00
FFE0
FFE0
FFE0
0E00
0C00
1C00
1F00
0F00
ENDCHAR
STARTCHAR 012F
ENCODING 303
SWIDTH 468 0
DWIDTH 13 0
BBX 12 24 1 -5
BITMAP
1C00
1E00
1E00
1C00
0000
0000
FE00
FE00
FE00
0E00
0E00
0E00
0E00
0E00
0E00
0E00
0FF0
0FF0
07F0
00E0
01C0
01C0
01F0
00E0
ENDCHAR
STARTCHAR 0130
ENCODING 304
SWIDTH 468 0
DWIDTH 13 0
BBX 11 23 1 0
BITMAP
0600
0F00
0F00
0600
0000
0000
FFE0
FFE0
FFE0
0F00
0F00
0F00
0F00
0F00
0F00
0F00
0F00
0F00
0F00
0F00
FFE0
FFE0
FFE0
ENDCHAR
STARTCHAR 0131
ENCODING 305
SWIDTH 468 0
DWIDTH 13 0
BBX 12 13 1 0
BITMAP
FE00
FE00
FE00
0E00
0E00
0E00
0E00
0E00
0E00
0E00
0FF0
0FF0
07F0
ENDCHAR
STARTCHAR 0132
ENCODING 306
SWIDTH 468 0
DWIDTH 13 0
BBX 12 17 1 0
BITMAP
E070
E070
E070
E070
E070
E070
E070
E070
E070
E070
E070
E070
E070
E070
E7F0
EFE0
EFE0
ENDCHAR
STARTCHAR 0133
ENCODING 307
SWIDTH 468 0
DWIDTH 13 0
BBX 10 24 2 -5
BITMAP
E1C0
F3C0
F3C0
F3C0
0000
0000
E3C0
E3C0
E3C0
E3C0
E3C0
E3C0
E3C0
E3C0
E3C0
E3C0
E3C0
E3C0
E3C0
03C0
13C0
1F80
1F80
0C00
ENDCHAR
STARTCHAR 0134
ENCODING 308
SWIDTH 468 0
DWIDTH 13 0
BBX 11 23 1 0
BITMAP
0100
0380
07C0
0EE0
0440
0000
3FE0
3FE0
3FE0
00E0
00E0
00E0
00E0
00E0
00E0
00E0
00E0
00E0
00E0
41E0
7FC0
FFC0
7F80
ENDCHAR
STARTCHAR 0135
ENCODING 309
SWIDTH 468 0
DWIDTH 13 0
BBX 10 24 1 -5
BITMAP
0200
0700
1FC0
1DC0
0000
0000
7FC0
7FC0
7FC0
01C0
01C0
01C0
01C0
01C0
01C0
01C0
01C0
01C0
01C0
01C0
73C0
7F80
FF80
1E00
ENDCHAR
STARTCHAR 0136
ENCODING 310
SWIDTH 468 0
DWIDTH 13 0
BBX 12 22 1 -5
BITMAP
F0F0
F1E0
F1E0
F3C0
F780
F700
FF00
FE00
FE00
FF00
F780
F3C0
F3C0
F1E0
F0F0
F0F0
F070
0000
0700
0700
1F00
1C00
ENDCHAR
STARTCHAR 0137
ENCODING 311
SWIDTH 468 0
DWIDTH 13 0
BBX 11 24 2 -5
BITMAP
E000
E000
E000
E000
E000
E000
E1E0
E3C0
E780
EF00
EE00
FC00
FE00
EF00
E700
E780
E3C0
E1E0
E1E0
0000
0E00
0E00
3E00
3800
ENDCHAR
STARTCHAR 0138
ENCODING 312
SWIDTH 468 0
DWIDTH 13 0
BBX 11 13 2 0
BITMAP
E1E0
E3C0
E780
EF00
EE00
FC00
FE00
EF00
E700
E780
E3C0
E1E0
E1E0
ENDCHAR
STARTCHAR 0139
ENCODING 313
SWIDTH 468 0
DWIDTH 13 0
BBX 11 23 2 0
BITMAP
0C00
1C00
7E00
7800
2000
0000
E000
E000
E000
E000
E000
E000
E000
E000
E000
E000
E000
E000
E000
E000
FFE0
FFE0
FFE0
ENDCHAR
STARTCHAR 013A
ENCODING 314
SWIDTH 468 0
DWIDTH 13 0
BBX 12 23 1 0
BITMAP
0100
0700
1F80
1C00
0000
FE00
FE00
FE00
0E00
0E00
0E00
0E00
0E00
0E00
0E00
0E00
0E00
0E00
0E00
0E00
0FF0
0FF0
07F0
ENDCHAR
STARTCHAR 013B
ENCODING 315
SWIDTH 468 0
DWIDTH 13 0
BBX 11 22 2 -5
BITMAP
E000
E000
E000
E000
E000
E000
E000
E000
E000
E000
E000
E000
E000
E000
FFE0
FFE0
FFE0
0000
0600
0E00
1E00
1C00
ENDCHAR
STARTCHAR 013C
ENCODING 316
SWIDTH 468 0
DWIDTH 13 0
BBX 12 24 1 -5
BITMAP
FE00
FE00
FE00
0E00
0E00
0E00
0E00
0E00
0E00
0E00
0E00
0E00
0E00
0E00
0E00
0E00
0FF0
0FF0
07F0
0000
01C0
03C0
0780
0700
ENDCHAR
STARTCHAR 013D
ENCODING 317
SWIDTH 468 0
DWIDTH 13 0
BBX 11 17 2 0
BITMAP
E380
E380
E380
E300
E300
E300
E000
E000
E000
E000
E000
E000
E000
E000
FFE0
FFE0
FFE0
ENDCHAR
STARTCHAR 013E
ENCODING 318
SWIDTH 468 0
DWIDTH 13 0
BBX 12 19 1 0
BITMAP
FE70
FE70
FE70
0E70
0E70
0E60
0E00
0E00
0E00
0E00
0E00
0E00
0E00
0E00
0E00
0E00
0FF0
0FF0
07F0
ENDCHAR
STARTCHAR 013F
ENCODING 319
SWIDTH 468 0
DWIDTH 13 0
BBX 11 17 2 0
BITMAP
E000
E000
E000
E000
E000
E1C0
E3E0
E3E0
E1C0
E000
E000
E000
E000
E000
FFE0
FFE0
FFE0
ENDCHAR
STARTCHAR 0140
ENCODING 320
SWIDTH 468 0
DWIDTH 13 0
BBX 15 19 1 0
BITMAP
FE00
FE00
FE00
0E00
0E00
0E00
0E08
0E1C
0E3E
0E3E
0E1C
0E00
0E00
0E00
0E00
0E00
0FF0
0FF0
07F0
ENDCHAR
STARTCHAR 0141
ENCODING 321
SWIDTH 468 0
DWIDTH 13 0
BBX 13 17 0 0
BITMAP
3C00
3C00
3C00
3C00
3C80
3FC0
3FC0
3F80
FE00
FC00
7C00
3C00
3C00
3C00
3FF8
3FF8
3FF8
ENDCHAR
STARTCHAR 0142
ENCODING 322
SWIDTH 468 0
DWIDTH 13 0
BBX 12 19 1 0
BITMAP
FE00
FE00
FE00
0E00
0E00
0E80
0F80
0FC0
3F00
7E00
3E00
0E00
0E00
0E00
0E00
0E00
0FF0
0FF0
07F0
ENDCHAR
STARTCHAR 0143
ENCODING 323
SWIDTH 468 0
DWIDTH 13 0
BBX 12 23 1 0
BITMAP
0100
0780
0F80
0E00
0800
0000
E070
F070
F870
F870
FC70
FC70
EE70
EE70
E770
E770
E3F0
E3F0
E1F0
E1F0
E0F0
E0F0
E070
ENDCHAR
STARTCHAR 0144
ENCODING 324
SWIDTH 468 0
DWIDTH 13 0
BBX 10 19 2 0
BITMAP
0600
0F00
1F00
3C00
1000
0000
FF00
FF80
FFC0
E3C0
E1C0
E1C0
E1C0
E1C0
E1C0
E1C0
E1C0
E1C0
E1C0
ENDCHAR
STARTCHAR 0145
ENCODING 325
SWIDTH 468 0
DWIDTH 13 0
BBX 12 22 1 -5
BITMAP
E070
F070
F870
F870
FC70
FC70
EE70
EE70
E770
E770
E3F0
E3F0
E1F0
E1F0
E0F0
E0F0
E070
0000
0700
0700
1F00
1C00
ENDCHAR
STARTCHAR 0146
ENCODING 326
SWIDTH 468 0
DWIDTH 13 0
BBX 10 18 2 -5
BITMAP
FF00
FF80
FFC0
E3C0
E1C0
E1C0
E1C0
E1C0
E1C0
E1C0
E1C0
E1C0
E1C0
0000
0E00
1E00
3C00
3800
ENDCHAR
STARTCHAR 0147
ENCODING 327
SWIDTH 468 0
DWIDTH 13 0
BBX 12 23 1 0
BITMAP
1080
3BC0
1F80
0F00
0400
0000
E070
F070
F870
F870
FC70
FC70
EE70
EE70
E770
E770
E3F0
E3F0
E1F0
E1F0
E0F0
E0F0
E070
ENDCHAR
STARTCHAR 0148
ENCODING 328
SWIDTH 468 0
DWIDTH 13 0
BBX 10 19 2 0
BITMAP
2300
7F80
3F00
1C00
0000
0000
FF00
FF80
FFC0
E3C0
E1C0
E1C0
E1C0
E1C0
E1C0
E1C0
E1C0
E1C0
E1C0
ENDCHAR
STARTCHAR 0149
ENCODING 329
SWIDTH 468 0
DWIDTH 13 0
BBX 14 19 -1 0
BITMAP
7000
7000
7000
7000
E000
2000
1FF0
1FF8
1FF8
1E3C
1E3C
1E3C
1E3C
1E3C
1E3C
1E3C
1E3C
1E3C
1E3C
ENDCHAR
STARTCHAR 014A
ENCODING 330
SWIDTH 468 0
DWIDTH 13 0
BBX 12 22 1 -5
BITMAP
E070
F070
F870
F870
FC70
FC70
EE70
EE70
E770
E770
E3F0
E3F0
E1F0
E1F0
E0F0
E0F0
E070
00F0
00E0
03E0
03E0
0300
ENDCHAR
STARTCHAR 014B
ENCODING 331
SWIDTH 468 0
DWIDTH 13 0
BBX 10 18 2 -5
BITMAP
FF00
FF80
FFC0
E3C0
E1C0
E1C0
E1C0
E1C0
E1C0
E1C0
E1C0
E1C0
E1C0
01C0
03C0
0FC0
0F80
0400
ENDCHAR
STARTCHAR 014C
ENCODING 332
SWIDTH 468 0
DWIDTH 13 0
BBX 12 22 1 0
BITMAP
3FC0
3FC0
3FC0
0000
0600
1F80
3FC0
7FE0
F0E0
F0F0
E0F0
E070
E070
E070
E070
E070
E0F0
F0F0
F0E0
7FE0
3FC0
1F80
ENDCHAR
STARTCHAR 014D
ENCODING 333
SWIDTH 468 0
DWIDTH 13 0
BBX 12 18 1 0
BITMAP
3FC0
3FC0
0000
0000
0000
1F80
3FC0
7FE0
F0F0
F0F0
E070
E070
E070
F0F0
F0F0
7FE0
3FC0
1F80
ENDCHAR
STARTCHAR 014E
ENCODING 334
SWIDTH 468 0
DWIDTH 13 0
BBX 12 23 1 0
BITMAP
31C0
39C0
3F80
1F80
0000
0600
1F80
3FC0
7FE0
F0E0
F0F0
E0F0
E070
E070
E070
E070
E070
E0F0
F0F0
F0E0
7FE0
3FC0
1F80
ENDCHAR
STARTCHAR 014F
ENCODING 335
SWIDTH 468 0
DWIDTH 13 0
BBX 12 19 1 0
BITMAP
31C0
39C0
1F80
0F00
0000
0000
1F80
3FC0
7FE0
F0F0
F0F0
E070
E070
E070
F0F0
F0F0
7FE0
3FC0
1F80
ENDCHAR
STARTCHAR 0150
ENCODING 336
SWIDTH 468 0
DWIDTH 13 0
BBX 12 23 1 0
BITMAP
0420
0E70
1CE0
39C0
1080
0600
1F80
3FC0
7FE0
F0E0
F0F0
E0F0
E070
E070
E070
E070
E070
E0F0
F0F0
F0E0
7FE0
3FC0
1F80
ENDCHAR
STARTCHAR 0151
ENCODING 337
SWIDTH 468 0
DWIDTH 13 0
BBX 12 19 1 0
BITMAP
0420
0E70
1CE0
39C0
1080
0000
1F80
3FC0
7FE0
F0F0
F0F0
E070
E070
E070
F0F0
F0F0
7FE0
3FC0
1F80
ENDCHAR
STARTCHAR 0152
ENCODING 338
SWIDTH 468 0
DWIDTH 13 0
BBX 14 17 0 0
BITMAP
1FF8
3FF8
3FF8
71C0
71C0
71C0
71F8
F1F8
F1F8
71C0
71C0
71C0
71C0
79C0
3FFC
3FFC
1FFC
ENDCHAR
STARTCHAR 0153
ENCODING 339
SWIDTH 468 0
DWIDTH 13 0
BBX 13 13 1 0
BITMAP
7DE0
7FF0
EF70
E730
C730
C7F8
C7F8
C7F8
C700
E700
FFF0
7FF0
7DF0
ENDCHAR
STARTCHAR 0154
ENCODING 340
SWIDTH 468 0
DWIDTH 13 0
BBX 12 23 1 0
BITMAP
0300
0700
0F80
1E00
0800
0000
FF80
FFC0
FFE0
F1E0
F0E0
F0E0
F0E0
F1E0
FFE0
FF80
FF80
F3C0
F1C0
F1E0
F0E0
F0F0
F070
ENDCHAR
STARTCHAR 0155
ENCODING 341
SWIDTH 468 0
DWIDTH 13 0
BBX 11 19 2 0
BITMAP
0300
0700
0F80
1E00
0800
0000
7FE0
FFE0
FFC0
F000
F000
F000
F000
F000
F000
F000
F000
F000
F000
ENDCHAR
STARTCHAR 0156
ENCODING 342
SWIDTH 468 0
DWIDTH 13 0
BBX 12 22 1 -5
BITMAP
FF80
FFC0
FFE0
F1E0
F0E0
F0E0
F0E0
F1E0
FFE0
FF80
FF80
F3C0
F1C0
F1E0
F0E0
F0F0
F070
0000
0700
0700
1F00
1C00
ENDCHAR
STARTCHAR 0157
ENCODING 343
SWIDTH 468 0
DWIDTH 13 0
BBX 12 18 1 -5
BITMAP
3FF0
7FF0
7FE0
7800
7800
7800
7800
7800
7800
7800
7800
7800
7800
0000
3800
3800
F000
E000
ENDCHAR
STARTCHAR 0158
ENCODING 344
SWIDTH 468 0
DWIDTH 13 0
BBX 12 23 1 0
BITMAP
1100
3B80
1F00
0E00
0400
0000
FF80
FFC0
FFE0
F1E0
F0E0
F0E0
F0E0
F1E0
FFE0
FF80
FF80
F3C0
F1C0
F1E0
F0E0
F0F0
F070
ENDCHAR
STARTCHAR 0159
ENCODING 345
SWIDTH 468 0
DWIDTH 13 0
BBX 11 19 2 0
BITMAP
1180
3FC0
1F80
0E00
0000
0000
7FE0
FFE0
FFC0
F000
F000
F000
F000
F000
F000
F000
F000
F000
F000
ENDCHAR
STARTCHAR 015A
ENCODING 346
SWIDTH 468 0
DWIDTH 13 0
BBX 12 23 1 0
BITMAP
0100
0780
0F80
1E00
0800
0200
3FE0
7FE0
7CC0
F000
F000
F000
7C00
7F80
1FC0
07E0
01F0
00F0
00F0
40F0
7FE0
FFE0
7FC0
ENDCHAR
STARTCHAR 015B
ENCODING 347
SWIDTH 468 0
DWIDTH 13 0
BBX 10 19 2 0
BITMAP
0200
0F00
1F00
1C00
1000
0000
3FC0
FFC0
FB80
E000
F000
FE00
7F80
1FC0
03C0
01C0
FFC0
FFC0
FF00
ENDCHAR
STARTCHAR 015C
ENCODING 348
SWIDTH 468 0
DWIDTH 13 0
BBX 12 23 1 0
BITMAP
0600
0F00
1F80
39C0
1080
0200
3FE0
7FE0
7CC0
F000
F000
F000
7C00
7F80
1FC0
07E0
01F0
00F0
00F0
40F0
7FE0
FFE0
7FC0
ENDCHAR
STARTCHAR 015D
ENCODING 349
SWIDTH 468 0
DWIDTH 13 0
BBX 10 19 2 0
BITMAP
0C00
1E00
3F00
7380
2100
0000
3FC0
FFC0
FB80
E000
F000
FE00
7F80
1FC0
03C0
01C0
FFC0
FFC0
FF00
ENDCHAR
STARTCHAR 015E
ENCODING 350
SWIDTH 468 0
DWIDTH 13 0
BBX 12 23 1 -5
BITMAP
0200
3FE0
7FE0
7CC0
F000
F000
F000
7C00
7F80
1FC0
07E0
01F0
00F0
00F0
40F0
7FE0
FFE0
7FC0
0C00
0700
0700
3F00
1C00
ENDCHAR
STARTCHAR 015F
ENCODING 351
SWIDTH 468 0
DWIDTH 13 0
BBX 10 18 2 -5
BITMAP
3FC0
FFC0
FB80
E000
F000
FE00
7F80
1FC0
03C0
01C0
FFC0
FFC0
FF00
1C00
0E00
0600
3E00
3C00
ENDCHAR
STARTCHAR 0160
ENCODING 352
SWIDTH 468 0
DWIDTH 13 0
BBX 12 23 1 0
BITMAP
1080
3BC0
1F80
0F00
0400
0200
3FE0
7FE0
7CC0
F000
F000
F000
7C00
7F80
1FC0
07E0
01F0
00F0
00F0
40F0
7FE0
FFE0
7FC0
ENDCHAR
STARTCHAR 0161
ENCODING 353
SWIDTH 468 0
DWIDTH 13 0
BBX 10 19 2 0
BITMAP
2300
7F80
3F00
1C00
0000
0000
3FC0
FFC0
FB80
E000
F000
FE00
7F80
1FC0
03C0
01C0
FFC0
FFC0
FF00
ENDCHAR
STARTCHAR 0162
ENCODING 354
SWIDTH 468 0
DWIDTH 13 0
BBX 12 22 1 -5
BITMAP
FFF0
FFF0
FFF0
0F00
0F00
0F00
0F00
0F00
0F00
0F00
0F00
0F00
0F00
0F00
0F00
0F00
0F00
0E00
0700
0300
1F00
1C00
ENDCHAR
STARTCHAR 0163
ENCODING 355
SWIDTH 468 0
DWIDTH 13 0
BBX 12 22 1 -5
BITMAP
0C00
1C00
1C00
1C00
FFF0
FFF0
FFF0
1C00
1C00
1C00
1C00
1C00
1C00
1E00
1FF0
0FF0
0FF0
0380
01C0
00C0
07C0
0700
ENDCHAR
STARTCHAR 0164
ENCODING 356
SWIDTH 468 0
DWIDTH 13 0
BBX 12 23 1 0
BITMAP
1080
3BC0
1F80
0F00
0400
0000
FFF0
FFF0
FFF0
0F00
0F00
0F00
0F00
0F00
0F00
0F00
0F00
0F00
0F00
0F00
0F00
0F00
0F00
ENDCHAR
STARTCHAR 0165
ENCODING 357
SWIDTH 468 0
DWIDTH 13 0
BBX 12 19 1 0
BITMAP
00E0
00E0
0CE0
1CC0
1CC0
1C00
FFF0
FFF0
FFF0
1C00
1C00
1C00
1C00
1C00
1C00
1E00
1FF0
0FF0
0FF0
ENDCHAR
STARTCHAR 0166
ENCODING 358
SWIDTH 468 0
DWIDTH 13 0
BBX 12 17 1 0
BITMAP
FFF0
FFF0
FFF0
0F00
0F00
0F00
0F00
0F00
7FE0
7FE0
0F00
0F00
0F00
0F00
0F00
0F00
0F00
ENDCHAR
STARTCHAR 0167
ENCODING 359
SWIDTH 468 0
DWIDTH 13 0
BBX 12 17 1 0
BITMAP
0C00
1C00
1C00
1C00
FFF0
FFF0
FFF0
1C00
1C00
FFF0
FFF0
1C00
1C00
1E00
1FF0
0FF0
0FF0
ENDCHAR
STARTCHAR 0168
ENCODING 360
SWIDTH 468 0
DWIDTH 13 0
BBX 12 22 1 1
BITMAP
1FC0
3FC0
3380
0000
0000
F0F0
F0F0
F0F0
F0F0
F0F0
F0F0
F0F0
F0F0
F0F0
F0F0
F0F0
F0F0
F0F0
F0F0
7FE0
7FE0
3FC0
ENDCHAR
STARTCHAR 0169
ENCODING 361
SWIDTH 468 0
DWIDTH 13 0
BBX 10 19 2 0
BITMAP
1000
7F80
7F80
6700
0000
0000
E1C0
E1C0
E1C0
E1C0
E1C0
E1C0
E1C0
E1C0
E1C0
F1C0
FFC0
7FC0
3FC0
ENDCHAR
STARTCHAR 016A
ENCODING 362
SWIDTH 468 0
DWIDTH 13 0
BBX 12 22 1 0
BITMAP
3FC0
3FC0
3FC0
0000
0000
F0F0
F0F0
F0F0
F0F0
F0F0
F0F0
F0F0
F0F0
F0F0
F0F0
F0F0
F0F0
F0F0
F0F0
7FE0
7FE0
3FC0
ENDCHAR
STARTCHAR 016B
ENCODING 363
SWIDTH 468 0
DWIDTH 13 0
BBX 10 18 2 0
BITMAP
7F80
7F80
0000
0000
0000
E1C0
E1C0
E1C0
E1C0
E1C0
E1C0
E1C0
E1C0
E1C0
F1C0
FFC0
7FC0
3FC0
ENDCHAR
STARTCHAR 016C
ENCODING 364
SWIDTH 468 0
DWIDTH 13 0
BBX 12 23 1 0
BITMAP
31C0
39C0
3F80
1F80
0000
0000
F0F0
F0F0
F0F0
F0F0
F0F0
F0F0
F0F0
F0F0
F0F0
F0F0
F0F0
F0F0
F0F0
F0F0
7FE0
7FE0
3FC0
ENDCHAR
STARTCHAR 016D
ENCODING 365
SWIDTH 468 0
DWIDTH 13 0
BBX 10 19 2 0
BITMAP
6380
7380
3F00
1E00
0000
0000
E1C0
E1C0
E1C0
E1C0
E1C0
E1C0
E1C0
E1C0
E1C0
F1C0
FFC0
7FC0
3FC0
ENDCHAR
STARTCHAR 016E
ENCODING 366
SWIDTH 468 0
DWIDTH 13 0
BBX 12 23 1 0
BITMAP
0F00
1F80
1980
1980
1F00
0600
F0F0
F0F0
F0F0
F0F0
F0F0
F0F0
F0F0
F0F0
F0F0
F0F0
F0F0
F0F0
F0F0
F0F0
7FE0
7FE0
3FC0
ENDCHAR
STARTCHAR 016F
ENCODING 367
SWIDTH 468 0
DWIDTH 13 0
BBX 10 20 2 0
BITMAP
0C00
1E00
3300
3300
3F00
1E00
0000
E1C0
E1C0
E1C0
E1C0
E1C0
E1C0
E1C0
E1C0
E1C0
F1C0
FFC0
7FC0
3FC0
ENDCHAR
STARTCHAR 0170
ENCODING 368
SWIDTH 468 0
DWIDTH 13 0
BBX 12 23 1 0
BITMAP
0420
0E70
1CE0
39C0
1080
0000
F0F0
F0F0
F0F0
F0F0
F0F0
F0F0
F0F0
F0F0
F0F0
F0F0
F0F0
F0F0
F0F0
F0F0
7FE0
7FE0
3FC0
ENDCHAR
STARTCHAR 0171
ENCODING 369
SWIDTH 468 0
DWIDTH 13 0
BBX 11 19 2 0
BITMAP
18C0
3DE0
7BC0
7380
0000
0000
E1C0
E1C0
E1C0
E1C0
E1C0
E1C0
E1C0
E1C0
E1C0
F1C0
FFC0
7FC0
3FC0
ENDCHAR
STARTCHAR 0172
ENCODING 370
SWIDTH 468 0
DWIDTH 13 0
BBX 12 22 1 -5
BITMAP
F0F0
F0F0
F0F0
F0F0
F0F0
F0F0
F0F0
F0F0
F0F0
F0F0
F0F0
F0F0
F0F0
F0F0
7FE0
7FE0
3FC0
0380
0700
0600
0780
0380
ENDCHAR
STARTCHAR 0173
ENCODING 371
SWIDTH 468 0
DWIDTH 13 0
BBX 10 18 2 -5
BITMAP
E1C0
E1C0
E1C0
E1C0
E1C0
E1C0
E1C0
E1C0
E1C0
F1C0
FFC0
7FC0
3FC0
0380
0700
0700
07C0
0380
ENDCHAR
STARTCHAR 0174
ENCODING 372
SWIDTH 468 0
DWIDTH 13 0
BBX 12 23 1 0
BITMAP
0600
0F00
1F80
39C0
1080
0000
E070
E070
E070
E070
E070
E070
E670
EF70
EF70
EF70
FF70
F9F0
F9F0
F9F0
F0E0
F0E0
70E0
ENDCHAR
STARTCHAR 0175
ENCODING 373
SWIDTH 468 0
DWIDTH 13 0
BBX 14 19 0 0
BITMAP
0300
0780
0FC0
1CE0
0840
0000
E01C
E018
6018
6318
67B8
67B8
77B8
77B8
7DF8
7CF0
3CF0
38F0
3870
ENDCHAR
STARTCHAR 0176
ENCODING 374
SWIDTH 468 0
DWIDTH 13 0
BBX 12 23 1 0
BITMAP
0600
0F00
1F80
39C0
1080
0000
E070
F0F0
F0F0
70E0
79E0
39C0
3DC0
1F80
1F80
0F00
0F00
0F00
0F00
0F00
0F00
0F00
0F00
ENDCHAR
STARTCHAR 0177
ENCODING 375
SWIDTH 468 0
DWIDTH 13 0
BBX 12 24 1 -5
BITMAP
0600
0F00
1F80
39C0
1080
0000
F0F0
F0F0
70E0
78E0
78E0
39E0
3DC0
3DC0
1DC0
1F80
0F80
0F00
0700
0F00
9E00
FE00
FC00
F000
ENDCHAR
STARTCHAR 0178
ENCODING 376
SWIDTH 468 0
DWIDTH 13 0
BBX 12 23 1 0
BITMAP
1080
79C0
79E0
39C0
0000
0000
E070
F0F0
F0F0
70E0
79E0
39C0
3DC0
1F80
1F80
0F00
0F00
0F00
0F00
0F00
0F00
0F00
0F00
ENDCHAR
STARTCHAR 0179
ENCODING 377
SWIDTH 468 0
DWIDTH 13 0
BBX 12 23 1 0
BITMAP
0100
0780
0F80
0E00
0800
0000
7FE0
7FE0
7FE0
01E0
03C0
0380
0780
0F00
0E00
1E00
1C00
3C00
3800
7800
7FF0
FFF0
FFF0
ENDCHAR
STARTCHAR 017A
ENCODING 378
SWIDTH 468 0
DWIDTH 13 0
BBX 10 19 2 0
BITMAP
0200
0F00
1F00
1C00
1000
0000
FFC0
FFC0
FFC0
0780
0F00
1E00
1E00
3C00
7800
7000
FFC0
FFC0
FFC0
ENDCHAR
STARTCHAR 017B
ENCODING 379
SWIDTH 468 0
DWIDTH 13 0
BBX 12 23 1 0
BITMAP
0600
0F00
0F00
0F00
0000
0000
7FE0
7FE0
7FE0
01E0
03C0
0380
0780
0F00
0E00
1E00
1C00
3C00
3800
7800
7FF0
FFF0
FFF0
ENDCHAR
STARTCHAR 017C
ENCODING 380
SWIDTH 468 0
DWIDTH 13 0
BBX 10 19 2 0
BITMAP
0C00
1E00
1E00
1C00
0000
0000
FFC0
FFC0
FFC0
0780
0F00
1E00
1E00
3C00
7800
7000
FFC0
FFC0
FFC0
ENDCHAR
STARTCHAR 017D
ENCODING 381
SWIDTH 468 0
DWIDTH 13 0
BBX 12 23 1 0
BITMAP
1080
3BC0
1F80
0F00
0400
0000
7FE0
7FE0
7FE0
01E0
03C0
0380
0780
0F00
0E00
1E00
1C00
3C00
3800
7800
7FF0
FFF0
FFF0
ENDCHAR
STARTCHAR 017E
ENCODING 382
SWIDTH 468 0
DWIDTH 13 0
BBX 10 19 2 0
BITMAP
2300
7F80
3F00
1C00
0000
0000
FFC0
FFC0
FFC0
0780
0F00
1E00
1E00
3C00
7800
7000
FFC0
FFC0
FFC0
ENDCHAR
STARTCHAR 017F
ENCODING 383
SWIDTH 468 0
DWIDTH 13 0
BBX 10 19 4 0
BITMAP
3FC0
7F80
FF80
F000
E000
E000
E000
E000
E000
E000
E000
E000
E000
E000
E000
E000
E000
E000
E000
ENDCHAR
STARTCHAR 0180
ENCODING 384
SWIDTH 468 0
DWIDTH 13 0
BBX 13 19 0 0
BITMAP
3800
3800
FF80
FF80
3800
3800
3FE0
3FF0
3FF0
3878
3878
3838
3838
3838
3878
3878
3FF0
3FE0
3FC0
ENDCHAR
STARTCHAR 0181
ENCODING 385
SWIDTH 468 0
DWIDTH 13 0
BBX 14 17 0 0
BITMAP
3FE0
7FF0
FE78
EE38
EE38
8E30
0E70
0FE0
0FF0
0E78
0E38
0E18
0E1C
0E38
0FF8
0FF0
0FE0
ENDCHAR
STARTCHAR 0182
ENCODING 386
SWIDTH 468 0
DWIDTH 13 0
BBX 12 17 1 0
BITMAP
FFC0
FFC0
FFC0
F000
F000
F000
FF80
FFE0
FFE0
F0F0
F070
F070
F070
F0F0
FFE0
FFE0
FF80
ENDCHAR
STARTCHAR 0183
ENCODING 387
SWIDTH 468 0
DWIDTH 13 0
BBX 11 19 2 0
BITMAP
FFC0
FFC0
FFC0
E000
E000
E000
FF80
FFC0
FFC0
E1E0
E1E0
E0E0
E0E0
E0E0
E1E0
E1E0
FFC0
FF80
FF00
ENDCHAR
STARTCHAR 0184
ENCODING 388
SWIDTH 468 0
DWIDTH 13 0
BBX 13 19 0 0
BITMAP
1800
7800
F800
7800
3800
3800
3FE0
3FF0
3FF0
3878
3878
3878
3838
3878
3878
3878
3FF0
3FE0
3FC0
ENDCHAR
STARTCHAR 0185
ENCODING 389
SWIDTH 468 0
DWIDTH 13 0
BBX 13 17 0 0
BITMAP
1800
7800
F800
7800
3800
3800
3F80
3FE0
3FF0
38F8
3878
3838
3878
3878
3FF0
3FF0
3FC0
ENDCHAR
STARTCHAR 0186
ENCODING 390
SWIDTH 468 0
DWIDTH 13 0
BBX 12 18 1 0
BITMAP
0800
FF80
FFC0
F7E0
01E0
00F0
00F0
00F0
0070
0070
00F0
00F0
00F0
00E0
01E0
FFE0
FFC0
FF00
ENDCHAR
STARTCHAR 0187
ENCODING 391
SWIDTH 468 0
DWIDTH 13 0
BBX 13 19 1 1
BITMAP
0078
0278
1FE0
3FC0
7EC0
7800
F000
F000
E000
E000
E000
E000
E000
F000
F000
7800
7FE0
3FE0
1FC0
ENDCHAR
STARTCHAR 0188
ENCODING 392
SWIDTH 468 0
DWIDTH 13 0
BBX 13 15 1 0
BITMAP
0078
00F8
1FE0
3FC0
7FC0
7800
F000
F000
F000
F000
F000
7800
7FC0
3FC0
1FE0
ENDCHAR
STARTCHAR 0189
ENCODING 393
SWIDTH 468 0
DWIDTH 13 0
BBX 13 17 0 0
BITMAP
3FC0
3FE0
3FF0
38F0
3878
3878
3838
FF38
FF38
FF38
3878
3878
3878
38F0
3FF0
3FE0
3F80
ENDCHAR
STARTCHAR 018A
ENCODING 394
SWIDTH 468 0
DWIDTH 13 0
BBX 13 17 0 0
BITMAP
3FC0
7FF0
FE70
EE38
EE38
8E38
0E38
0E38
0E38
0E38
0E38
0E38
0E38
0E78
0FF0
0FE0
0FC0
ENDCHAR
STARTCHAR 018B
ENCODING 395
SWIDTH 468 0
DWIDTH 13 0
BBX 11 17 1 0
BITMAP
7FE0
7FE0
7FE0
00E0
00E0
00E0
0FE0
7FE0
7FE0
F8E0
E0E0
E0E0
E0E0
F0E0
7FE0
7FE0
1FE0
ENDCHAR
STARTCHAR 018C
ENCODING 396
SWIDTH 468 0
DWIDTH 13 0
BBX 11 19 1 0
BITMAP
7FE0
7FE0
7FE0
00E0
00E0
00E0
3FE0
7FE0
7FE0
F0E0
E0E0
E0E0
E0E0
E0E0
F0E0
F0E0
7FE0
7FE0
1FE0
ENDCHAR
STARTCHAR 018D
ENCODING 397
SWIDTH 468 0
DWIDTH 13 0
BBX 12 18 1 -5
BITMAP
3FC0
7FE0
FFE0
F0F0
E0F0
E070
F0F0
F0F0
79E0
7FC0
3F80
0F80
07C0
01C0
21C0
3FC0
7F80
1E00
ENDCHAR
STARTCHAR 018E
ENCODING 398
SWIDTH 468 0
DWIDTH 13 0
BBX 11 17 2 0
BITMAP
FFE0
FFE0
FFE0
01E0
01E0
01E0
7FE0
7FE0
7FE0
01E0
01E0
01E0
01E0
01E0
FFE0
FFE0
FFE0
ENDCHAR
STARTCHAR 018F
ENCODING 399
SWIDTH 468 0
DWIDTH 13 0
BBX 12 18 1 0
BITMAP
1800
FF80
7FC0
67E0
01E0
00E0
0070
0070
FFF0
FFF0
FFF0
E070
E070
E0F0
F0E0
7BE0
3FC0
1F80
ENDCHAR
STARTCHAR 0190
ENCODING 400
SWIDTH 468 0
DWIDTH 13 0
BBX 12 18 1 0
BITMAP
0600
3FE0
7FF0
7FE0
7000
7000
7000
7FC0
3FC0
3FC0
7E00
F000
E000
E000
F010
FFF0
7FF0
3FE0
ENDCHAR
STARTCHAR 0191
ENCODING 401
SWIDTH 468 0
DWIDTH 13 0
BBX 13 22 -1 -5
BITMAP
1FF8
1FF8
1FF8
1C00
1C00
1C00
1C00
1FF0
1FF0
1FF0
1C00
1C00
1C00
1C00
1C00
1C00
1C00
1C00
3C00
FC00
F800
E000
ENDCHAR
STARTCHAR 0192
ENCODING 402
SWIDTH 468 0
DWIDTH 13 0
BBX 14 24 0 -5
BITMAP
03FC
07F8
0FF8
0F00
0E00
0E00
7FF8
7FF8
7FF8
0E00
0E00
0E00
0E00
0E00
0E00
0E00
0E00
0E00
0E00
0E00
1E00
FE00
FC00
F000
ENDCHAR
STARTCHAR 0193
ENCODING 403
SWIDTH 468 0
DWIDTH 13 0
BBX 13 19 1 1
BITMAP
0078
0278
1FE0
3FC0
7CC0
7800
F000
F000
E000
E000
E0F0
E0F0
E0F0
F0F0
F0F0
78F0
7FF0
3FF0
1FF0
ENDCHAR
STARTCHAR 0194
ENCODING 404
SWIDTH 468 0
DWIDTH 13 0
BBX 12 22 1 -5
BITMAP
E070
E070
F0F0
70E0
70E0
39C0
39C0
1B80
1F80
1F80
0F00
0F00
1F00
1F80
3F80
39C0
39C0
39C0
39C0
3FC0
1F80
0600
ENDCHAR
STARTCHAR 0195
ENCODING 405
SWIDTH 468 0
DWIDTH 13 0
BBX 12 19 1 0
BITMAP
C000
C000
C000
C000
C000
C000
FC30
FE30
CE30
C630
C630
C630
C630
C630
C630
C630
C770
C7F0
C3E0
ENDCHAR
STARTCHAR 0196
ENCODING 406
SWIDTH 468 0
DWIDTH 13 0
BBX 12 17 1 0
BITMAP
FFC0
FFC0
FFC0
1E00
1E00
1E00
1E00
1E00
1E00
1E00
1E00
1E00
1E00
1E00
1FE0
0FF0
07F0
ENDCHAR
STARTCHAR 0197
ENCODING 407
SWIDTH 468 0
DWIDTH 13 0
BBX 11 17 1 0
BITMAP
FFE0
FFE0
FFE0
0F00
0F00
0F00
0F00
3FC0
3FC0
0F00
0F00
0F00
0F00
0F00
FFE0
FFE0
FFE0
ENDCHAR
STARTCHAR 0198
ENCODING 408
SWIDTH 468 0
DWIDTH 13 0
BBX 13 18 1 0
BITMAP
0020
F0F8
F1F8
F1F8
F3C0
F780
F700
FF00
FE00
FF00
FF00
F780
F3C0
F3C0
F1E0
F0F0
F0F0
F0F0
ENDCHAR
STARTCHAR 0199
ENCODING 409
SWIDTH 468 0
DWIDTH 13 0
BBX 11 19 2 0
BITMAP
7C00
FC00
FC00
E000
E000
E000
E1E0
E3C0
E780
EF00
EE00
FC00
FE00
EF00
E700
E780
E3C0
E1E0
E1E0
ENDCHAR
STARTCHAR 019A
ENCODING 410
SWIDTH 468 0
DWIDTH 13 0
BBX 12 19 2 0
BITMAP
FE00
FE00
FE00
1E00
1E00
1E00
1E00
1E00
FFC0
FFC0
1E00
1E00
1E00
1E00
1E00
1E00
0FE0
0FE0
07F0
ENDCHAR
STARTCHAR 019B
ENCODING 411
SWIDTH 468 0
DWIDTH 13 0
BBX 12 19 1 0
BITMAP
F800
FCC0
FFC0
1F80
7F00
7F00
0700
0F80
0F80
1F80
1FC0
3FC0
39C0
79E0
79E0
71E0
F0F0
F0F0
E0F0
ENDCHAR
STARTCHAR 019C
ENCODING 412
SWIDTH 468 0
DWIDTH 13 0
BBX 12 17 1 0
BITMAP
C030
C030
C030
C030
C030
C030
C630
C630
C630
C630
C630
C630
C630
C730
FFF0
FFF0
7FF0
ENDCHAR
STARTCHAR 019D
ENCODING 413
SWIDTH 468 0
DWIDTH 13 0
BBX 15 22 -2 -5
BITMAP
1C0E
1E0E
1F0E
1F0E
1F8E
1F8E
1DCE
1DCE
1CEE
1CEE
1C7E
1C7E
1C3E
1C3E
1C1E
1C1E
1C0E
1C00
3C00
FC00
F800
6000
ENDCHAR
STARTCHAR 019E
ENCODING 414
SWIDTH 468 0
DWIDTH 13 0
BBX 10 18 2 -5
BITMAP
FF00
FF80
FFC0
E3C0
E1C0
E1C0
E1C0
E1C0
E1C0
E1C0
E1C0
E1C0
E1C0
01C0
01C0
01C0
01C0
01C0
ENDCHAR
STARTCHAR 019F
ENCODING 415
SWIDTH 468 0
DWIDTH 13 0
BBX 12 18 1 0
BITMAP
0600
1F80
3FC0
7FE0
F0E0
F0F0
E0F0
E070
FFF0
FFF0
FFF0
E070
E0F0
F0F0
F0E0
7FE0
3FC0
1F80
ENDCHAR
STARTCHAR 01A0
ENCODING 416
SWIDTH 468 0
DWIDTH 13 0
BBX 13 20 1 0
BITMAP
0038
0038
0638
1FF0
3FF0
7FE0
F0E0
F0F0
E0F0
E070
E070
E070
E070
E070
E0F0
F0F0
F0E0
7FE0
3FC0
1F80
ENDCHAR
STARTCHAR 01A1
ENCODING 417
SWIDTH 468 0
DWIDTH 13 0
BBX 13 16 1 0
BITMAP
0038
0038
0038
1FF0
3FF0
7FE0
F0F0
F0F0
E070
E070
E070
F0F0
F0F0
7FE0
3FC0
1F80
ENDCHAR
STARTCHAR 01A2
ENCODING 418
SWIDTH 468 0
DWIDTH 13 0
BBX 12 18 1 0
BITMAP
1080
7FE0
7FF0
EF70
E670
E770
E730
E730
E730
E730
E730
E730
E730
E730
E630
FE30
7E30
7C30
ENDCHAR
STARTCHAR 01A3
ENCODING 419
SWIDTH 468 0
DWIDTH 13 0
BBX 12 18 1 -5
BITMAP
7FE0
7FF0
FFF0
E730
C730
C730
C730
C730
C730
E730
FF30
7E30
7C30
0030
0030
0030
0030
0030
ENDCHAR
STARTCHAR 01A4
ENCODING 420
SWIDTH 468 0
DWIDTH 13 0
BBX 13 17 0 0
BITMAP
3FE0
7FF0
FE78
EE38
EE38
8E38
0E38
0E38
0FF8
0FF0
0FE0
0E00
0E00
0E00
0E00
0E00
0E00
ENDCHAR
STARTCHAR 01A5
ENCODING 421
SWIDTH 468 0
DWIDTH 13 0
BBX 11 24 2 -5
BITMAP
7C00
FC00
FC00
E000
E000
E000
FF00
FF80
FFC0
E1E0
E1E0
E1E0
E0E0
E1E0
E1E0
E1E0
FFC0
FFC0
FF80
E000
E000
E000
E000
E000
ENDCHAR
STARTCHAR 01A6
ENCODING 422
SWIDTH 468 0
DWIDTH 13 0
BBX 13 22 1 -3
BITMAP
F000
F000
FF80
FFC0
FFE0
F1E0
F0E0
F0E0
F0E0
F1E0
FFE0
FF80
FF80
F3C0
F1C0
F1E0
F0E0
F0F0
F070
0078
0078
0038
ENDCHAR
STARTCHAR 01A7
ENCODING 423
SWIDTH 468 0
DWIDTH 13 0
BBX 12 18 1 0
BITMAP
0400
7FC0
7FE0
31E0
00E0
00F0
01E0
03E0
1FC0
3F80
7E00
F800
F000
F000
F020
7FE0
7FF0
3FE0
ENDCHAR
STARTCHAR 01A8
ENCODING 424
SWIDTH 468 0
DWIDTH 13 0
BBX 10 13 2 0
BITMAP
FF00
FF80
F7C0
01C0
03C0
1F80
7F80
FC00
F000
E040
FFC0
FFC0
7FC0
ENDCHAR
STARTCHAR 01A9
ENCODING 425
SWIDTH 468 0
DWIDTH 13 0
BBX 12 17 1 0
BITMAP
FFF0
FFF0
7FF0
3800
3C00
1E00
0F00
0780
0780
0F00
1E00
1C00
3800
7800
FFF0
FFF0
FFF0
ENDCHAR
STARTCHAR 01AA
ENCODING 426
SWIDTH 468 0
DWIDTH 13 0
BBX 13 24 0 -5
BITMAP
3F00
7F80
F780
E380
E380
7F80
7F80
3B80
0380
0380
0380
0380
0380
0380
0380
0380
0380
0380
0380
0380
03C0
03F8
01F8
0038
ENDCHAR
STARTCHAR 01AB
ENCODING 427
SWIDTH 468 0
DWIDTH 13 0
BBX 12 22 1 -5
BITMAP
0C00
1C00
1C00
1C00
FFF0
FFF0
FFF0
1C00
1C00
1C00
1C00
1C00
1C00
1E00
1FF0
0FF0
07F0
0070
0070
03F0
03E0
01C0
ENDCHAR
STARTCHAR 01AC
ENCODING 428
SWIDTH 468 0
DWIDTH 13 0
BBX 13 17 0 0
BITMAP
3FF8
7FF8
FFF8
E380
E380
6380
0380
0380
0380
0380
0380
0380
0380
0380
0380
0380
0380
ENDCHAR
STARTCHAR 01AD
ENCODING 429
SWIDTH 468 0
DWIDTH 13 0
BBX 12 19 1 0
BITMAP
07F0
0FF0
1FF0
1E00
1C00
1C00
FFF0
FFF0
FFF0
1C00
1C00
1C00
1C00
1C00
1C00
1E00
1FF0
0FF0
07F0
ENDCHAR
STARTCHAR 01AE
ENCODING 430
SWIDTH 468 0
DWIDTH 13 0
BBX 12 22 1 -5
BITMAP
FFF0
FFF0
FFF0
0F00
0F00
0F00
0F00
0F00
0F00
0F00
0F00
0F00
0F00
0F00
0F00
0F00
0F00
0F00
0F80
07E0
07E0
00C0
ENDCHAR
STARTCHAR 01AF
ENCODING 431
SWIDTH 468 0
DWIDTH 13 0
BBX 13 20 1 0
BITMAP
0038
0038
0038
E1F8
E1E0
E1C0
E1C0
E1C0
E1C0
E1C0
E1C0
E1C0
E1C0
E1C0
E1C0
E1C0
F1C0
7BC0
7F80
3F00
ENDCHAR
STARTCHAR 01B0
ENCODING 432
SWIDTH 468 0
DWIDTH 13 0
BBX 13 16 1 0
BITMAP
0030
0038
0070
E3F0
E3E0
E3C0
E3C0
E3C0
E3C0
E3C0
E3C0
E3C0
F3C0
7BC0
7FC0
3FC0
ENDCHAR
STARTCHAR 01B1
ENCODING 433
SWIDTH 468 0
DWIDTH 13 0
BBX 14 17 0 0
BITMAP
FCFC
FCFC
FCFC
3870
7870
7038
7038
F038
F038
F038
F038
F038
7078
7878
3FF0
3FF0
0FC0
ENDCHAR
STARTCHAR 01B2
ENCODING 434
SWIDTH 468 0
DWIDTH 13 0
BBX 12 17 1 0
BITMAP
F7C0
F7E0
F7E0
F0F0
F0F0
F070
F070
F070
F070
F070
F070
F0F0
F0F0
F0E0
7FE0
7FC0
3F80
ENDCHAR
STARTCHAR 01B3
ENCODING 435
SWIDTH 468 0
DWIDTH 13 0
BBX 13 17 1 0
BITMAP
E078
E0F8
F1F0
71C0
71C0
7B80
3B80
3F00
1F00
1F00
0E00
0E00
0E00
0E00
0E00
0E00
0E00
ENDCHAR
STARTCHAR 01B4
ENCODING 436
SWIDTH 468 0
DWIDTH 13 0
BBX 13 18 1 -5
BITMAP
E0F8
F0F8
F1F8
71C0
71C0
79C0
3B80
3B80
3F80
1F80
1F00
0F00
0F00
0E00
9E00
FC00
F800
E000
ENDCHAR
STARTCHAR 01B5
ENCODING 437
SWIDTH 468 0
DWIDTH 13 0
BBX 12 17 1 0
BITMAP
7FE0
7FE0
7FE0
01C0
03C0
0380
0780
7FE0
7FE0
7FE0
1C00
3C00
3800
7800
7FF0
FFF0
FFF0
ENDCHAR
STARTCHAR 01B6
ENCODING 438
SWIDTH 468 0
DWIDTH 13 0
BBX 10 13 2 0
BITMAP
FFC0
FFC0
FFC0
0780
0F00
FFC0
FFC0
FFC0
7800
7000
FFC0
FFC0
FFC0
ENDCHAR
STARTCHAR 01B7
ENCODING 439
SWIDTH 468 0
DWIDTH 13 0
BBX 12 17 1 0
BITMAP
FFF0
FFF0
FFE0
01E0
03C0
0780
0F00
0F80
0FE0
03F0
00F0
0070
0070
00F0
FFF0
FFE0
7FC0
ENDCHAR
STARTCHAR 01B8
ENCODING 440
SWIDTH 468 0
DWIDTH 13 0
BBX 13 17 1 0
BITMAP
7FF0
7FF0
7FF0
3800
1C00
0E00
0F00
1F80
7F80
7800
F000
F000
F000
F010
7FF0
7FF8
1FF0
ENDCHAR
STARTCHAR 01B9
ENCODING 441
SWIDTH 468 0
DWIDTH 13 0
BBX 11 18 2 -5
BITMAP
FFC0
FFC0
FFC0
7800
3C00
1C00
1E00
1F00
7F00
F800
E000
E000
E000
E000
F9E0
FFE0
3FE0
0F00
ENDCHAR
STARTCHAR 01BA
ENCODING 442
SWIDTH 468 0
DWIDTH 13 0
BBX 11 18 1 -5
BITMAP
7FE0
7FE0
7FE0
03C0
0780
0F00
1F80
1FE0
01E0
00E0
00E0
03E0
3FC0
7F80
F800
E000
E000
4000
ENDCHAR
STARTCHAR 01BB
ENCODING 443
SWIDTH 468 0
DWIDTH 13 0
BBX 12 18 1 0
BITMAP
0400
7FC0
FFC0
F3E0
41E0
00E0
01E0
01E0
03C0
7FF0
7FF0
1E00
3C00
7800
7000
FFF0
FFF0
FFF0
ENDCHAR
STARTCHAR 01BC
ENCODING 444
SWIDTH 468 0
DWIDTH 13 0
BBX 12 17 1 0
BITMAP
FFF0
FFF0
FFF0
3800
3800
3800
3E00
3FC0
3FE0
01E0
00F0
0070
0070
00F0
7FE0
7FE0
7F80
ENDCHAR
STARTCHAR 01BD
ENCODING 445
SWIDTH 468 0
DWIDTH 13 0
BBX 12 13 1 0
BITMAP
FFE0
FFE0
FFE0
3800
3000
3FC0
7FE0
01E0
00F0
00F0
7FE0
7FE0
7FC0
ENDCHAR
STARTCHAR 01BE
ENCODING 446
SWIDTH 468 0
DWIDTH 13 0
BBX 12 17 1 0
BITMAP
0C00
1C00
1C00
1C00
FFE0
FFE0
FFE0
1C00
1E00
1F00
0FE0
07F0
00F0
0070
3FF0
7FE0
3FC0
ENDCHAR
STARTCHAR 01BF
ENCODING 447
SWIDTH 468 0
DWIDTH 13 0
BBX 11 18 2 -5
BITMAP
FF00
FFC0
FFC0
E1E0
E1E0
E1E0
E1E0
E1E0
E1C0
E3C0
EF80
FF00
FE00
F800
E000
E000
E000
E000
ENDCHAR
STARTCHAR 01C0
ENCODING 448
SWIDTH 468 0
DWIDTH 13 0
BBX 4 24 5 -5
BITMAP
F0
F0
F0
F0
F0
F0
F0
F0
F0
F0
F0
F0
F0
F0
F0
F0
F0
F0
F0
F0
F0
F0
F0
F0
ENDCHAR
STARTCHAR 01C1
ENCODING 449
SWIDTH 468 0
DWIDTH 13 0
BBX 8 24 3 -5
BITMAP
E7
E7
E7
E7
E7
E7
E7
E7
E7
E7
E7
E7
E7
E7
E7
E7
E7
E7
E7
E7
E7
E7
E7
E7
ENDCHAR
STARTCHAR 01C2
ENCODING 450
SWIDTH 468 0
DWIDTH 13 0
BBX 12 24 1 -5
BITMAP
0F00
0F00
0F00
0F00
0F00
0F00
0F00
0F00
FFF0
FFF0
0F00
0F00
0F00
FFF0
FFF0
0F00
0F00
0F00
0F00
0F00
0F00
0F00
0F00
0F00
ENDCHAR
STARTCHAR 01C3
ENCODING 451
SWIDTH 468 0
DWIDTH 13 0
BBX 4 17 5 0
BITMAP
F0
F0
F0
F0
F0
F0
F0
F0
F0
F0
60
00
00
F0
F0
F0
F0
ENDCHAR
STARTCHAR 01C4
ENCODING 452
SWIDTH 468 0
DWIDTH 13 0
BBX 14 23 0 0
BITMAP
0004
00CC
007C
0030
0000
0000
FCFC
FEFC
EE18
E618
E718
E738
E730
E730
E730
E770
E760
E760
E760
E6E0
FEFC
FCFC
F8FC
ENDCHAR
STARTCHAR 01C5
ENCODING 453
SWIDTH 468 0
DWIDTH 13 0
BBX 14 19 0 0
BITMAP
0004
00CC
FC78
FE30
EE00
E600
E7FC
E7FC
E7FC
E718
E738
E730
E730
E770
E760
E660
FEFC
FCFC
F8FC
ENDCHAR
STARTCHAR 01C6
ENCODING 454
SWIDTH 468 0
DWIDTH 13 0
BBX 14 19 0 0
BITMAP
0604
06CC
0678
0630
0600
0600
3EFC
7EFC
76FC
E618
E638
E630
E630
E670
E660
6660
66FC
7EFC
3EFC
ENDCHAR
STARTCHAR 01C7
ENCODING 455
SWIDTH 468 0
DWIDTH 13 0
BBX 13 17 0 0
BITMAP
E018
E018
E018
E018
E018
E018
E018
E018
E018
E018
E018
E018
E018
E018
E038
FEF8
FEF0
ENDCHAR
STARTCHAR 01C8
ENCODING 456
SWIDTH 468 0
DWIDTH 13 0
BBX 12 23 1 -5
BITMAP
0070
E070
E070
E000
E000
E070
E070
E070
E070
E070
E070
E070
E070
E070
E070
E070
FE70
FE70
0070
0070
03E0
03E0
0380
ENDCHAR
STARTCHAR 01C9
ENCODING 457
SWIDTH 468 0
DWIDTH 13 0
BBX 11 24 2 -5
BITMAP
C000
C1E0
C1E0
C1E0
C000
C000
C0C0
C0C0
C0C0
C0C0
C0C0
C0C0
C0C0
C0C0
C0C0
C0C0
E0C0
F8C0
78C0
00C0
01C0
0FC0
0F80
0700
ENDCHAR
STARTCHAR 01CA
ENCODING 458
SWIDTH 468 0
DWIDTH 13 0
BBX 13 17 0 0
BITMAP
E718
E718
E718
F718
F718
F718
F718
FF18
FF18
EF18
EF18
EF18
EF18
E718
E738
E778
E770
ENDCHAR
STARTCHAR 01CB
ENCODING 459
SWIDTH 468 0
DWIDTH 13 0
BBX 13 23 0 -5
BITMAP
0078
E778
E778
E700
F700
F730
F730
F730
FF30
FF30
EF30
EF30
EF30
EF30
E730
E730
E730
E730
0030
0070
03F0
03E0
01C0
ENDCHAR
STARTCHAR 01CC
ENCODING 460
SWIDTH 468 0
DWIDTH 13 0
BBX 13 23 0 -5
BITMAP
0038
0038
0038
0000
0000
FE38
FF38
E338
E338
E3B8
E3B8
E3B8
E3B8
E3B8
E3B8
E3B8
E3B8
E3B8
0038
0038
01F0
01F0
01C0
ENDCHAR
STARTCHAR 01CD
ENCODING 461
SWIDTH 468 0
DWIDTH 13 0
BBX 14 23 0 0
BITMAP
0840
1DE0
0FC0
0780
0200
0000
0780
0780
0FC0
0FC0
0FC0
1CE0
1CE0
1CE0
3CE0
38F0
3FF0
3FF0
7FF8
7078
7078
7038
F03C
ENDCHAR
STARTCHAR 01CE
ENCODING 462
SWIDTH 468 0
DWIDTH 13 0
BBX 11 19 1 0
BITMAP
1180
3FC0
1F80
0E00
0000
0000
7F80
3FC0
3FE0
00E0
00E0
1FE0
7FE0
F8E0
F0E0
F0E0
FCE0
7FE0
3FE0
ENDCHAR
STARTCHAR 01CF
ENCODING 463
SWIDTH 468 0
DWIDTH 13 0
BBX 11 23 1 0
BITMAP
1080
3BC0
1F80
0F00
0400
0000
FFE0
FFE0
FFE0
0F00
0F00
0F00
0F00
0F00
0F00
0F00
0F00
0F00
0F00
0F00
FFE0
FFE0
FFE0
ENDCHAR
STARTCHAR 01D0
ENCODING 464
SWIDTH 468 0
DWIDTH 13 0
BBX 12 19 1 0
BITMAP
3180
3B80
1F00
0E00
0400
0000
FE00
FE00
FE00
0E00
0E00
0E00
0E00
0E00
0E00
0E00
0FF0
0FF0
07F0
ENDCHAR
STARTCHAR 01D1
ENCODING 465
SWIDTH 468 0
DWIDTH 13 0
BBX 12 23 1 0
BITMAP
1080
3BC0
1F80
0F00
0400
0600
1F80
3FC0
7FE0
F0E0
F0F0
E0F0
E070
E070
E070
E070
E070
E0F0
F0F0
F0E0
7FE0
3FC0
1F80
ENDCHAR
STARTCHAR 01D2
ENCODING 466
SWIDTH 468 0
DWIDTH 13 0
BBX 12 19 1 0
BITMAP
1180
3FC0
1F80
0E00
0000
0000
1F80
3FC0
7FE0
F0F0
F0F0
E070
E070
E070
F0F0
F0F0
7FE0
3FC0
1F80
ENDCHAR
STARTCHAR 01D3
ENCODING 467
SWIDTH 468 0
DWIDTH 13 0
BBX 12 23 1 0
BITMAP
1080
3BC0
1F80
0F00
0400
0000
F0F0
F0F0
F0F0
F0F0
F0F0
F0F0
F0F0
F0F0
F0F0
F0F0
F0F0
F0F0
F0F0
F0F0
7FE0
7FE0
3FC0
ENDCHAR
STARTCHAR 01D4
ENCODING 468
SWIDTH 468 0
DWIDTH 13 0
BBX 10 19 2 0
BITMAP
2300
7F80
3F00
1C00
0000
0000
E1C0
E1C0
E1C0
E1C0
E1C0
E1C0
E1C0
E1C0
E1C0
F1C0
FFC0
7FC0
3FC0
ENDCHAR
STARTCHAR 01D5
ENCODING 469
SWIDTH 468 0
DWIDTH 13 0
BBX 12 23 1 0
BITMAP
1F80
1F80
0000
39C0
39C0
1080
0000
F0F0
F0F0
F0F0
F0F0
F0F0
F0F0
F0F0
F0F0
F0F0
F0F0
F0F0
F0F0
F0F0
7FE0
7FE0
3FC0
ENDCHAR
STARTCHAR 01D6
ENCODING 470
SWIDTH 468 0
DWIDTH 13 0
BBX 10 20 2 0
BITMAP
3F00
3F00
2100
7380
7380
0000
0000
E1C0
E1C0
E1C0
E1C0
E1C0
E1C0
E1C0
E1C0
E1C0
F1C0
FFC0
7FC0
3FC0
ENDCHAR
STARTCHAR 01D7
ENCODING 471
SWIDTH 468 0
DWIDTH 13 0
BBX 12 23 1 0
BITMAP
0200
0700
36C0
74E0
70C0
0000
F0F0
F0F0
F0F0
F0F0
F0F0
F0F0
F0F0
F0F0
F0F0
F0F0
F0F0
F0F0
F0F0
F0F0
7FE0
7FE0
3FC0
ENDCHAR
STARTCHAR 01D8
ENCODING 472
SWIDTH 468 0
DWIDTH 13 0
BBX 10 22 2 0
BITMAP
0200
0700
0700
0E00
4C80
E1C0
E1C0
0000
0000
E1C0
E1C0
E1C0
E1C0
E1C0
E1C0
E1C0
E1C0
E1C0
F1C0
FFC0
7FC0
3FC0
ENDCHAR
STARTCHAR 01D9
ENCODING 473
SWIDTH 468 0
DWIDTH 13 0
BBX 12 23 1 0
BITMAP
0B00
0F00
36C0
70E0
70C0
0000
F0F0
F0F0
F0F0
F0F0
F0F0
F0F0
F0F0
F0F0
F0F0
F0F0
F0F0
F0F0
F0F0
F0F0
7FE0
7FE0
3FC0
ENDCHAR
STARTCHAR 01DA
ENCODING 474
SWIDTH 468 0
DWIDTH 13 0
BBX 10 21 2 0
BITMAP
3300
3F00
1E00
4C80
E1C0
E1C0
0000
0000
E1C0
E1C0
E1C0
E1C0
E1C0
E1C0
E1C0
E1C0
E1C0
F1C0
FFC0
7FC0
3FC0
ENDCHAR
STARTCHAR 01DB
ENCODING 475
SWIDTH 468 0
DWIDTH 13 0
BBX 12 23 1 0
BITMAP
0400
0E00
36C0
70E0
70C0
0000
F0F0
F0F0
F0F0
F0F0
F0F0
F0F0
F0F0
F0F0
F0F0
F0F0
F0F0
F0F0
F0F0
F0F0
7FE0
7FE0
3FC0
ENDCHAR
STARTCHAR 01DC
ENCODING 476
SWIDTH 468 0
DWIDTH 13 0
BBX 10 22 2 0
BITMAP
1000
3000
3800
1C00
4C80
E1C0
E1C0
0000
0000
E1C0
E1C0
E1C0
E1C0
E1C0
E1C0
E1C0
E1C0
E1C0
F1C0
FFC0
7FC0
3FC0
ENDCHAR
STARTCHAR 01DD
ENCODING 477
SWIDTH 468 0
DWIDTH 13 0
BBX 12 13 1 0
BITMAP
7F80
7FC0
7FE0
00E0
00F0
FFF0
FFF0
FFF0
E0F0
F0E0
7FE0
7FC0
3F80
ENDCHAR
STARTCHAR 01DE
ENCODING 478
SWIDTH 468 0
DWIDTH 13 0
BBX 14 23 0 0
BITMAP
0FC0
0FC0
0000
1CE0
1CE0
0840
0000
0780
0780
0FC0
0FC0
0FC0
1CE0
1CE0
1CE0
38F0
3870
3FF0
7FF0
7FF8
7078
7038
F03C
ENDCHAR
STARTCHAR 01DF
ENCODING 479
SWIDTH 468 0
DWIDTH 13 0
BBX 11 20 1 0
BITMAP
1F80
1F80
1080
39C0
39C0
0000
0000
7F80
3FC0
3FE0
00E0
00E0
1FE0
7FE0
F8E0
F0E0
F0E0
FCE0
7FE0
3FE0
ENDCHAR
STARTCHAR 01E0
ENCODING 480
SWIDTH 468 0
DWIDTH 13 0
BBX 14 23 0 0
BITMAP
0FC0
0FC0
0000
0700
0780
0300
0000
0780
0780
0FC0
0FC0
0FC0
1CE0
1CE0
1CE0
38F0
3870
3FF0
7FF0
7FF8
7078
7038
F03C
ENDCHAR
STARTCHAR 01E1
ENCODING 481
SWIDTH 468 0
DWIDTH 13 0
BBX 11 20 1 0
BITMAP
1F80
1F80
0400
0E00
0E00
0000
0000
7F80
3FC0
3FE0
00E0
00E0
1FE0
7FE0
F8E0
F0E0
F0E0
FCE0
7FE0
3FE0
ENDCHAR
STARTCHAR 01E2
ENCODING 482
SWIDTH 468 0
DWIDTH 13 0
BBX 14 22 0 0
BITMAP
07F8
07F8
07F8
0000
0000
07F8
07F8
0FF8
0FC0
0FC0
1DC0
1DF8
1DF8
1DF8
39C0
3FC0
3FC0
7FC0
71C0
71FC
71FC
F1FC
ENDCHAR
STARTCHAR 01E3
ENCODING 483
SWIDTH 468 0
DWIDTH 13 0
BBX 13 18 1 0
BITMAP
3FC0
3FC0
0000
0000
0000
7DE0
7FF0
4F70
0730
0730
7FF8
FFF8
E7F8
C700
C700
FFF0
FFF0
7DF0
ENDCHAR
STARTCHAR 01E4
ENCODING 484
SWIDTH 468 0
DWIDTH 13 0
BBX 12 18 1 0
BITMAP
0300
1FE0
3FE0
7EE0
7800
F000
F000
E000
E0E0
E0E0
E3F0
E3F0
F3F0
F0E0
78E0
7FE0
3FE0
1FE0
ENDCHAR
STARTCHAR 01E5
ENCODING 485
SWIDTH 468 0
DWIDTH 13 0
BBX 12 18 1 -5
BITMAP
1FE0
7FE0
7DE0
F1E0
F1E0
E7F0
E7F0
F1E0
F1E0
7FE0
7FE0
3FE0
01E0
01C0
43C0
FFC0
FF80
3C00
ENDCHAR
STARTCHAR 01E6
ENCODING 486
SWIDTH 468 0
DWIDTH 13 0
BBX 12 23 1 0
BITMAP
0840
1DE0
0FC0
0780
0200
0380
1FF0
3FF0
7EE0
7800
F000
F000
E000
E000
E0F0
E0F0
E0F0
F0F0
F0F0
78F0
7FF0
3FF0
1FF0
ENDCHAR
STARTCHAR 01E7
ENCODING 487
SWIDTH 468 0
DWIDTH 13 0
BBX 11 24 1 -5
BITMAP
1880
3FC0
0F80
0700
0200
0000
1FE0
7FE0
7DE0
F0E0
F0E0
E0E0
E0E0
F0E0
F0E0
7FE0
7FE0
3FE0
00E0
01E0
43E0
FFC0
FF80
1C00
ENDCHAR
STARTCHAR 01E8
ENCODING 488
SWIDTH 468 0
DWIDTH 13 0
BBX 12 23 1 0
BITMAP
1080
3BC0
1F80
0F00
0400
0000
F0F0
F1E0
F1E0
F3C0
F780
F700
FF00
FE00
FE00
FF00
F780
F3C0
F3C0
F1E0
F0F0
F0F0
F070
ENDCHAR
STARTCHAR 01E9
ENCODING 489
SWIDTH 468 0
DWIDTH 13 0
BBX 11 23 2 0
BITMAP
C400
FE00
7800
3000
0000
0000
E000
E000
E000
E000
E1E0
E3C0
E780
EF00
EE00
FC00
FE00
EF00
E700
E780
E3C0
E1E0
E1E0
ENDCHAR
STARTCHAR 01EA
ENCODING 490
SWIDTH 468 0
DWIDTH 13 0
BBX 12 23 1 -5
BITMAP
0600
1F80
3FC0
7FE0
F0E0
F0F0
E0F0
E070
E070
E070
E070
E070
E0F0
F0F0
70E0
7FE0
3FC0
1F80
0700
0E00
0C00
0F80
0700
ENDCHAR
STARTCHAR 01EB
ENCODING 491
SWIDTH 468 0
DWIDTH 13 0
BBX 12 18 1 -5
BITMAP
1F80
3FC0
7FE0
F0F0
F0F0
E070
E070
E070
F0F0
F0F0
7FE0
3FC0
1F80
0700
0E00
0E00
0F80
0700
ENDCHAR
STARTCHAR 01EC
ENCODING 492
SWIDTH 468 0
DWIDTH 13 0
BBX 12 27 1 -5
BITMAP
3FC0
3FC0
3FC0
0000
0600
1F80
3FC0
7FE0
F0E0
F0F0
E0F0
E070
E070
E070
E070
E070
E0F0
F0F0
70E0
7FE0
3FC0
1F80
0700
0E00
0C00
0F80
0700
ENDCHAR
STARTCHAR 01ED
ENCODING 493
SWIDTH 468 0
DWIDTH 13 0
BBX 12 23 1 -5
BITMAP
3FC0
3FC0
0000
0000
0000
1F80
3FC0
7FE0
F0F0
F0F0
E070
E070
E070
F0F0
F0F0
7FE0
3FC0
1F80
0700
0E00
0E00
0F80
0700
ENDCHAR
STARTCHAR 01EE
ENCODING 494
SWIDTH 468 0
DWIDTH 13 0
BBX 12 23 1 0
BITMAP
1080
3BC0
1F80
0F00
0400
0000
FFF0
FFF0
FFE0
01E0
03C0
0780
0F00
0F80
0FE0
03F0
00F0
0070
0070
00F0
FFF0
FFE0
7FC0
ENDCHAR
STARTCHAR 01EF
ENCODING 495
SWIDTH 468 0
DWIDTH 13 0
BBX 11 24 1 -5
BITMAP
1180
3FC0
1F80
0E00
0000
0000
FFE0
FFE0
FFE0
03C0
0380
0700
0E00
1F00
1FC0
03E0
01E0
00E0
00E0
01E0
E3E0
FFC0
FF80
1800
ENDCHAR
STARTCHAR 01F0
ENCODING 496
SWIDTH 468 0
DWIDTH 13 0
BBX 10 24 1 -5
BITMAP
1180
3FC0
1F80
0E00
0000
0000
7FC0
7FC0
7FC0
01C0
01C0
01C0
01C0
01C0
01C0
01C0
01C0
01C0
01C0
01C0
73C0
7F80
FF80
1E00
ENDCHAR
STARTCHAR 01F1
ENCODING 497
SWIDTH 468 0
DWIDTH 13 0
BBX 14 17 0 0
BITMAP
FCFC
FEFC
EE18
E618
E718
E738
E730
E730
E730
E770
E760
E760
E760
E6E0
FEFC
FCFC
F8FC
ENDCHAR
STARTCHAR 01F2
ENCODING 498
SWIDTH 468 0
DWIDTH 13 0
BBX 14 17 0 0
BITMAP
FC00
FE00
EE00
E600
E7FC
E7FC
E7FC
E718
E738
E730
E730
E770
E760
E660
FEFC
FCFC
F8FC
ENDCHAR
STARTCHAR 01F3
ENCODING 499
SWIDTH 468 0
DWIDTH 13 0
BBX 14 19 0 0
BITMAP
0600
0600
0600
0600
0600
0600
3EFC
7EFC
76FC
E618
E638
E630
E630
E670
E660
6660
66FC
7EFC
3EFC
ENDCHAR
STARTCHAR 01F4
ENCODING 500
SWIDTH 468 0
DWIDTH 13 0
BBX 12 23 1 0
BITMAP
0100
0380
0FC0
0F00
0C00
0380
1FF0
3FF0
7EE0
7800
F000
F000
E000
E000
E0F0
E0F0
E0F0
F0F0
F0F0
78F0
7FF0
3FF0
1FF0
ENDCHAR
STARTCHAR 01F5
ENCODING 501
SWIDTH 468 0
DWIDTH 13 0
BBX 11 24 1 -5
BITMAP
0100
0780
0F80
0E00
0800
0000
1FE0
7FE0
7DE0
F0E0
F0E0
E0E0
E0E0
F0E0
F0E0
7FE0
7FE0
3FE0
00E0
01E0
43E0
FFC0
FF80
1C00
ENDCHAR
STARTCHAR 01F6
ENCODING 502
SWIDTH 468 0
DWIDTH 13 0
BBX 12 17 1 0
BITMAP
E600
E600
E600
E600
E630
E630
E630
FE30
FE30
E630
E630
E630
E630
E730
E770
E7F0
E3E0
ENDCHAR
STARTCHAR 01F7
ENCODING 503
SWIDTH 468 0
DWIDTH 13 0
BBX 12 22 1 -5
BITMAP
7FC0
FFE0
FFE0
F0F0
F0F0
F070
F070
F070
F0F0
F0F0
F0E0
F1E0
F3C0
FF80
FF00
FE00
F800
F000
F000
F000
F000
F000
ENDCHAR
STARTCHAR 01F8
ENCODING 504
SWIDTH 468 0
DWIDTH 13 0
BBX 12 23 1 0
BITMAP
0800
1E00
1F00
0780
0100
0000
E070
F070
F870
F870
FC70
FC70
EE70
EE70
E770
E770
E3F0
E3F0
E1F0
E1F0
E0F0
E0F0
E070
ENDCHAR
STARTCHAR 01F9
ENCODING 505
SWIDTH 468 0
DWIDTH 13 0
BBX 10 19 2 0
BITMAP
3000
3800
7E00
1E00
0000
0000
FF00
FF80
FFC0
E3C0
E1C0
E1C0
E1C0
E1C0
E1C0
E1C0
E1C0
E1C0
E1C0
ENDCHAR
STARTCHAR 01FA
ENCODING 506
SWIDTH 468 0
DWIDTH 13 0
BBX 14 23 0 0
BITMAP
0180
0380
0600
0000
0780
0C80
0C80
0780
0780
0FC0
0FC0
0DC0
1CE0
1CE0
1CE0
38F0
3FF0
3FF0
3FF0
7878
7078
7038
F03C
ENDCHAR
STARTCHAR 01FB
ENCODING 507
SWIDTH 468 0
DWIDTH 13 0
BBX 11 23 1 0
BITMAP
0300
0700
0C00
0000
0F00
0900
1900
0F00
0600
0000
7F80
3FC0
3FE0
00E0
00E0
1FE0
7FE0
F8E0
F0E0
F0E0
FCE0
7FE0
3FE0
ENDCHAR
STARTCHAR 01FC
ENCODING 508
SWIDTH 468 0
DWIDTH 13 0
BBX 14 23 0 0
BITMAP
0020
00F0
01F0
03C0
0100
0000
07F8
07F8
0FF8
0FC0
0FC0
1DC0
1DF8
1DF8
1DF8
39C0
3FC0
3FC0
7FC0
71C0
71FC
71FC
F1FC
ENDCHAR
STARTCHAR 01FD
ENCODING 509
SWIDTH 468 0
DWIDTH 13 0
BBX 13 19 1 0
BITMAP
0180
0380
0FC0
0F00
0400
0000
7DE0
7FF0
4F70
0730
0730
7FF8
FFF8
E7F8
C700
C700
FFF0
FFF0
7DF0
ENDCHAR
STARTCHAR 01FE
ENCODING 510
SWIDTH 468 0
DWIDTH 13 0
BBX 12 24 1 -1
BITMAP
0100
0780
0F80
0E00
0800
0660
1FE0
3FE0
7FE0
F1E0
F3F0
E3F0
E770
E770
EE70
EE70
FC70
FCF0
F8F0
F8E0
7FE0
7FC0
7F80
6000
ENDCHAR
STARTCHAR 01FF
ENCODING 511
SWIDTH 468 0
DWIDTH 13 0
BBX 12 20 1 -1
BITMAP
0100
0780
0F80
0E00
0800
0020
1FF0
3FE0
7FE0
F1F0
F3F0
E770
E670
EE70
FCF0
F8F0
7FE0
7FC0
FF80
4000
ENDCHAR
STARTCHAR 0200
ENCODING 512
SWIDTH 468 0
DWIDTH 13 0
BBX 14 23 0 0
BITMAP
1080
39C0
3DC0
1CE0
0440
0000
0780
0780
0FC0
0FC0
0FC0
1CE0
1CE0
1CE0
3CE0
38F0
3FF0
3FF0
7FF8
7078
7078
7038
F03C
ENDCHAR
STARTCHAR 0201
ENCODING 513
SWIDTH 468 0
DWIDTH 13 0
BBX 11 19 1 0
BITMAP
2100
7380
39C0
1CE0
0800
0000
7F80
3FC0
3FE0
00E0
00E0
1FE0
7FE0
F8E0
F0E0
F0E0
FCE0
7FE0
3FE0
ENDCHAR
STARTCHAR 0202
ENCODING 514
SWIDTH 468 0
DWIDTH 13 0
BBX 14 23 0 0
BITMAP
0300
0FC0
1FE0
1CE0
18E0
0000
0780
0780
0FC0
0FC0
0FC0
1CE0
1CE0
1CE0
3CE0
38F0
3FF0
3FF0
7FF8
7078
7078
7038
F03C
ENDCHAR
STARTCHAR 0203
ENCODING 515
SWIDTH 468 0
DWIDTH 13 0
BBX 11 19 1 0
BITMAP
0F00
1F80
3FC0
39C0
0000
0000
7F80
3FC0
3FE0
00E0
00E0
1FE0
7FE0
F8E0
F0E0
F0E0
FCE0
7FE0
3FE0
ENDCHAR
STARTCHAR 0204
ENCODING 516
SWIDTH 468 0
DWIDTH 13 0
BBX 11 23 2 0
BITMAP
4200
E700
F700
7380
1100
0000
FFC0
FFC0
FFC0
E000
E000
E000
FF80
FF80
FF80
E000
E000
E000
E000
E000
FFE0
FFE0
FFE0
ENDCHAR
STARTCHAR 0205
ENCODING 517
SWIDTH 468 0
DWIDTH 13 0
BBX 12 19 1 0
BITMAP
2100
7380
39C0
1CE0
0800
0000
1F80
3FE0
7FE0
F0F0
F070
FFF0
FFF0
FFF0
F000
F000
7FE0
3FE0
1FE0
ENDCHAR
STARTCHAR 0206
ENCODING 518
SWIDTH 468 0
DWIDTH 13 0
BBX 11 23 2 0
BITMAP
0400
3F00
3F80
7380
7180
0000
FFC0
FFC0
FFC0
E000
E000
E000
FF80
FF80
FF80
E000
E000
E000
E000
E000
FFE0
FFE0
FFE0
ENDCHAR
STARTCHAR 0207
ENCODING 519
SWIDTH 468 0
DWIDTH 13 0
BBX 12 19 1 0
BITMAP
0F00
1F80
3FC0
39C0
0000
0000
1F80
3FE0
7FE0
F0F0
F070
FFF0
FFF0
FFF0
F000
F000
7FE0
3FE0
1FE0
ENDCHAR
STARTCHAR 0208
ENCODING 520
SWIDTH 468 0
DWIDTH 13 0
BBX 11 23 1 0
BITMAP
2100
7380
7B80
39C0
0880
0000
FFE0
FFE0
FFE0
0F00
0F00
0F00
0F00
0F00
0F00
0F00
0F00
0F00
0F00
0F00
FFE0
FFE0
FFE0
ENDCHAR
STARTCHAR 0209
ENCODING 521
SWIDTH 468 0
DWIDTH 13 0
BBX 12 19 1 0
BITMAP
6200
E700
7380
39C0
1080
0000
FE00
FE00
FE00
0E00
0E00
0E00
0E00
0E00
0E00
0E00
0FF0
0FF0
07F0
ENDCHAR
STARTCHAR 020A
ENCODING 522
SWIDTH 468 0
DWIDTH 13 0
BBX 11 23 1 0
BITMAP
0600
1F80
3FC0
39C0
31C0
0000
FFE0
FFE0
FFE0
0F00
0F00
0F00
0F00
0F00
0F00
0F00
0F00
0F00
0F00
0F00
FFE0
FFE0
FFE0
ENDCHAR
STARTCHAR 020B
ENCODING 523
SWIDTH 468 0
DWIDTH 13 0
BBX 12 19 1 0
BITMAP
1C00
3F00
7F80
7380
0000
0000
FE00
FE00
FE00
0E00
0E00
0E00
0E00
0E00
0E00
0E00
0FF0
0FF0
07F0
ENDCHAR
STARTCHAR 020C
ENCODING 524
SWIDTH 468 0
DWIDTH 13 0
BBX 12 23 1 0
BITMAP
2100
7380
7B80
19C0
0880
0600
1F80
3FC0
7FE0
F0E0
F0F0
E0F0
E070
E070
E070
E070
E070
E0F0
F0F0
F0E0
7FE0
3FC0
1F80
ENDCHAR
STARTCHAR 020D
ENCODING 525
SWIDTH 468 0
DWIDTH 13 0
BBX 12 19 1 0
BITMAP
2100
7380
3B80
1DC0
0000
0000
1F80
3FC0
7FE0
F0F0
F0F0
E070
E070
E070
F0F0
F0F0
7FE0
3FC0
1F80
ENDCHAR
STARTCHAR 020E
ENCODING 526
SWIDTH 468 0
DWIDTH 13 0
BBX 12 23 1 0
BITMAP
0600
1F80
3FC0
39C0
31C0
0600
1F80
3FC0
7FE0
F0E0
F0F0
E0F0
E070
E070
E070
E070
E070
E0F0
F0F0
F0E0
7FE0
3FC0
1F80
ENDCHAR
STARTCHAR 020F
ENCODING 527
SWIDTH 468 0
DWIDTH 13 0
BBX 12 19 1 0
BITMAP
0F00
1F80
3FC0
39C0
0000
0000
1F80
3FC0
7FE0
F0F0
F0F0
E070
E070
E070
F0F0
F0F0
7FE0
3FC0
1F80
ENDCHAR
STARTCHAR 0210
ENCODING 528
SWIDTH 468 0
DWIDTH 13 0
BBX 12 23 1 0
BITMAP
2200
6700
7380
39C0
1080
0000
FF80
FFC0
FFE0
F1E0
F0E0
F0E0
F0E0
F1E0
FFE0
FF80
FF80
F3C0
F1C0
F1E0
F0E0
F0F0
F070
ENDCHAR
STARTCHAR 0211
ENCODING 529
SWIDTH 468 0
DWIDTH 13 0
BBX 11 19 2 0
BITMAP
6200
E700
7380
39C0
1080
0000
7FE0
FFE0
FFC0
F000
F000
F000
F000
F000
F000
F000
F000
F000
F000
ENDCHAR
STARTCHAR 0212
ENCODING 530
SWIDTH 468 0
DWIDTH 13 0
BBX 12 23 1 0
BITMAP
0E00
1F00
3F80
7180
71C0
0000
FF80
FFC0
FFE0
F1E0
F0E0
F0E0
F0E0
F1E0
FFE0
FF80
FF80
F3C0
F1C0
F1E0
F0E0
F0F0
F070
ENDCHAR
STARTCHAR 0213
ENCODING 531
SWIDTH 468 0
DWIDTH 13 0
BBX 11 19 2 0
BITMAP
0E00
1F80
3F80
31C0
0000
0000
7FE0
FFE0
FFC0
F000
F000
F000
F000
F000
F000
F000
F000
F000
F000
ENDCHAR
STARTCHAR 0214
ENCODING 532
SWIDTH 468 0
DWIDTH 13 0
BBX 12 23 1 0
BITMAP
2100
7380
7B80
19C0
0880
0000
F0F0
F0F0
F0F0
F0F0
F0F0
F0F0
F0F0
F0F0
F0F0
F0F0
F0F0
F0F0
F0F0
F0F0
7FE0
7FE0
3FC0
ENDCHAR
STARTCHAR 0215
ENCODING 533
SWIDTH 468 0
DWIDTH 13 0
BBX 10 19 2 0
BITMAP
4200
E700
7700
3B80
0000
0000
E1C0
E1C0
E1C0
E1C0
E1C0
E1C0
E1C0
E1C0
E1C0
F1C0
FFC0
7FC0
3FC0
ENDCHAR
STARTCHAR 0216
ENCODING 534
SWIDTH 468 0
DWIDTH 13 0
BBX 12 23 1 0
BITMAP
0600
1F80
3FC0
39C0
31C0
0000
F0F0
F0F0
F0F0
F0F0
F0F0
F0F0
F0F0
F0F0
F0F0
F0F0
F0F0
F0F0
F0F0
F0F0
7FE0
7FE0
3FC0
ENDCHAR
STARTCHAR 0217
ENCODING 535
SWIDTH 468 0
DWIDTH 13 0
BBX 10 19 2 0
BITMAP
1E00
3F00
7F80
7380
0000
0000
E1C0
E1C0
E1C0
E1C0
E1C0
E1C0
E1C0
E1C0
E1C0
F1C0
FFC0
7FC0
3FC0
ENDCHAR
STARTCHAR 0218
ENCODING 536
SWIDTH 468 0
DWIDTH 13 0
BBX 12 23 1 -5
BITMAP
0200
3FE0
7FE0
7CC0
F000
F000
F000
7C00
7F80
1FC0
07E0
01F0
00F0
00F0
40F0
7FE0
FFE0
7FC0
0000
0600
0E00
1E00
1C00
ENDCHAR
STARTCHAR 0219
ENCODING 537
SWIDTH 468 0
DWIDTH 13 0
BBX 10 18 2 -5
BITMAP
3FC0
FFC0
FB80
E000
F000
FE00
7F80
1FC0
03C0
01C0
FFC0
FFC0
FF00
0000
0C00
1C00
3C00
3800
ENDCHAR
STARTCHAR 021A
ENCODING 538
SWIDTH 468 0
DWIDTH 13 0
BBX 12 22 1 -5
BITMAP
FFF0
FFF0
FFF0
0F00
0F00
0F00
0F00
0F00
0F00
0F00
0F00
0F00
0F00
0F00
0F00
0F00
0F00
0000
0700
0F00
1E00
1C00
ENDCHAR
STARTCHAR 021B
ENCODING 539
SWIDTH 468 0
DWIDTH 13 0
BBX 12 22 1 -5
BITMAP
0C00
1C00
1C00
1C00
FFF0
FFF0
FFF0
1C00
1C00
1C00
1C00
1C00
1C00
1E00
1FF0
0FF0
0FF0
0000
0180
0380
0780
0700
ENDCHAR
STARTCHAR 021C
ENCODING 540
SWIDTH 468 0
DWIDTH 13 0
BBX 12 23 1 -5
BITMAP
1800
FF80
FFC0
77E0
01E0
00E0
00E0
00E0
01E0
3FC0
3F80
3FC0
01E0
00F0
00F0
0070
00F0
00F0
01E0
0FE0
FFC0
FF00
E000
ENDCHAR
STARTCHAR 021D
ENCODING 541
SWIDTH 468 0
DWIDTH 13 0
BBX 10 18 2 -5
BITMAP
FF00
7F80
7FC0
03C0
03C0
03C0
1F80
1F00
1F80
07C0
03C0
01C0
03C0
03C0
1FC0
FF80
FE00
E000
ENDCHAR
STARTCHAR 021E
ENCODING 542
SWIDTH 468 0
DWIDTH 13 0
BBX 12 23 1 0
BITMAP
1080
3BC0
1F80
0F00
0400
0000
F0F0
F0F0
F0F0
F0F0
F0F0
F0F0
F0F0
FFF0
FFF0
F0F0
F0F0
F0F0
F0F0
F0F0
F0F0
F0F0
F0F0
ENDCHAR
STARTCHAR 021F
ENCODING 543
SWIDTH 468 0
DWIDTH 13 0
BBX 10 23 2 0
BITMAP
C400
FE00
7800
3000
0000
0000
E000
E000
E000
E000
FF00
FF80
FFC0
E3C0
E1C0
E1C0
E1C0
E1C0
E1C0
E1C0
E1C0
E1C0
E1C0
ENDCHAR
STARTCHAR 0220
ENCODING 544
SWIDTH 468 0
DWIDTH 13 0
BBX 12 23 1 -5
BITMAP
0400
FFC0
FFE0
F3E0
F0E0
F0F0
F0F0
F0F0
F0F0
F0F0
F0F0
F0F0
F0F0
F0F0
F0F0
F0F0
F0F0
F0F0
00F0
00F0
00F0
00F0
00F0
ENDCHAR
STARTCHAR 0221
ENCODING 545
SWIDTH 468 0
DWIDTH 13 0
BBX 14 24 0 -5
BITMAP
01C0
01C0
01C0
01C0
01C0
01C0
3FC0
3FC0
7BC0
71C0
71C0
E1C0
E1C0
E1C0
71C0
71C0
7DF8
3FFC
1FCC
03CC
07CC
0EFC
0478
0010
ENDCHAR
STARTCHAR 0222
ENCODING 546
SWIDTH 468 0
DWIDTH 13 0
BBX 12 17 1 0
BITMAP
71E0
70E0
70E0
70E0
70E0
79E0
3FC0
1F80
7FE0
F9F0
F0F0
E070
E070
F0F0
FFF0
7FE0
3FC0
ENDCHAR
STARTCHAR 0223
ENCODING 547
SWIDTH 468 0
DWIDTH 13 0
BBX 12 19 1 0
BITMAP
70E0
70E0
70E0
F0E0
70E0
71E0
79E0
3FC0
3FC0
7FE0
F0E0
F0F0
E070
E070
E0F0
F0F0
7FE0
7FE0
1F80
ENDCHAR
STARTCHAR 0224
ENCODING 548
SWIDTH 468 0
DWIDTH 13 0
BBX 12 22 1 -5
BITMAP
7FE0
7FE0
7FE0
01E0
03C0
0380
0780
0F00
0E00
1E00
1C00
3C00
3800
7800
7FF0
FFF0
FFF0
0070
0060
03E0
07E0
0300
ENDCHAR
STARTCHAR 0225
ENCODING 549
SWIDTH 468 0
DWIDTH 13 0
BBX 10 18 2 -5
BITMAP
FFC0
FFC0
FFC0
0780
0F00
1E00
1E00
3C00
7800
7000
FFC0
FFC0
FFC0
01C0
01C0
0FC0
0F80
0600
ENDCHAR
STARTCHAR 0226
ENCODING 550
SWIDTH 468 0
DWIDTH 13 0
BBX 14 23 0 0
BITMAP
0300
0780
0780
0780
0000
0000
0780
0780
0FC0
0FC0
0FC0
1CE0
1CE0
1CE0
3CE0
38F0
3FF0
3FF0
7FF8
7078
7078
7038
F03C
ENDCHAR
STARTCHAR 0227
ENCODING 551
SWIDTH 468 0
DWIDTH 13 0
BBX 11 19 1 0
BITMAP
0600
0F00
0F00
0E00
0000
0000
7F80
3FC0
3FE0
00E0
00E0
1FE0
7FE0
F8E0
F0E0
F0E0
FCE0
7FE0
3FE0
ENDCHAR
STARTCHAR 0228
ENCODING 552
SWIDTH 468 0
DWIDTH 13 0
BBX 11 22 2 -5
BITMAP
FFC0
FFC0
FFC0
E000
E000
E000
FF80
FF80
FF80
E000
E000
E000
E000
E000
FFE0
FFE0
FFE0
0C00
0700
0700
1F00
1C00
ENDCHAR
STARTCHAR 0229
ENCODING 553
SWIDTH 468 0
DWIDTH 13 0
BBX 12 18 1 -5
BITMAP
1F80
3FE0
7FE0
F0F0
F070
FFF0
FFF0
FFF0
F000
F000
7FE0
3FE0
1FE0
0600
0380
0380
0F80
0E00
ENDCHAR
STARTCHAR 022A
ENCODING 554
SWIDTH 468 0
DWIDTH 13 0
BBX 12 23 1 0
BITMAP
1F80
1F80
0000
39C0
39C0
1080
0000
1F80
7FC0
7FE0
F0F0
F0F0
E070
E070
E070
E070
E070
E0F0
F0F0
F0E0
7FE0
3FC0
1F80
ENDCHAR
STARTCHAR 022B
ENCODING 555
SWIDTH 468 0
DWIDTH 13 0
BBX 12 20 1 0
BITMAP
1F80
1F80
1080
39C0
39C0
0000
0000
1F80
3FC0
7FE0
F0F0
F0F0
E070
E070
E070
F0F0
F0F0
7FE0
3FC0
1F80
ENDCHAR
STARTCHAR 022C
ENCODING 556
SWIDTH 468 0
DWIDTH 13 0
BBX 12 23 1 0
BITMAP
1F80
1F80
0080
1FC0
3F80
1000
0000
1F80
7FC0
7FE0
F0F0
F0F0
E070
E070
E070
E070
E070
E0F0
F0F0
F0E0
7FE0
3FC0
1F80
ENDCHAR
STARTCHAR 022D
ENCODING 557
SWIDTH 468 0
DWIDTH 13 0
BBX 12 20 1 0
BITMAP
1F80
1F80
0880
3FC0
3F80
0000
0000
1F80
3FC0
7FE0
F0F0
F0F0
E070
E070
E070
F0F0
F0F0
7FE0
3FC0
1F80
ENDCHAR
STARTCHAR 022E
ENCODING 558
SWIDTH 468 0
DWIDTH 13 0
BBX 12 23 1 0
BITMAP
0600
0F00
0F00
0F00
0000
0600
1F80
3FC0
7FE0
F0E0
F0F0
E0F0
E070
E070
E070
E070
E070
E0F0
F0F0
F0E0
7FE0
3FC0
1F80
ENDCHAR
STARTCHAR 022F
ENCODING 559
SWIDTH 468 0
DWIDTH 13 0
BBX 12 19 1 0
BITMAP
0600
0F00
0F00
0E00
0000
0000
1F80
3FC0
7FE0
F0F0
F0F0
E070
E070
E070
F0F0
F0F0
7FE0
3FC0
1F80
ENDCHAR
STARTCHAR 0230
ENCODING 560
SWIDTH 468 0
DWIDTH 13 0
BBX 12 23 1 0
BITMAP
1F80
1F80
0000
0E00
0F00
0600
0000
1F80
7FC0
7FE0
F0F0
F0F0
E070
E070
E070
E070
E070
E0F0
F0F0
F0E0
7FE0
3FC0
1F80
ENDCHAR
STARTCHAR 0231
ENCODING 561
SWIDTH 468 0
DWIDTH 13 0
BBX 12 20 1 0
BITMAP
1F80
1F80
0400
0E00
0E00
0000
0000
1F80
3FC0
7FE0
F0F0
F0F0
E070
E070
E070
F0F0
F0F0
7FE0
3FC0
1F80
ENDCHAR
STARTCHAR 0232
ENCODING 562
SWIDTH 468 0
DWIDTH 13 0
BBX 12 22 1 0
BITMAP
3FC0
3FC0
3FC0
0000
0000
E070
F0F0
F0F0
70E0
79E0
39C0
3DC0
1F80
1F80
0F00
0F00
0F00
0F00
0F00
0F00
0F00
0F00
ENDCHAR
STARTCHAR 0233
ENCODING 563
SWIDTH 468 0
DWIDTH 13 0
BBX 12 23 1 -5
BITMAP
3FC0
3FC0
0000
0000
0000
F0F0
F0F0
70E0
78E0
78E0
39E0
3DC0
3DC0
1DC0
1F80
0F80
0F00
0700
0F00
9E00
FE00
FC00
F000
ENDCHAR
STARTCHAR 0234
ENCODING 564
SWIDTH 468 0
DWIDTH 13 0
BBX 13 24 1 -5
BITMAP
FE00
FE00
FE00
0E00
0E00
0E00
0E00
0E00
0E00
0E00
0E00
0E00
0E00
0E00
0E00
0FC0
0FF0
0FF0
1E30
3E38
3E30
77F0
23E0
0080
ENDCHAR
STARTCHAR 0235
ENCODING 565
SWIDTH 468 0
DWIDTH 13 0
BBX 13 18 1 -5
BITMAP
FF00
FF00
FF80
E380
E380
E380
E380
E380
E380
E380
E3F0
E3F8
E398
0798
0F98
1DF8
08F0
0020
ENDCHAR
STARTCHAR 0236
ENCODING 566
SWIDTH 468 0
DWIDTH 13 0
BBX 12 22 1 -5
BITMAP
0C00
1C00
1C00
1C00
FFF0
FFF0
FFF0
1C00
1C00
1C00
1C00
1C00
1C00
1DC0
1FE0
1FF0
1C70
3C70
7E70
FFE0
67E0
0180
ENDCHAR
STARTCHAR 0237
ENCODING 567
SWIDTH 468 0
DWIDTH 13 0
BBX 10 18 1 -5
BITMAP
7FC0
7FC0
7FC0
01C0
01C0
01C0
01C0
01C0
01C0
01C0
01C0
01C0
01C0
01C0
73C0
7F80
FF80
1E00
ENDCHAR
STARTCHAR 0238
ENCODING 568
SWIDTH 468 0
DWIDTH 13 0
BBX 12 19 1 0
BITMAP
0600
0600
0600
0600
0600
0600
7FE0
7FE0
EF70
E670
E670
C670
C670
C670
E670
E670
E6F0
7FE0
3FC0
ENDCHAR
STARTCHAR 0239
ENCODING 569
SWIDTH 468 0
DWIDTH 13 0
BBX 12 18 1 -5
BITMAP
3FC0
7FE0
E6F0
E670
E670
C670
C670
C670
E670
E670
EFF0
7FE0
7FC0
0600
0600
0600
0600
0600
ENDCHAR
STARTCHAR 023A
ENCODING 570
SWIDTH 468 0
DWIDTH 13 0
BBX 14 21 0 -1
BITMAP
0040
0040
07C0
07C0
0FC0
0FC0
0FC0
1DE0
1DE0
1DE0
3DE0
3B70
3FF0
3FF0
7FF8
7678
7638
7638
F43C
0400
0C00
ENDCHAR
STARTCHAR 023B
ENCODING 571
SWIDTH 468 0
DWIDTH 13 0
BBX 13 21 1 -1
BITMAP
0070
03E0
1FF0
3FF8
7EF0
78C0
F1C0
F180
E180
E380
E300
E300
E700
F600
F600
7E00
7FF0
3FF0
1FE0
1800
1800
ENDCHAR
STARTCHAR 023C
ENCODING 572
SWIDTH 468 0
DWIDTH 13 0
BBX 12 17 1 -2
BITMAP
00E0
00C0
1FF0
3FF0
7FE0
7980
F380
F300
F300
F700
F600
7E00
7FF0
3FF0
0FF0
0C00
1800
ENDCHAR
STARTCHAR 023D
ENCODING 573
SWIDTH 468 0
DWIDTH 13 0
BBX 13 17 0 0
BITMAP
1C00
1C00
1C00
1C00
1C00
1C00
FFC0
FFC0
FFC0
1C00
1C00
1C00
1C00
1C00
1FF8
1FF8
1FF8
ENDCHAR
STARTCHAR 023E
ENCODING 574
SWIDTH 468 0
DWIDTH 13 0
BBX 14 21 0 -2
BITMAP
000C
001C
7FF8
7FF8
7FF0
0F70
0FE0
0FC0
0FC0
0F80
0F00
0F00
0F00
0F00
1F00
3F00
3F00
7F00
6F00
E000
4000
ENDCHAR
STARTCHAR 023F
ENCODING 575
SWIDTH 468 0
DWIDTH 13 0
BBX 11 18 1 -5
BITMAP
1FE0
7FE0
7DC0
7000
7800
7F00
3FC0
0FE0
01E0
00E0
7FE0
FFE0
FF80
3800
1E00
0FC0
07C0
0180
ENDCHAR
STARTCHAR 0240
ENCODING 576
SWIDTH 468 0
DWIDTH 13 0
BBX 11 18 2 -5
BITMAP
FFC0
FFC0
FFC0
0780
0F00
1E00
1E00
3C00
7800
7000
F000
F000
FC00
3E00
0F80
07E0
03E0
00C0
ENDCHAR
STARTCHAR 0241
ENCODING 577
SWIDTH 468 0
DWIDTH 13 0
BBX 11 18 2 0
BITMAP
0800
FF80
FFC0
F7C0
01E0
01E0
01E0
03C0
0FC0
1F00
1E00
3C00
3C00
3C00
3C00
3C00
3C00
3C00
ENDCHAR
STARTCHAR 0242
ENCODING 578
SWIDTH 468 0
DWIDTH 13 0
BBX 10 13 2 0
BITMAP
7F80
FFC0
FFC0
01C0
01C0
07C0
0F80
1F00
3C00
3C00
3C00
3C00
3C00
ENDCHAR
STARTCHAR 0243
ENCODING 579
SWIDTH 468 0
DWIDTH 13 0
BBX 13 17 0 0
BITMAP
3FC0
3FE0
3FF0
3C70
3C70
3C70
3CE0
3FC0
3FE0
3DF0
3C78
FF38
FF38
3C78
3FF8
3FF0
3FC0
ENDCHAR
STARTCHAR 0244
ENCODING 580
SWIDTH 468 0
DWIDTH 13 0
BBX 13 17 0 0
BITMAP
3870
3870
3870
3870
3870
3870
FFF8
FFF8
FFF8
3870
3870
3870
3870
38F0
3FF0
1FE0
0FC0
ENDCHAR
STARTCHAR 0245
ENCODING 581
SWIDTH 468 0
DWIDTH 13 0
BBX 14 17 0 0
BITMAP
0780
0780
0FC0
0FC0
0FC0
1CE0
1CE0
1CE0
3CE0
38F0
3870
3870
7878
7878
7078
7038
F03C
ENDCHAR
STARTCHAR 0246
ENCODING 582
SWIDTH 468 0
DWIDTH 13 0
BBX 13 21 1 -3
BITMAP
0038
0030
FFF0
FFF0
FFE0
F0E0
F0C0
F0C0
FFE0
FFE0
FFE0
F380
F300
F700
F600
F600
FFF0
FFF0
FFF0
1800
1800
ENDCHAR
STARTCHAR 0247
ENCODING 583
SWIDTH 468 0
DWIDTH 13 0
BBX 12 17 1 -2
BITMAP
00C0
0180
1FC0
7FE0
7FE0
F3F0
E370
FFF0
FFF0
FFF0
EC00
FC00
7FE0
7FE0
1FE0
1800
3000
ENDCHAR
STARTCHAR 0248
ENCODING 584
SWIDTH 468 0
DWIDTH 13 0
BBX 12 17 1 0
BITMAP
3FC0
3FC0
3FC0
01C0
01C0
01C0
01C0
0FF0
0FF0
01C0
01C0
01C0
01C0
43C0
7FC0
FF80
7F00
ENDCHAR
STARTCHAR 0249
ENCODING 585
SWIDTH 468 0
DWIDTH 13 0
BBX 12 24 1 -5
BITMAP
0380
07C0
07C0
0380
0000
0000
7FC0
7FC0
7FC0
01C0
01C0
7FF0
7FF0
01C0
01C0
01C0
01C0
01C0
01C0
01C0
73C0
7F80
FF80
1E00
ENDCHAR
STARTCHAR 024A
ENCODING 586
SWIDTH 468 0
DWIDTH 13 0
BBX 13 23 1 -5
BITMAP
0400
3F80
7FC0
7BC0
F1E0
F1E0
E0E0
E0E0
E0E0
E0E0
E0E0
E0E0
E0E0
F1E0
F1E0
7FE0
7FE0
1FE0
00E0
00F0
00F8
0078
0018
ENDCHAR
STARTCHAR 024B
ENCODING 587
SWIDTH 468 0
DWIDTH 13 0
BBX 13 18 1 -5
BITMAP
1FE0
7FE0
7FE0
F1E0
F1E0
E1E0
E1E0
E1E0
F1E0
F1E0
7FE0
7FE0
3FE0
01E0
01F8
00F8
00F8
0030
ENDCHAR
STARTCHAR 024C
ENCODING 588
SWIDTH 468 0
DWIDTH 13 0
BBX 13 17 0 0
BITMAP
3FC0
3FE0
3FF0
3CF0
3C70
3C70
3C70
3CF0
FFF0
FFC0
FFC0
3DE0
3CE0
3CF0
3C70
3C78
3C38
ENDCHAR
STARTCHAR 024D
ENCODING 589
SWIDTH 468 0
DWIDTH 13 0
BBX 13 13 0 0
BITMAP
1FF8
3FF0
3FF0
3C00
3C00
3C00
FFC0
FFC0
3C00
3C00
3C00
3C00
3C00
ENDCHAR
STARTCHAR 024E
ENCODING 590
SWIDTH 468 0
DWIDTH 13 0
BBX 14 17 0 0
BITMAP
7038
7878
3870
FFFC
FFFC
1CE0
1CE0
0FC0
0FC0
0780
0780
0780
0780
0780
0780
0780
0780
ENDCHAR
STARTCHAR 024F
ENCODING 591
SWIDTH 468 0
DWIDTH 13 0
BBX 14 18 0 -5
BITMAP
7878
7870
3870
3C70
FFFC
FFFC
1CE0
1EE0
0FE0
0FC0
07C0
0780
0380
0780
4F00
7F00
7E00
7800
ENDCHAR
STARTCHAR 0292
ENCODING 658
SWIDTH 468 0
DWIDTH 13 0
BBX 11 18 1 -5
BITMAP
FFE0
FFE0
FFE0
03C0
0380
0700
0E00
1F00
1FC0
03E0
01E0
00E0
00E0
01E0
E3E0
FFC0
FF80
1800
ENDCHAR
STARTCHAR 02BC
ENCODING 700
SWIDTH 468 0
DWIDTH 13 0
BBX 4 5 5 13
BITMAP
70
70
70
E0
E0
ENDCHAR
STARTCHAR 02C6
ENCODING 710
SWIDTH 468 0
DWIDTH 13 0
BBX 8 5 3 14
BITMAP
18
3C
7E
E7
42
ENDCHAR
STARTCHAR 02C7
ENCODING 711
SWIDTH 468 0
DWIDTH 13 0
BBX 8 4 3 14
BITMAP
46
FF
7E
38
ENDCHAR
STARTCHAR 02C9
ENCODING 713
SWIDTH 468 0
DWIDTH 13 0
BBX 8 3 3 15
BITMAP
FF
FF
FF
ENDCHAR
STARTCHAR 02D8
ENCODING 728
SWIDTH 468 0
DWIDTH 13 0
BBX 8 4 3 15
BITMAP
C7
E7
7E
3C
ENDCHAR
STARTCHAR 02D9
ENCODING 729
SWIDTH 468 0
DWIDTH 13 0
BBX 4 4 5 15
BITMAP
60
F0
F0
E0
ENDCHAR
STARTCHAR 02DA
ENCODING 730
SWIDTH 468 0
DWIDTH 13 0
BBX 6 6 4 14
BITMAP
30
78
CC
CC
FC
78
ENDCHAR
STARTCHAR 02DB
ENCODING 731
SWIDTH 468 0
DWIDTH 13 0
BBX 5 5 5 -5
BITMAP
70
E0
C0
F8
70
ENDCHAR
STARTCHAR 02DC
ENCODING 732
SWIDTH 468 0
DWIDTH 13 0
BBX 8 4 3 15
BITMAP
20
FF
FF
CE
ENDCHAR
STARTCHAR 02DD
ENCODING 733
SWIDTH 468 0
DWIDTH 13 0
BBX 10 5 2 14
BITMAP
1080
39C0
7380
E700
4200
ENDCHAR
STARTCHAR 0311
ENCODING 785
SWIDTH 468 0
DWIDTH 13 0
BBX 8 4 3 15
BITMAP
3C
7E
FF
E7
ENDCHAR
STARTCHAR 0384
ENCODING 900
SWIDTH 468 0
DWIDTH 13 0
BBX 5 5 5 14
BITMAP
20
78
F0
E0
C0
ENDCHAR
STARTCHAR 0385
ENCODING 901
SWIDTH 468 0
DWIDTH 13 0
BBX 12 6 1 14
BITMAP
0300
4700
F7F0
F6F0
6C60
0400
ENDCHAR
STARTCHAR 0386
ENCODING 902
SWIDTH 468 0
DWIDTH 13 0
BBX 15 18 -1 0
BITMAP
2000
7BC0
73C0
77E0
67E0
E7E0
0E70
0E70
0E70
1E70
1C78
1FF8
1FF8
3FFC
383C
383C
381C
781E
ENDCHAR
STARTCHAR 0388
ENCODING 904
SWIDTH 468 0
DWIDTH 13 0
BBX 17 18 -4 0
BITMAP
200000
7BFF00
73FF00
73FF00
638000
E38000
038000
03FE00
03FE00
03FE00
038000
038000
038000
038000
038000
03FF80
03FF80
03FF80
ENDCHAR
STARTCHAR 0389
ENCODING 905
SWIDTH 468 0
DWIDTH 13 0
BBX 17 18 -4 0
BITMAP
400000
778780
778780
E78780
E78780
E78780
078780
078780
07FF80
07FF80
078780
078780
078780
078780
078780
078780
078780
078780
ENDCHAR
STARTCHAR 038A
ENCODING 906
SWIDTH 468 0
DWIDTH 13 0
BBX 16 18 -4 0
BITMAP
4000
77FF
77FF
E7FF
E078
E078
0078
0078
0078
0078
0078
0078
0078
0078
0078
07FF
07FF
07FF
ENDCHAR
STARTCHAR 038C
ENCODING 908
SWIDTH 468 0
DWIDTH 13 0
BBX 17 18 -4 0
BITMAP
203000
78FC00
71FE00
73FF00
778700
E78780
070780
070380
070380
070380
070380
070380
070780
078780
078700
03FF00
01FE00
00FC00
ENDCHAR
STARTCHAR 038E
ENCODING 910
SWIDTH 468 0
DWIDTH 13 0
BBX 18 18 -5 0
BITMAP
200000
7B81C0
73C3C0
73C3C0
71C380
E1E780
00E700
00F700
007E00
007E00
003C00
003C00
003C00
003C00
003C00
003C00
003C00
003C00
ENDCHAR
STARTCHAR 038F
ENCODING 911
SWIDTH 468 0
DWIDTH 13 0
BBX 18 18 -4 0
BITMAP
200000
79FE00
73FF00
77FF00
778780
E70380
0F0380
0F03C0
0F03C0
0F03C0
070380
070380
070780
038700
038F00
0FCFC0
0FCFC0
0FCFC0
ENDCHAR
STARTCHAR 0390
ENCODING 912
SWIDTH 468 0
DWIDTH 13 0
BBX 12 20 1 0
BITMAP
0300
4700
F7F0
F6F0
6C60
0400
0000
FE00
FE00
FE00
0E00
0E00
0E00
0E00
0E00
0E00
0E00
0FF0
0FF0
07F0
ENDCHAR
STARTCHAR 0391
ENCODING 913
SWIDTH 468 0
DWIDTH 13 0
BBX 14 17 0 0
BITMAP
0780
0780
0FC0
0FC0
0FC0
1CE0
1CE0
1CE0
3CE0
38F0
3FF0
3FF0
7FF8
7078
7078
7038
F03C
ENDCHAR
STARTCHAR 0392
ENCODING 914
SWIDTH 468 0
DWIDTH 13 0
BBX 12 17 1 0
BITMAP
FF80
FFC0
FFE0
F0E0
F0E0
F0E0
F3C0
FF80
FFC0
F3E0
F0F0
F070
F070
F0F0
FFE0
FFE0
FF80
ENDCHAR
STARTCHAR 0393
ENCODING 915
SWIDTH 468 0
DWIDTH 13 0
BBX 12 17 1 0
BITMAP
3FF0
3FF0
3FF0
3C00
3C00
3C00
3C00
3C00
3C00
3C00
3C00
3C00
3C00
3C00
FFC0
FFC0
FFC0
ENDCHAR
STARTCHAR 0394
ENCODING 916
SWIDTH 468 0
DWIDTH 13 0
BBX 14 17 0 0
BITMAP
0780
0780
0FC0
0FC0
0FC0
1CE0
1CE0
1CE0
3CE0
38F0
3870
3870
7878
7078
7FF8
7FF8
FFFC
ENDCHAR
STARTCHAR 0395
ENCODING 917
SWIDTH 468 0
DWIDTH 13 0
BBX 11 17 2 0
BITMAP
FFC0
FFC0
FFC0
E000
E000
E000
FF80
FF80
FF80
E000
E000
E000
E000
E000
FFE0
FFE0
FFE0
ENDCHAR
STARTCHAR 0396
ENCODING 918
SWIDTH 468 0
DWIDTH 13 0
BBX 12 17 1 0
BITMAP
7FE0
7FE0
7FE0
01E0
03C0
0380
0780
0F00
0E00
1E00
1C00
3C00
3800
7800
7FF0
FFF0
FFF0
ENDCHAR
STARTCHAR 0397
ENCODING 919
SWIDTH 468 0
DWIDTH 13 0
BBX 12 17 1 0
BITMAP
F0F0
F0F0
F0F0
F0F0
F0F0
F0F0
F0F0
FFF0
FFF0
F0F0
F0F0
F0F0
F0F0
F0F0
F0F0
F0F0
F0F0
ENDCHAR
STARTCHAR 0398
ENCODING 920
SWIDTH 468 0
DWIDTH 13 0
BBX 12 18 1 0
BITMAP
0600
3FC0
7FE0
7FE0
F0F0
E070
E070
E070
EF70
EF70
EF70
E070
E070
E0F0
F0F0
7FE0
7FC0
1F80
ENDCHAR
STARTCHAR 0399
ENCODING 921
SWIDTH 468 0
DWIDTH 13 0
BBX 11 17 1 0
BITMAP
FFE0
FFE0
FFE0
0F00
0F00
0F00
0F00
0F00
0F00
0F00
0F00
0F00
0F00
0F00
FFE0
FFE0
FFE0
ENDCHAR
STARTCHAR 039A
ENCODING 922
SWIDTH 468 0
DWIDTH 13 0
BBX 12 17 1 0
BITMAP
F0F0
F1E0
F1E0
F3C0
F780
F700
FF00
FE00
FE00
FF00
F780
F3C0
F3C0
F1E0
F0F0
F0F0
F070
ENDCHAR
STARTCHAR 039B
ENCODING 923
SWIDTH 468 0
DWIDTH 13 0
BBX 14 17 0 0
BITMAP
0780
0780
0FC0
0FC0
0FC0
1CE0
1CE0
1CE0
3CE0
38F0
3870
3870
7878
7878
7078
7038
F03C
ENDCHAR
STARTCHAR 039C
ENCODING 924
SWIDTH 468 0
DWIDTH 13 0
BBX 12 17 1 0
BITMAP
70E0
F0E0
F1E0
F9F0
F9F0
FBF0
FF70
EF70
EF70
EF70
E670
E070
E070
E070
E070
E070
E070
ENDCHAR
STARTCHAR 039D
ENCODING 925
SWIDTH 468 0
DWIDTH 13 0
BBX 12 17 1 0
BITMAP
E070
F070
F870
F870
FC70
FC70
EE70
EE70
E770
E770
E3F0
E3F0
E1F0
E1F0
E0F0
E0F0
E070
ENDCHAR
STARTCHAR 039E
ENCODING 926
SWIDTH 468 0
DWIDTH 13 0
BBX 12 17 1 0
BITMAP
FFF0
FFF0
FFF0
0000
0000
0000
7FE0
7FE0
7FE0
0000
0000
0000
0000
0000
FFF0
FFF0
FFF0
ENDCHAR
STARTCHAR 039F
ENCODING 927
SWIDTH 468 0
DWIDTH 13 0
BBX 12 18 1 0
BITMAP
0600
1F80
3FC0
7FE0
F0E0
F0F0
E0F0
E070
E070
E070
E070
E070
E0F0
F0F0
F0E0
7FE0
3FC0
1F80
ENDCHAR
STARTCHAR 03A0
ENCODING 928
SWIDTH 468 0
DWIDTH 13 0
BBX 12 17 1 0
BITMAP
FFF0
FFF0
FFF0
F0F0
F0F0
F0F0
F0F0
F0F0
F0F0
F0F0
F0F0
F0F0
F0F0
F0F0
F0F0
F0F0
F0F0
ENDCHAR
STARTCHAR 03A1
ENCODING 929
SWIDTH 468 0
DWIDTH 13 0
BBX 12 17 1 0
BITMAP
FFC0
FFE0
FFF0
F0F0
F070
F070
F0F0
F0F0
FFE0
FFE0
FF80
F000
F000
F000
F000
F000
F000
ENDCHAR
STARTCHAR 03A3
ENCODING 931
SWIDTH 468 0
DWIDTH 13 0
BBX 12 17 1 0
BITMAP
FFF0
FFF0
7FF0
3800
3C00
1E00
0F00
0780
0780
0F00
1E00
1C00
3800
7800
FFF0
FFF0
FFF0
ENDCHAR
STARTCHAR 03A4
ENCODING 932
SWIDTH 468 0
DWIDTH 13 0
BBX 12 17 1 0
BITMAP
FFF0
FFF0
FFF0
0F00
0F00
0F00
0F00
0F00
0F00
0F00
0F00
0F00
0F00
0F00
0F00
0F00
0F00
ENDCHAR
STARTCHAR 03A5
ENCODING 933
SWIDTH 468 0
DWIDTH 13 0
BBX 12 17 1 0
BITMAP
E070
F0F0
F0F0
70E0
79E0
39C0
3DC0
1F80
1F80
0F00
0F00
0F00
0F00
0F00
0F00
0F00
0F00
ENDCHAR
STARTCHAR 03A6
ENCODING 934
SWIDTH 468 0
DWIDTH 13 0
BBX 12 18 1 0
BITMAP
0600
0600
3FC0
7FE0
F6E0
E670
E670
C670
C670
C670
E670
E670
E670
77E0
7FC0
1F80
0600
0600
ENDCHAR
STARTCHAR 03A7
ENCODING 935
SWIDTH 468 0
DWIDTH 13 0
BBX 13 17 0 0
BITMAP
7878
3870
3CF0
1CE0
1FE0
0FC0
0FC0
0780
0780
0FC0
0FC0
1CE0
1CF0
3CF0
7878
7878
F038
ENDCHAR
STARTCHAR 03A8
ENCODING 936
SWIDTH 468 0
DWIDTH 13 0
BBX 12 17 1 0
BITMAP
C030
C030
C030
C030
C630
C630
C630
C670
E670
E670
7FE0
7FE0
1F80
0600
0600
0600
0600
ENDCHAR
STARTCHAR 03A9
ENCODING 937
SWIDTH 468 0
DWIDTH 13 0
BBX 14 17 0 1
BITMAP
1FE0
3FF0
7FF0
7878
7038
F038
F03C
F03C
F03C
7038
7038
7078
3870
38F0
FCFC
FCFC
FCFC
ENDCHAR
STARTCHAR 03AA
ENCODING 938
SWIDTH 468 0
DWIDTH 13 0
BBX 11 23 1 0
BITMAP
1080
79C0
79E0
39C0
0000
0000
FFE0
FFE0
FFE0
0F00
0F00
0F00
0F00
0F00
0F00
0F00
0F00
0F00
0F00
0F00
FFE0
FFE0
FFE0
ENDCHAR
STARTCHAR 03AB
ENCODING 939
SWIDTH 468 0
DWIDTH 13 0
BBX 12 23 1 0
BITMAP
1080
79C0
79E0
39C0
0000
0000
E070
F0F0
F0F0
70E0
79E0
39C0
3DC0
1F80
1F80
0F00
0F00
0F00
0F00
0F00
0F00
0F00
0F00
ENDCHAR
STARTCHAR 03AC
ENCODING 940
SWIDTH 468 0
DWIDTH 13 0
BBX 12 20 1 0
BITMAP
0300
0380
0700
0F00
0E00
0000
0000
1FE0
3FE0
7FE0
70E0
F0E0
F0E0
F0E0
F0E0
F0E0
F0E0
7FF0
7FF0
1F70
ENDCHAR
STARTCHAR 03AD
ENCODING 941
SWIDTH 468 0
DWIDTH 13 0
BBX 10 20 2 0
BITMAP
0200
0780
0F00
0E00
1C00
0000
0000
3FC0
7FC0
FFC0
F000
F000
7F00
7F00
FF00
E000
E000
FFC0
FFC0
7FC0
ENDCHAR
STARTCHAR 03AE
ENCODING 942
SWIDTH 468 0
DWIDTH 13 0
BBX 10 25 2 -5
BITMAP
0600
0700
0E00
1E00
1C00
0000
0000
FF00
FF80
FFC0
E3C0
E1C0
E1C0
E1C0
E1C0
E1C0
E1C0
E1C0
E1C0
E1C0
01C0
01C0
01C0
01C0
01C0
ENDCHAR
STARTCHAR 03AF
ENCODING 943
SWIDTH 468 0
DWIDTH 13 0
BBX 12 20 1 0
BITMAP
0200
0780
0F00
0E00
0C00
0000
0000
FE00
FE00
FE00
0E00
0E00
0E00
0E00
0E00
0E00
0E00
0FF0
0FF0
07F0
ENDCHAR
STARTCHAR 03B0
ENCODING 944
SWIDTH 468 0
DWIDTH 13 0
BBX 12 20 1 0
BITMAP
0300
4700
F7F0
F6F0
6C60
0400
0000
F0E0
F0E0
F0E0
F0E0
F0E0
F0E0
F0E0
F0E0
F0E0
71E0
7FE0
7FC0
3F80
ENDCHAR
STARTCHAR 03B1
ENCODING 945
SWIDTH 468 0
DWIDTH 13 0
BBX 12 13 1 0
BITMAP
1FE0
3FE0
7FE0
70E0
F0E0
F0E0
F0E0
F0E0
F0E0
F0E0
7FF0
7FF0
1F70
ENDCHAR
STARTCHAR 03B2
ENCODING 946
SWIDTH 468 0
DWIDTH 13 0
BBX 12 24 1 -5
BITMAP
1F80
3FC0
7FE0
71E0
70E0
F0E0
F1E0
F3C0
F780
F7E0
F1F0
F0F0
F070
F070
F070
F0F0
FFF0
FFE0
FFC0
F000
F000
F000
F000
F000
ENDCHAR
STARTCHAR 03B3
ENCODING 947
SWIDTH 468 0
DWIDTH 13 0
BBX 12 18 1 -5
BITMAP
E070
F070
F0F0
70F0
78E0
79E0
39C0
39C0
3F80
1F80
1F80
1F00
1E00
0E00
0E00
0E00
0F00
0F00
ENDCHAR
STARTCHAR 03B4
ENCODING 948
SWIDTH 468 0
DWIDTH 13 0
BBX 12 19 1 0
BITMAP
0FC0
3FE0
3DE0
3800
3C00
3E00
1F00
1F80
3FC0
79E0
F0F0
E0F0
E070
E070
F0F0
F0F0
7FE0
7FC0
1F80
ENDCHAR
STARTCHAR 03B5
ENCODING 949
SWIDTH 468 0
DWIDTH 13 0
BBX 10 13 2 0
BITMAP
3FC0
7FC0
FFC0
F000
F000
7F00
7F00
FF00
E000
E000
FFC0
FFC0
7FC0
ENDCHAR
STARTCHAR 03B6
ENCODING 950
SWIDTH 468 0
DWIDTH 13 0
BBX 12 24 1 -5
BITMAP
7FE0
7FE0
7FE0
03C0
0780
0F00
1E00
3C00
3800
7800
7000
7000
F000
7000
7000
7C00
3F80
1FE0
07F0
00F0
00F0
00F0
00E0
0020
ENDCHAR
STARTCHAR 03B7
ENCODING 951
SWIDTH 468 0
DWIDTH 13 0
BBX 10 18 2 -5
BITMAP
FF00
FF80
FFC0
E3C0
E1C0
E1C0
E1C0
E1C0
E1C0
E1C0
E1C0
E1C0
E1C0
01C0
01C0
01C0
01C0
01C0
ENDCHAR
STARTCHAR 03B8
ENCODING 952
SWIDTH 468 0
DWIDTH 13 0
BBX 12 19 1 0
BITMAP
1F80
3FC0
7FE0
70E0
F0E0
F0F0
E0F0
E070
FFF0
FFF0
FFF0
E070
E0F0
F0F0
F0E0
70E0
7FE0
3FC0
1F80
ENDCHAR
STARTCHAR 03B9
ENCODING 953
SWIDTH 468 0
DWIDTH 13 0
BBX 12 13 1 0
BITMAP
FE00
FE00
FE00
0E00
0E00
0E00
0E00
0E00
0E00
0E00
0FF0
0FF0
07F0
ENDCHAR
STARTCHAR 03BA
ENCODING 954
SWIDTH 468 0
DWIDTH 13 0
BBX 11 13 2 0
BITMAP
E1E0
E3C0
E780
EF00
EE00
FC00
FE00
EF00
E700
E780
E3C0
E1E0
E1E0
ENDCHAR
STARTCHAR 03BB
ENCODING 955
SWIDTH 468 0
DWIDTH 13 0
BBX 12 19 1 0
BITMAP
F800
FC00
FE00
1E00
0F00
0F00
0700
0F80
0F80
1F80
1FC0
3FC0
39C0
79E0
79E0
71E0
F0F0
F0F0
E0F0
ENDCHAR
STARTCHAR 03BC
ENCODING 956
SWIDTH 468 0
DWIDTH 13 0
BBX 10 18 2 -5
BITMAP
E1C0
E1C0
E1C0
E1C0
E1C0
E1C0
E1C0
E1C0
E1C0
F1C0
FFC0
FFC0
FFC0
E000
E000
E000
E000
E000
ENDCHAR
STARTCHAR 03BD
ENCODING 957
SWIDTH 468 0
DWIDTH 13 0
BBX 12 13 1 0
BITMAP
E070
E070
F0F0
F0E0
70E0
79E0
39C0
3BC0
3F80
1F80
1F00
0F00
0F00
ENDCHAR
STARTCHAR 03BE
ENCODING 958
SWIDTH 468 0
DWIDTH 13 0
BBX 12 24 1 -5
BITMAP
0FF0
1FE0
3FE0
3800
7800
7800
3800
3FE0
1FE0
3FE0
7C00
7000
F000
F000
7000
7C00
7F80
3FE0
07F0
00F0
0070
00F0
00E0
0020
ENDCHAR
STARTCHAR 03BF
ENCODING 959
SWIDTH 468 0
DWIDTH 13 0
BBX 12 13 1 0
BITMAP
1F80
3FC0
7FE0
F0F0
F0F0
E070
E070
E070
F0F0
F0F0
7FE0
3FC0
1F80
ENDCHAR
STARTCHAR 03C0
ENCODING 960
SWIDTH 468 0
DWIDTH 13 0
BBX 10 13 2 0
BITMAP
FFC0
FFC0
FFC0
E1C0
E1C0
E1C0
E1C0
E1C0
E1C0
E1C0
E1C0
E1C0
E1C0
ENDCHAR
STARTCHAR 03C1
ENCODING 961
SWIDTH 468 0
DWIDTH 13 0
BBX 11 18 2 -5
BITMAP
3F80
7FC0
FFC0
F1E0
E1E0
E1E0
E0E0
E1E0
E1E0
E1E0
FFC0
FFC0
FF80
E000
E000
E000
E000
E000
ENDCHAR
STARTCHAR 03C2
ENCODING 962
SWIDTH 468 0
DWIDTH 13 0
BBX 12 18 1 -5
BITMAP
0FF0
3FE0
7FE0
7800
F000
F000
F000
F000
F000
7C00
7F80
1FE0
07F0
00F0
0070
00F0
00E0
0020
ENDCHAR
STARTCHAR 03C3
ENCODING 963
SWIDTH 468 0
DWIDTH 13 0
BBX 13 13 1 0
BITMAP
1FF8
3FF8
7FF8
F1E0
F0E0
E0E0
E0F0
E0F0
F0E0
F1E0
7FE0
7FC0
1F80
ENDCHAR
STARTCHAR 03C4
ENCODING 964
SWIDTH 468 0
DWIDTH 13 0
BBX 12 13 1 0
BITMAP
FFF0
FFF0
FFF0
1C00
1C00
1C00
1C00
1C00
1C00
1E00
1FF0
0FF0
07F0
ENDCHAR
STARTCHAR 03C5
ENCODING 965
SWIDTH 468 0
DWIDTH 13 0
BBX 11 13 1 0
BITMAP
F0E0
F0E0
F0E0
F0E0
F0E0
F0E0
F0E0
F0E0
F0E0
71E0
7FE0
7FC0
3F80
ENDCHAR
STARTCHAR 03C6
ENCODING 966
SWIDTH 468 0
DWIDTH 13 0
BBX 12 18 1 -5
BITMAP
1F80
7FC0
7FE0
E670
E670
C670
C670
C670
E670
E670
77E0
7FE0
1F80
0600
0600
0600
0600
0600
ENDCHAR
STARTCHAR 03C7
ENCODING 967
SWIDTH 468 0
DWIDTH 13 0
BBX 12 13 1 0
BITMAP
F0F0
70E0
79C0
3FC0
1F80
0F00
0F00
1F80
3FC0
39C0
71E0
F0F0
E070
ENDCHAR
STARTCHAR 03C8
ENCODING 968
SWIDTH 468 0
DWIDTH 13 0
BBX 12 18 1 -5
BITMAP
C070
C070
C070
C670
C670
C670
C670
C670
C670
E670
F6E0
7FE0
3FC0
0600
0600
0600
0600
0600
ENDCHAR
STARTCHAR 03C9
ENCODING 969
SWIDTH 468 0
DWIDTH 13 0
BBX 12 13 1 0
BITMAP
30C0
70E0
70E0
E070
E070
E670
E670
E670
E670
EF70
FFF0
7FE0
79E0
ENDCHAR
STARTCHAR 03CA
ENCODING 970
SWIDTH 468 0
DWIDTH 13 0
BBX 12 19 1 0
BITMAP
30C0
79E0
79E0
39C0
0000
0000
FE00
FE00
FE00
0E00
0E00
0E00
0E00
0E00
0E00
0E00
0FF0
0FF0
07F0
ENDCHAR
STARTCHAR 03CB
ENCODING 971
SWIDTH 468 0
DWIDTH 13 0
BBX 11 19 1 0
BITMAP
30C0
79E0
79E0
39C0
0000
0000
F0E0
F0E0
F0E0
F0E0
F0E0
F0E0
F0E0
F0E0
F0E0
71E0
7FE0
7FC0
3F80
ENDCHAR
STARTCHAR 03CC
ENCODING 972
SWIDTH 468 0
DWIDTH 13 0
BBX 12 20 1 0
BITMAP
0300
0380
0700
0F00
0E00
0000
0000
1F80
3FC0
7FE0
F0F0
F0F0
E070
E070
E070
F0F0
F0F0
7FE0
3FC0
1F80
ENDCHAR
STARTCHAR 03CD
ENCODING 973
SWIDTH 468 0
DWIDTH 13 0
BBX 11 20 1 0
BITMAP
0300
0780
0700
0E00
0C00
0000
0000
F0E0
F0E0
F0E0
F0E0
F0E0
F0E0
F0E0
F0E0
F0E0
71E0
7FE0
7FC0
3F80
ENDCHAR
STARTCHAR 03CE
ENCODING 974
SWIDTH 468 0
DWIDTH 13 0
BBX 12 20 1 0
BITMAP
0300
0780
0700
0E00
0C00
0000
0000
30C0
70E0
70E0
E070
E070
E670
E670
E670
E670
EF70
FFF0
7FE0
79E0
ENDCHAR
STARTCHAR 0400
ENCODING 1024
SWIDTH 468 0
DWIDTH 13 0
BBX 11 23 2 0
BITMAP
0800
1C00
3F00
0F00
0200
0000
FFC0
FFC0
FFC0
E000
E000
E000
FF80
FF80
FF80
E000
E000
E000
E000
E000
FFE0
FFE0
FFE0
ENDCHAR
STARTCHAR 0401
ENCODING 1025
SWIDTH 468 0
DWIDTH 13 0
BBX 11 23 2 0
BITMAP
2100
F380
F3C0
7380
0000
0000
FFC0
FFC0
FFC0
E000
E000
E000
FF80
FF80
FF80
E000
E000
E000
E000
E000
FFE0
FFE0
FFE0
ENDCHAR
STARTCHAR 0402
ENCODING 1026
SWIDTH 468 0
DWIDTH 13 0
BBX 14 17 0 0
BITMAP
FFE0
FFE0
FFE0
1C00
1C00
1C00
1FC0
1FF0
1FF8
1C78
1C38
1C3C
1C38
1C38
1CF8
1CF8
1CF0
ENDCHAR
STARTCHAR 0403
ENCODING 1027
SWIDTH 468 0
DWIDTH 13 0
BBX 12 23 1 0
BITMAP
00C0
01C0
03E0
0780
0200
0000
3FF0
3FF0
3FF0
3C00
3C00
3C00
3C00
3C00
3C00
3C00
3C00
3C00
3C00
3C00
FFC0
FFC0
FFC0
ENDCHAR
STARTCHAR 0404
ENCODING 1028
SWIDTH 468 0
DWIDTH 13 0
BBX 12 18 1 0
BITMAP
0300
1FF0
3FF0
7EE0
7800
F000
E000
E000
FF80
FF80
FF80
E000
F000
F000
7800
7FF0
3FF0
1FE0
ENDCHAR
STARTCHAR 0405
ENCODING 1029
SWIDTH 468 0
DWIDTH 13 0
BBX 12 18 1 0
BITMAP
0200
3FE0
7FE0
7CC0
F000
F000
F000
7C00
7F80
1FC0
07E0
01F0
00F0
00F0
40F0
7FE0
FFE0
7FC0
ENDCHAR
STARTCHAR 0406
ENCODING 1030
SWIDTH 468 0
DWIDTH 13 0
BBX 11 17 1 0
BITMAP
FFE0
FFE0
FFE0
0F00
0F00
0F00
0F00
0F00
0F00
0F00
0F00
0F00
0F00
0F00
FFE0
FFE0
FFE0
ENDCHAR
STARTCHAR 0407
ENCODING 1031
SWIDTH 468 0
DWIDTH 13 0
BBX 11 23 1 0
BITMAP
1080
79C0
79E0
39C0
0000
0000
FFE0
FFE0
FFE0
0F00
0F00
0F00
0F00
0F00
0F00
0F00
0F00
0F00
0F00
0F00
FFE0
FFE0
FFE0
ENDCHAR
STARTCHAR 0408
ENCODING 1032
SWIDTH 468 0
DWIDTH 13 0
BBX 11 17 1 0
BITMAP
3FE0
3FE0
3FE0
00E0
00E0
00E0
00E0
00E0
00E0
00E0
00E0
00E0
00E0
41E0
7FC0
FFC0
7F80
ENDCHAR
STARTCHAR 0409
ENCODING 1033
SWIDTH 468 0
DWIDTH 13 0
BBX 13 17 0 0
BITMAP
3F00
3F00
3B00
3B00
3B00
3B00
3BE0
3BF0
3B38
3B38
3318
3318
3318
7338
7338
E3F0
C3E0
ENDCHAR
STARTCHAR 040A
ENCODING 1034
SWIDTH 468 0
DWIDTH 13 0
BBX 12 17 1 0
BITMAP
E600
E600
E600
E600
E600
E600
FFC0
FFE0
FE70
E670
E630
E630
E630
E670
E670
E7E0
E7C0
ENDCHAR
STARTCHAR 040B
ENCODING 1035
SWIDTH 468 0
DWIDTH 13 0
BBX 13 17 0 0
BITMAP
FFE0
FFE0
FFE0
1C00
1C00
1C00
1FC0
1FF0
1FF0
1CF0
1C78
1C78
1C78
1C78
1C78
1C78
1C78
ENDCHAR
STARTCHAR 040C
ENCODING 1036
SWIDTH 468 0
DWIDTH 13 0
BBX 12 23 1 0
BITMAP
0100
0780
0F80
0E00
0800
0000
F0F0
F1E0
F1E0
F3C0
F780
F700
FF00
FE00
FE00
FF00
F780
F3C0
F3C0
F1E0
F0F0
F0F0
F070
ENDCHAR
STARTCHAR 040D
ENCODING 1037
SWIDTH 468 0
DWIDTH 13 0
BBX 12 23 1 0
BITMAP
0400
0E00
1F80
0780
0100
0000
E0F0
E0F0
E1F0
E1F0
E3F0
E3F0
E770
E770
EE70
EC70
FC70
F870
F870
F870
F070
F070
E070
ENDCHAR
STARTCHAR 040E
ENCODING 1038
SWIDTH 468 0
DWIDTH 13 0
BBX 13 23 0 0
BITMAP
0840
1CE0
1FE0
0FC0
0000
0000
F038
7878
7878
3878
3CF0
1CF0
1EF0
0EE0
0FE0
07C0
03C0
03C0
0380
0780
7F00
7F00
7E00
ENDCHAR
STARTCHAR 040F
ENCODING 1039
SWIDTH 468 0
DWIDTH 13 0
BBX 12 22 1 -5
BITMAP
F0F0
F0F0
F0F0
F0F0
F0F0
F0F0
F0F0
F0F0
F0F0
F0F0
F0F0
F0F0
F0F0
F0F0
FFF0
FFF0
FFF0
0F00
0F00
0F00
0F00
0F00
ENDCHAR
STARTCHAR 0410
ENCODING 1040
SWIDTH 468 0
DWIDTH 13 0
BBX 14 17 0 0
BITMAP
0780
0780
0FC0
0FC0
0FC0
1CE0
1CE0
1CE0
3CE0
38F0
3FF0
3FF0
7FF8
7078
7078
7038
F03C
ENDCHAR
STARTCHAR 0411
ENCODING 1041
SWIDTH 468 0
DWIDTH 13 0
BBX 12 17 1 0
BITMAP
FFC0
FFC0
FFC0
F000
F000
F000
FF80
FFE0
FFE0
F0F0
F070
F070
F070
F0F0
FFE0
FFE0
FF80
ENDCHAR
STARTCHAR 0412
ENCODING 1042
SWIDTH 468 0
DWIDTH 13 0
BBX 12 17 1 0
BITMAP
FF80
FFC0
FFE0
F0E0
F0E0
F0E0
F3C0
FF80
FFC0
F3E0
F0F0
F070
F070
F0F0
FFE0
FFE0
FF80
ENDCHAR
STARTCHAR 0413
ENCODING 1043
SWIDTH 468 0
DWIDTH 13 0
BBX 12 17 1 0
BITMAP
3FF0
3FF0
3FF0
3C00
3C00
3C00
3C00
3C00
3C00
3C00
3C00
3C00
3C00
3C00
FFC0
FFC0
FFC0
ENDCHAR
STARTCHAR 0414
ENCODING 1044
SWIDTH 468 0
DWIDTH 13 0
BBX 13 22 0 -5
BITMAP
1FF0
1FF0
1FF0
1C70
1C70
1C70
1C70
1C70
1C70
1C70
1C70
3C70
3870
3870
FFF8
FFF8
FFF8
F038
F038
F038
F038
F038
ENDCHAR
STARTCHAR 0415
ENCODING 1045
SWIDTH 468 0
DWIDTH 13 0
BBX 11 17 2 0
BITMAP
FFC0
FFC0
FFC0
E000
E000
E000
FF80
FF80
FF80
E000
E000
E000
E000
E000
FFE0
FFE0
FFE0
ENDCHAR
STARTCHAR 0416
ENCODING 1046
SWIDTH 468 0
DWIDTH 13 0
BBX 14 17 0 0
BITMAP
E318
7338
7338
3330
3B70
1B60
1FE0
0FC0
0FC0
1B60
3B70
3370
7330
7338
7338
6318
E31C
ENDCHAR
STARTCHAR 0417
ENCODING 1047
SWIDTH 468 0
DWIDTH 13 0
BBX 12 18 1 0
BITMAP
0400
7FC0
7FE0
7BE0
40F0
00F0
00E0
03E0
1FC0
1FE0
1FF0
00F0
0070
0070
00F0
FFF0
FFE0
7FC0
ENDCHAR
STARTCHAR 0418
ENCODING 1048
SWIDTH 468 0
DWIDTH 13 0
BBX 12 17 1 0
BITMAP
E0F0
E0F0
E1F0
E1F0
E3F0
E3F0
E770
E770
EE70
EC70
FC70
F870
F870
F870
F070
F070
E070
ENDCHAR
STARTCHAR 0419
ENCODING 1049
SWIDTH 468 0
DWIDTH 13 0
BBX 12 23 1 0
BITMAP
1080
39C0
3FC0
1F80
0000
0000
E0F0
E0F0
E1F0
E1F0
E3F0
E3F0
E770
E770
EE70
EC70
FC70
F870
F870
F870
F070
F070
E070
ENDCHAR
STARTCHAR 041A
ENCODING 1050
SWIDTH 468 0
DWIDTH 13 0
BBX 12 17 1 0
BITMAP
F0F0
F1E0
F1E0
F3C0
F780
F700
FF00
FE00
FE00
FF00
F780
F3C0
F3C0
F1E0
F0F0
F0F0
F070
ENDCHAR
STARTCHAR 041B
ENCODING 1051
SWIDTH 468 0
DWIDTH 13 0
BBX 13 17 0 0
BITMAP
0FF8
0FF8
0FF8
0E78
0E78
0E78
0E78
0E78
1E78
1E78
1C78
1C78
1C78
3C78
F878
F078
6078
ENDCHAR
STARTCHAR 041C
ENCODING 1052
SWIDTH 468 0
DWIDTH 13 0
BBX 12 17 1 0
BITMAP
70E0
F0E0
F1E0
F9F0
F9F0
FBF0
FF70
EF70
EF70
EF70
E670
E070
E070
E070
E070
E070
E070
ENDCHAR
STARTCHAR 041D
ENCODING 1053
SWIDTH 468 0
DWIDTH 13 0
BBX 12 17 1 0
BITMAP
F0F0
F0F0
F0F0
F0F0
F0F0
F0F0
F0F0
FFF0
FFF0
F0F0
F0F0
F0F0
F0F0
F0F0
F0F0
F0F0
F0F0
ENDCHAR
STARTCHAR 041E
ENCODING 1054
SWIDTH 468 0
DWIDTH 13 0
BBX 12 18 1 0
BITMAP
0600
1F80
3FC0
7FE0
F0E0
F0F0
E0F0
E070
E070
E070
E070
E070
E0F0
F0F0
F0E0
7FE0
3FC0
1F80
ENDCHAR
STARTCHAR 041F
ENCODING 1055
SWIDTH 468 0
DWIDTH 13 0
BBX 12 17 1 0
BITMAP
FFF0
FFF0
FFF0
F0F0
F0F0
F0F0
F0F0
F0F0
F0F0
F0F0
F0F0
F0F0
F0F0
F0F0
F0F0
F0F0
F0F0
ENDCHAR
STARTCHAR 0420
ENCODING 1056
SWIDTH 468 0
DWIDTH 13 0
BBX 12 17 1 0
BITMAP
FFC0
FFE0
FFF0
F0F0
F070
F070
F0F0
F0F0
FFE0
FFE0
FF80
F000
F000
F000
F000
F000
F000
ENDCHAR
STARTCHAR 0421
ENCODING 1057
SWIDTH 468 0
DWIDTH 13 0
BBX 12 18 1 0
BITMAP
0300
1FF0
3FF0
7EE0
7800
F000
F000
E000
E000
E000
E000
E000
F000
F000
7800
7FF0
3FF0
1FE0
ENDCHAR
STARTCHAR 0422
ENCODING 1058
SWIDTH 468 0
DWIDTH 13 0
BBX 12 17 1 0
BITMAP
FFF0
FFF0
FFF0
0F00
0F00
0F00
0F00
0F00
0F00
0F00
0F00
0F00
0F00
0F00
0F00
0F00
0F00
ENDCHAR
STARTCHAR 0423
ENCODING 1059
SWIDTH 468 0
DWIDTH 13 0
BBX 13 17 0 0
BITMAP
F038
7878
7878
3878
3CF0
1CF0
1EF0
0EE0
0FE0
07C0
03C0
03C0
0380
0780
7F00
7F00
7E00
ENDCHAR
STARTCHAR 0424
ENCODING 1060
SWIDTH 468 0
DWIDTH 13 0
BBX 12 18 1 0
BITMAP
0600
0600
3FC0
7FE0
F6E0
E670
E670
C670
C670
C670
E670
E670
E670
77E0
7FC0
1F80
0600
0600
ENDCHAR
STARTCHAR 0425
ENCODING 1061
SWIDTH 468 0
DWIDTH 13 0
BBX 13 17 0 0
BITMAP
7878
3870
3CF0
1CE0
1FE0
0FC0
0FC0
0780
0780
0FC0
0FC0
1CE0
1CF0
3CF0
7878
7878
F038
ENDCHAR
STARTCHAR 0426
ENCODING 1062
SWIDTH 468 0
DWIDTH 13 0
BBX 12 22 1 -5
BITMAP
F0E0
F0E0
F0E0
F0E0
F0E0
F0E0
F0E0
F0E0
F0E0
F0E0
F0E0
F0E0
F0E0
F0E0
FFF0
FFF0
FFF0
0070
0070
0070
0070
0070
ENDCHAR
STARTCHAR 0427
ENCODING 1063
SWIDTH 468 0
DWIDTH 13 0
BBX 12 17 1 0
BITMAP
F0F0
F0F0
F0F0
F0F0
F0F0
F0F0
F0F0
F0F0
7FF0
7FF0
3FF0
00F0
00F0
00F0
00F0
00F0
00F0
ENDCHAR
STARTCHAR 0428
ENCODING 1064
SWIDTH 468 0
DWIDTH 13 0
BBX 12 17 1 0
BITMAP
C030
C030
C030
C030
C030
C030
C630
C630
C630
C630
C630
C630
C630
C630
FFF0
FFF0
FFF0
ENDCHAR
STARTCHAR 0429
ENCODING 1065
SWIDTH 468 0
DWIDTH 13 0
BBX 13 22 1 -5
BITMAP
C070
C070
C070
C070
C070
C070
CE70
CE70
CE70
CE70
CE70
CE70
CE70
CE70
FFF8
FFF8
FFF8
0038
0038
0038
0038
0038
ENDCHAR
STARTCHAR 042A
ENCODING 1066
SWIDTH 468 0
DWIDTH 13 0
BBX 13 17 0 0
BITMAP
FC00
FC00
FC00
1C00
1C00
1C00
1FC0
1FF0
1FF0
1C78
1C78
1C78
1C78
1C78
1FF0
1FF0
1FC0
ENDCHAR
STARTCHAR 042B
ENCODING 1067
SWIDTH 468 0
DWIDTH 13 0
BBX 12 17 1 0
BITMAP
E070
E070
E070
E070
E070
E070
FC70
FE70
EF70
E770
E770
E770
E770
E770
FF70
FE70
FC70
ENDCHAR
STARTCHAR 042C
ENCODING 1068
SWIDTH 468 0
DWIDTH 13 0
BBX 12 17 1 0
BITMAP
F000
F000
F000
F000
F000
F000
FF80
FFE0
FFE0
F0F0
F0F0
F0F0
F0F0
F0F0
FFE0
FFC0
FF80
ENDCHAR
STARTCHAR 042D
ENCODING 1069
SWIDTH 468 0
DWIDTH 13 0
BBX 12 18 1 0
BITMAP
0C00
7F80
7FC0
73E0
00F0
00F0
0070
0070
1FF0
1FF0
1FF0
0070
0070
00F0
01E0
7FE0
FFC0
7F80
ENDCHAR
STARTCHAR 042E
ENCODING 1070
SWIDTH 468 0
DWIDTH 13 0
BBX 12 18 1 0
BITMAP
0180
E3E0
E7E0
E770
E670
EE70
EE70
EE70
FE70
FE70
EE70
EE70
EE70
EE70
E670
E7F0
E7E0
E3E0
ENDCHAR
STARTCHAR 042F
ENCODING 1071
SWIDTH 468 0
DWIDTH 13 0
BBX 12 17 1 0
BITMAP
1FF0
3FF0
7FF0
78F0
70F0
70F0
70F0
7CF0
3FF0
1FF0
1FF0
3CF0
38F0
78F0
70F0
F0F0
E0F0
ENDCHAR
STARTCHAR 0430
ENCODING 1072
SWIDTH 468 0
DWIDTH 13 0
BBX 11 13 1 0
BITMAP
7F80
3FC0
3FE0
00E0
00E0
1FE0
7FE0
F8E0
F0E0
F0E0
FCE0
7FE0
3FE0
ENDCHAR
STARTCHAR 0431
ENCODING 1073
SWIDTH 468 0
DWIDTH 13 0
BBX 12 19 1 0
BITMAP
01E0
0FE0
1FF0
3E00
7800
7000
7200
FFC0
FFE0
FFE0
F0F0
F0F0
F0F0
F0F0
F0F0
79E0
7FE0
3FC0
1F80
ENDCHAR
STARTCHAR 0432
ENCODING 1074
SWIDTH 468 0
DWIDTH 13 0
BBX 11 13 2 0
BITMAP
FF80
FFC0
F7C0
E1C0
E1C0
FF80
FFC0
E7C0
E1E0
E1E0
FFE0
FFC0
FF80
ENDCHAR
STARTCHAR 0433
ENCODING 1075
SWIDTH 468 0
DWIDTH 13 0
BBX 10 13 2 0
BITMAP
FFC0
FFC0
FFC0
F000
F000
F000
F000
F000
F000
F000
F000
F000
F000
ENDCHAR
STARTCHAR 0434
ENCODING 1076
SWIDTH 468 0
DWIDTH 13 0
BBX 12 17 1 -4
BITMAP
1FE0
1FE0
1FE0
18E0
38E0
38E0
38E0
38E0
78E0
70E0
FFF0
FFF0
FFF0
E070
E070
E070
E070
ENDCHAR
STARTCHAR 0435
ENCODING 1077
SWIDTH 468 0
DWIDTH 13 0
BBX 12 13 1 0
BITMAP
1F80
3FE0
7FE0
F0F0
F070
FFF0
FFF0
FFF0
F000
F000
7FE0
3FE0
1FE0
ENDCHAR
STARTCHAR 0436
ENCODING 1078
SWIDTH 468 0
DWIDTH 13 0
BBX 12 13 1 0
BITMAP
C670
E670
6660
76E0
36C0
3FC0
3FC0
36C0
76E0
76E0
E660
E670
C670
ENDCHAR
STARTCHAR 0437
ENCODING 1079
SWIDTH 468 0
DWIDTH 13 0
BBX 10 13 2 0
BITMAP
FF00
FF80
FFC0
03C0
03C0
3F80
3F80
3FC0
01C0
01C0
FFC0
FF80
FF00
ENDCHAR
STARTCHAR 0438
ENCODING 1080
SWIDTH 468 0
DWIDTH 13 0
BBX 10 13 2 0
BITMAP
E1C0
E3C0
E3C0
E7C0
EFC0
EFC0
FDC0
FDC0
F9C0
F1C0
F1C0
E1C0
E1C0
ENDCHAR
STARTCHAR 0439
ENCODING 1081
SWIDTH 468 0
DWIDTH 13 0
BBX 10 19 2 0
BITMAP
6180
7780
7F80
3E00
0000
0000
E1C0
E3C0
E3C0
E7C0
EFC0
EFC0
FDC0
FDC0
F9C0
F1C0
F1C0
E1C0
E1C0
ENDCHAR
STARTCHAR 043A
ENCODING 1082
SWIDTH 468 0
DWIDTH 13 0
BBX 11 13 2 0
BITMAP
E1E0
E3C0
E780
EF00
EE00
FC00
FE00
EF00
E780
E780
E3C0
E1E0
E1E0
ENDCHAR
STARTCHAR 043B
ENCODING 1083
SWIDTH 468 0
DWIDTH 13 0
BBX 12 13 0 0
BITMAP
0FF0
0FF0
0FF0
0E70
0E70
1E70
1C70
1C70
1C70
3C70
F870
7870
6070
ENDCHAR
STARTCHAR 043C
ENCODING 1084
SWIDTH 468 0
DWIDTH 13 0
BBX 12 13 1 0
BITMAP
70E0
F0E0
F1F0
F9F0
F9F0
FBF0
EF70
EF70
EF70
EE70
E070
E070
E070
ENDCHAR
STARTCHAR 043D
ENCODING 1085
SWIDTH 468 0
DWIDTH 13 0
BBX 10 13 2 0
BITMAP
E1C0
E1C0
E1C0
E1C0
E1C0
FFC0
FFC0
FFC0
E1C0
E1C0
E1C0
E1C0
E1C0
ENDCHAR
STARTCHAR 043E
ENCODING 1086
SWIDTH 468 0
DWIDTH 13 0
BBX 12 13 1 0
BITMAP
1F80
3FC0
7FE0
F0F0
F0F0
E070
E070
E070
F0F0
F0F0
7FE0
3FC0
1F80
ENDCHAR
STARTCHAR 043F
ENCODING 1087
SWIDTH 468 0
DWIDTH 13 0
BBX 10 13 2 0
BITMAP
FFC0
FFC0
FFC0
E1C0
E1C0
E1C0
E1C0
E1C0
E1C0
E1C0
E1C0
E1C0
E1C0
ENDCHAR
STARTCHAR 0440
ENCODING 1088
SWIDTH 468 0
DWIDTH 13 0
BBX 11 18 2 -5
BITMAP
FF00
FF80
FFC0
E1E0
E1E0
E1E0
E0E0
E1E0
E1E0
E1E0
FFC0
FFC0
FF80
E000
E000
E000
E000
E000
ENDCHAR
STARTCHAR 0441
ENCODING 1089
SWIDTH 468 0
DWIDTH 13 0
BBX 12 13 1 0
BITMAP
0FF0
3FE0
7FE0
7800
F000
F000
F000
F000
F000
7800
7FF0
3FF0
0FF0
ENDCHAR
STARTCHAR 0442
ENCODING 1090
SWIDTH 468 0
DWIDTH 13 0
BBX 12 13 1 0
BITMAP
FFF0
FFF0
FFF0
0F00
0F00
0F00
0F00
0F00
0F00
0F00
0F00
0F00
0F00
ENDCHAR
STARTCHAR 0443
ENCODING 1091
SWIDTH 468 0
DWIDTH 13 0
BBX 12 18 1 -5
BITMAP
F0F0
F0F0
70E0
78E0
78E0
39E0
3DC0
3DC0
1DC0
1F80
0F80
0F00
0700
0F00
9E00
FE00
FC00
F000
ENDCHAR
STARTCHAR 0444
ENCODING 1092
SWIDTH 468 0
DWIDTH 13 0
BBX 12 24 1 -5
BITMAP
0600
0600
0600
0600
0600
0600
1F80
7FC0
7FE0
E670
E670
C670
C670
C670
E670
E670
F7E0
7FE0
3F80
0600
0600
0600
0600
0600
ENDCHAR
STARTCHAR 0445
ENCODING 1093
SWIDTH 468 0
DWIDTH 13 0
BBX 12 13 1 0
BITMAP
F0F0
70E0
79C0
3FC0
1F80
0F00
0F00
1F80
3FC0
39C0
71E0
F0F0
E070
ENDCHAR
STARTCHAR 0446
ENCODING 1094
SWIDTH 468 0
DWIDTH 13 0
BBX 11 17 2 -4
BITMAP
E3C0
E3C0
E3C0
E3C0
E3C0
E3C0
E3C0
E3C0
E3C0
E3C0
FFE0
FFE0
FFE0
01E0
01E0
01E0
01E0
ENDCHAR
STARTCHAR 0447
ENCODING 1095
SWIDTH 468 0
DWIDTH 13 0
BBX 11 13 1 0
BITMAP
F0E0
F0E0
F0E0
F0E0
F0E0
F8E0
7FE0
7FE0
1FE0
00E0
00E0
00E0
00E0
ENDCHAR
STARTCHAR 0448
ENCODING 1096
SWIDTH 468 0
DWIDTH 13 0
BBX 12 13 1 0
BITMAP
E070
E070
E070
E670
E670
E670
E670
E670
E670
E670
FFF0
FFF0
FFF0
ENDCHAR
STARTCHAR 0449
ENCODING 1097
SWIDTH 468 0
DWIDTH 13 0
BBX 12 17 1 -4
BITMAP
E060
E060
E060
EE60
EE60
EE60
EE60
EE60
EE60
EE60
FFF0
FFF0
FFF0
0030
0030
0030
0030
ENDCHAR
STARTCHAR 044A
ENCODING 1098
SWIDTH 468 0
DWIDTH 13 0
BBX 13 13 0 0
BITMAP
FC00
FC00
FC00
1C00
1D80
1FF0
1FF0
1C78
1C38
1C78
1FF8
1FF0
1FE0
ENDCHAR
STARTCHAR 044B
ENCODING 1099
SWIDTH 468 0
DWIDTH 13 0
BBX 12 13 1 0
BITMAP
E070
E070
E070
E070
F870
FE70
FF70
E770
E770
E770
EF70
FE70
FE70
ENDCHAR
STARTCHAR 044C
ENCODING 1100
SWIDTH 468 0
DWIDTH 13 0
BBX 12 13 1 0
BITMAP
F000
F000
F000
F000
FF00
FFE0
FFE0
F0F0
F070
F0F0
FFF0
FFE0
FFC0
ENDCHAR
STARTCHAR 044D
ENCODING 1101
SWIDTH 468 0
DWIDTH 13 0
BBX 12 13 1 0
BITMAP
FF00
FFC0
7FE0
01E0
00F0
1FF0
1FF0
1FF0
00E0
01E0
FFE0
FFC0
FF00
ENDCHAR
STARTCHAR 044E
ENCODING 1102
SWIDTH 468 0
DWIDTH 13 0
BBX 12 13 1 0
BITMAP
C3E0
C7E0
CFF0
CE70
CE30
FE30
FE30
FE30
CE30
CE70
CFF0
C7E0
C3E0
ENDCHAR
STARTCHAR 044F
ENCODING 1103
SWIDTH 468 0
DWIDTH 13 0
BBX 12 13 1 0
BITMAP
3FF0
7FF0
7FF0
F0F0
F0F0
78F0
7FF0
3FF0
3CF0
78F0
70F0
F0F0
E0F0
ENDCHAR
STARTCHAR 0450
ENCODING 1104
SWIDTH 468 0
DWIDTH 13 0
BBX 12 19 1 0
BITMAP
0800
1E00
1F00
0700
0100
0000
1F80
3FE0
7FE0
F0F0
F070
FFF0
FFF0
FFF0
F000
F000
7FE0
3FE0
1FE0
ENDCHAR
STARTCHAR 0451
ENCODING 1105
SWIDTH 468 0
DWIDTH 13 0
BBX 12 19 1 0
BITMAP
30C0
79E0
79E0
39C0
0000
0000
1F80
3FE0
7FE0
F0F0
F070
FFF0
FFF0
FFF0
F000
F000
7FE0
3FE0
1FE0
ENDCHAR
STARTCHAR 0452
ENCODING 1106
SWIDTH 468 0
DWIDTH 13 0
BBX 11 24 1 -5
BITMAP
7800
7800
FF00
FF00
7800
7800
7F80
7FC0
7FE0
79E0
78E0
78E0
78E0
78E0
78E0
78E0
78E0
78E0
78E0
00E0
01E0
0FE0
0FC0
0600
ENDCHAR
STARTCHAR 0453
ENCODING 1107
SWIDTH 468 0
DWIDTH 13 0
BBX 10 19 2 0
BITMAP
0300
0780
0F80
1E00
0800
0000
FFC0
FFC0
FFC0
F000
F000
F000
F000
F000
F000
F000
F000
F000
F000
ENDCHAR
STARTCHAR 0454
ENCODING 1108
SWIDTH 468 0
DWIDTH 13 0
BBX 12 13 1 0
BITMAP
1FF0
3FF0
7FE0
7800
F000
FF80
FF80
FF80
F000
7800
7FF0
3FF0
0FF0
ENDCHAR
STARTCHAR 0455
ENCODING 1109
SWIDTH 468 0
DWIDTH 13 0
BBX 10 13 2 0
BITMAP
3FC0
FFC0
FB80
E000
F000
FE00
7F80
1FC0
03C0
01C0
FFC0
FFC0
FF00
ENDCHAR
STARTCHAR 0456
ENCODING 1110
SWIDTH 468 0
DWIDTH 13 0
BBX 12 19 1 0
BITMAP
1C00
1E00
1E00
1C00
0000
0000
FE00
FE00
FE00
0E00
0E00
0E00
0E00
0E00
0E00
0E00
0FF0
0FF0
07F0
ENDCHAR
STARTCHAR 0457
ENCODING 1111
SWIDTH 468 0
DWIDTH 13 0
BBX 12 19 1 0
BITMAP
3180
7BC0
7BC0
71C0
0000
0000
FE00
FE00
FE00
0E00
0E00
0E00
0E00
0E00
0E00
0E00
0FF0
0FF0
07F0
ENDCHAR
STARTCHAR 0458
ENCODING 1112
SWIDTH 468 0
DWIDTH 13 0
BBX 10 24 1 -5
BITMAP
0380
07C0
07C0
0380
0000
0000
7FC0
7FC0
7FC0
01C0
01C0
01C0
01C0
01C0
01C0
01C0
01C0
01C0
01C0
01C0
73C0
7F80
FF80
1E00
ENDCHAR
STARTCHAR 0459
ENCODING 1113
SWIDTH 468 0
DWIDTH 13 0
BBX 13 13 0 0
BITMAP
3F00
3F00
3B00
3B00
3B00
3BF0
3BF8
3338
3318
3318
F338
F3F8
E3F0
ENDCHAR
STARTCHAR 045A
ENCODING 1114
SWIDTH 468 0
DWIDTH 13 0
BBX 12 13 1 0
BITMAP
E600
E600
E600
E600
E600
FFE0
FFF0
E670
E630
E630
E670
E7F0
E7E0
ENDCHAR
STARTCHAR 045B
ENCODING 1115
SWIDTH 468 0
DWIDTH 13 0
BBX 11 19 1 0
BITMAP
7800
7800
FF00
FF00
7800
7800
7F80
7FC0
7FE0
79E0
78E0
78E0
78E0
78E0
78E0
78E0
78E0
78E0
78E0
ENDCHAR
STARTCHAR 045C
ENCODING 1116
SWIDTH 468 0
DWIDTH 13 0
BBX 11 19 2 0
BITMAP
0200
0F00
1F00
1C00
0000
0000
E1E0
E3C0
E780
EF00
EE00
FC00
FE00
EF00
E780
E780
E3C0
E1E0
E1E0
ENDCHAR
STARTCHAR 045D
ENCODING 1117
SWIDTH 468 0
DWIDTH 13 0
BBX 10 19 2 0
BITMAP
1000
3C00
3E00
0E00
0200
0000
E1C0
E3C0
E3C0
E7C0
EFC0
EFC0
FDC0
FDC0
F9C0
F1C0
F1C0
E1C0
E1C0
ENDCHAR
STARTCHAR 045E
ENCODING 1118
SWIDTH 468 0
DWIDTH 13 0
BBX 12 24 1 -5
BITMAP
30C0
3BC0
3FC0
1F00
0000
0000
F0F0
F0F0
70E0
78E0
78E0
39E0
3DC0
3DC0
1DC0
1F80
0F80
0F00
0700
0F00
9E00
FE00
FC00
F000
ENDCHAR
STARTCHAR 045F
ENCODING 1119
SWIDTH 468 0
DWIDTH 13 0
BBX 10 17 2 -4
BITMAP
E1C0
E1C0
E1C0
E1C0
E1C0
E1C0
E1C0
E1C0
E1C0
E1C0
FFC0
FFC0
FFC0
1E00
1E00
1E00
1E00
ENDCHAR
STARTCHAR 0462
ENCODING 1122
SWIDTH 468 0
DWIDTH 13 0
BBX 13 18 0 0
BITMAP
3C00
FFC0
FFC0
FFC0
3C00
3C00
3C00
3FE0
3FF0
3FF0
3C78
3C78
3C78
3C78
3C78
3FF0
3FF0
3FC0
ENDCHAR
STARTCHAR 0463
ENCODING 1123
SWIDTH 468 0
DWIDTH 13 0
BBX 13 19 0 0
BITMAP
3C00
3C00
3C00
3C00
3C00
3C00
FFC0
FFC0
FFC0
3C00
3F80
3FF0
3FF0
3C78
3C38
3C78
3FF8
3FF0
3FE0
ENDCHAR
STARTCHAR 0472
ENCODING 1138
SWIDTH 468 0
DWIDTH 13 0
BBX 12 18 1 0
BITMAP
0600
1F80
3FC0
7FE0
F0E0
F0F0
E0F0
E070
FEF0
FFF0
F7F0
E070
E0F0
F0F0
F0E0
7FE0
3FC0
1F80
ENDCHAR
STARTCHAR 0473
ENCODING 1139
SWIDTH 468 0
DWIDTH 13 0
BBX 12 13 1 0
BITMAP
1F80
3FC0
7FE0
F0F0
F0F0
FC70
FFF0
E3F0
F0F0
F0F0
7FE0
3FC0
1F80
ENDCHAR
STARTCHAR 0474
ENCODING 1140
SWIDTH 468 0
DWIDTH 13 0
BBX 14 17 0 0
BITMAP
F07C
F07C
70F8
70E0
70E0
78E0
78E0
39C0
39C0
39C0
19C0
1D80
1F80
1F80
0F80
0F00
0F00
ENDCHAR
STARTCHAR 0475
ENCODING 1141
SWIDTH 468 0
DWIDTH 13 0
BBX 13 13 1 0
BITMAP
E0F8
E1F8
F1F8
F1C0
71C0
73C0
7B80
3B80
3F00
3F00
1F00
1E00
0E00
ENDCHAR
STARTCHAR 048A
ENCODING 1162
SWIDTH 468 0
DWIDTH 13 0
BBX 13 28 1 -5
BITMAP
1080
39C0
3FC0
1F80
0000
0000
E0F0
E0F0
E1F0
E1F0
E3F0
E3F0
E770
E770
EE70
EE70
FC70
FC70
F870
F870
F078
F078
E070
0070
0070
00E0
01C0
0040
ENDCHAR
STARTCHAR 048B
ENCODING 1163
SWIDTH 468 0
DWIDTH 13 0
BBX 11 23 2 -4
BITMAP
6180
7780
7F80
3E00
0000
0000
E1C0
E3C0
E3C0
E7C0
EFC0
EFC0
FDC0
FDC0
F9C0
F1C0
F1E0
E1E0
E1E0
00E0
01C0
03C0
0180
ENDCHAR
STARTCHAR 048C
ENCODING 1164
SWIDTH 468 0
DWIDTH 13 0
BBX 13 17 0 0
BITMAP
3800
FE00
FE00
FE00
3800
3800
3FC0
3FF0
3FF0
3878
3878
3878
3878
3878
3FF0
3FF0
3FC0
ENDCHAR
STARTCHAR 048D
ENCODING 1165
SWIDTH 468 0
DWIDTH 13 0
BBX 13 14 0 0
BITMAP
3800
3800
FF80
FF80
3800
3BC0
3FF0
3FF0
3878
3838
3878
3FF8
3FF0
3FE0
ENDCHAR
STARTCHAR 048E
ENCODING 1166
SWIDTH 468 0
DWIDTH 13 0
BBX 12 17 1 0
BITMAP
FFC0
FFE0
FFF0
F0F0
F070
F170
F770
F3F0
FFE0
FFE0
FFE0
F0E0
F070
F040
F000
F000
F000
ENDCHAR
STARTCHAR 048F
ENCODING 1167
SWIDTH 468 0
DWIDTH 13 0
BBX 11 18 2 -5
BITMAP
FF00
FF80
FFC0
E1E0
E1E0
E0E0
E0E0
E0E0
EFE0
E7E0
FFC0
FFC0
FF80
E1C0
E1E0
E080
E000
E000
ENDCHAR
STARTCHAR 0490
ENCODING 1168
SWIDTH 468 0
DWIDTH 13 0
BBX 12 20 1 0
BITMAP
0070
0070
0070
3FF0
3FF0
3FF0
3C00
3C00
3C00
3C00
3C00
3C00
3C00
3C00
3C00
3C00
3C00
FFC0
FFC0
FFC0
ENDCHAR
STARTCHAR 0491
ENCODING 1169
SWIDTH 468 0
DWIDTH 13 0
BBX 10 16 2 0
BITMAP
01C0
01C0
01C0
FFC0
FFC0
FFC0
F000
F000
F000
F000
F000
F000
F000
F000
F000
F000
ENDCHAR
STARTCHAR 0492
ENCODING 1170
SWIDTH 468 0
DWIDTH 13 0
BBX 12 17 1 0
BITMAP
3FF0
3FF0
3FF0
3C00
3C00
3C00
3C00
FFC0
FFC0
FFC0
3C00
3C00
3C00
3C00
FFC0
FFC0
FFC0
ENDCHAR
STARTCHAR 0493
ENCODING 1171
SWIDTH 468 0
DWIDTH 13 0
BBX 12 13 0 0
BITMAP
3FF0
3FF0
3FF0
3C00
3C00
3C00
FF80
FF80
3C00
3C00
3C00
3C00
3C00
ENDCHAR
STARTCHAR 0494
ENCODING 1172
SWIDTH 468 0
DWIDTH 13 0
BBX 12 22 1 -5
BITMAP
FFE0
FFE0
FFE0
F000
F000
F000
FF00
FFC0
FFE0
F0E0
F0F0
F070
F070
F070
F070
F070
F070
00F0
01E0
0FE0
0FC0
0E00
ENDCHAR
STARTCHAR 0495
ENCODING 1173
SWIDTH 468 0
DWIDTH 13 0
BBX 11 18 2 -5
BITMAP
FF80
FF80
FF80
E000
E000
FF00
FF80
FFC0
E1C0
E1E0
E0E0
E0E0
E0E0
01E0
01C0
0FC0
0F80
0C00
ENDCHAR
STARTCHAR 0496
ENCODING 1174
SWIDTH 468 0
DWIDTH 13 0
BBX 14 22 0 -5
BITMAP
E318
7338
7338
3330
3B70
1B60
1FE0
0FC0
0FC0
1B60
3B70
3370
7330
7338
733C
631C
E31C
001C
001C
001C
001C
001C
ENDCHAR
STARTCHAR 0497
ENCODING 1175
SWIDTH 468 0
DWIDTH 13 0
BBX 13 17 1 -4
BITMAP
C670
E670
6660
76E0
36C0
3FC0
3FC0
36C0
76E0
76E0
E678
E678
C678
0038
0038
0038
0038
ENDCHAR
STARTCHAR 0498
ENCODING 1176
SWIDTH 468 0
DWIDTH 13 0
BBX 12 23 1 -5
BITMAP
0400
7FC0
7FE0
7BE0
40F0
00F0
00E0
03E0
1FC0
1FE0
1FF0
00F0
0070
0070
00F0
FFF0
FFE0
7FC0
0600
0700
0300
1F00
0E00
ENDCHAR
STARTCHAR 0499
ENCODING 1177
SWIDTH 468 0
DWIDTH 13 0
BBX 10 18 2 -5
BITMAP
FF00
FF80
FFC0
03C0
03C0
3F80
3F80
3FC0
01C0
01C0
FFC0
FF80
FF00
1C00
0E00
0600
3E00
3800
ENDCHAR
STARTCHAR 049A
ENCODING 1178
SWIDTH 468 0
DWIDTH 13 0
BBX 12 22 1 -5
BITMAP
F1E0
F1E0
F3C0
F380
F780
F700
FE00
FE00
FE00
FF00
F780
F380
F3C0
F1E0
F1F0
F0F0
F0F0
0070
0070
0070
0070
0070
ENDCHAR
STARTCHAR 049B
ENCODING 1179
SWIDTH 468 0
DWIDTH 13 0
BBX 11 17 2 -4
BITMAP
E3C0
E780
E700
EF00
EE00
FC00
FC00
EE00
EF00
E780
E3E0
E3E0
E1E0
01E0
01E0
01E0
01E0
ENDCHAR
STARTCHAR 049C
ENCODING 1180
SWIDTH 468 0
DWIDTH 13 0
BBX 13 17 1 0
BITMAP
E070
E0F0
E0E0
EDE0
EDC0
EDC0
EF80
FF80
FF80
EF80
EFC0
EDC0
ECE0
E0E0
E0F0
E070
E078
ENDCHAR
STARTCHAR 049D
ENCODING 1181
SWIDTH 468 0
DWIDTH 13 0
BBX 12 13 1 0
BITMAP
E070
E0F0
ECE0
EDC0
EFC0
FF80
FF80
EFC0
EDC0
ECE0
E0E0
E070
E070
ENDCHAR
STARTCHAR 049E
ENCODING 1182
SWIDTH 468 0
DWIDTH 13 0
BBX 13 18 1 0
BITMAP
7800
78F0
FCF0
FCE0
79E0
7BC0
7B80
7F80
7F00
7F00
7F80
7B80
7BC0
79E0
78E0
78F0
78F0
7878
ENDCHAR
STARTCHAR 049F
ENCODING 1183
SWIDTH 468 0
DWIDTH 13 0
BBX 13 14 0 0
BITMAP
3800
FE78
FEF0
39E0
39C0
3B80
3F00
3F80
3BC0
39E0
39E0
38F0
3878
3878
ENDCHAR
STARTCHAR 04A0
ENCODING 1184
SWIDTH 468 0
DWIDTH 13 0
BBX 13 17 0 0
BITMAP
FC78
FC78
FCF0
1CF0
1CE0
1DE0
1DC0
1F80
1FC0
1DC0
1DE0
1CE0
1CF0
1C70
1C78
1C78
1C38
ENDCHAR
STARTCHAR 04A1
ENCODING 1185
SWIDTH 468 0
DWIDTH 13 0
BBX 13 13 0 0
BITMAP
FC78
FCF0
FCE0
1DE0
1FC0
1F80
1F80
1DC0
1DE0
1CF0
1CF0
1C78
1C78
ENDCHAR
STARTCHAR 04A2
ENCODING 1186
SWIDTH 468 0
DWIDTH 13 0
BBX 12 22 1 -5
BITMAP
F0E0
F0E0
F0E0
F0E0
F0E0
F0E0
F0E0
FFE0
FFE0
F0E0
F0E0
F0E0
F0E0
F0E0
F0F0
F0F0
F0F0
0070
0070
0070
0070
0070
ENDCHAR
STARTCHAR 04A3
ENCODING 1187
SWIDTH 468 0
DWIDTH 13 0
BBX 11 17 2 -4
BITMAP
E1C0
E1C0
E1C0
E1C0
E1C0
FFC0
FFC0
FFC0
E1C0
E1C0
E1E0
E1E0
E1E0
00E0
00E0
00E0
00E0
ENDCHAR
STARTCHAR 04A4
ENCODING 1188
SWIDTH 468 0
DWIDTH 13 0
BBX 12 17 1 0
BITMAP
F3F0
F3F0
F3F0
F3C0
F3C0
F3C0
F3C0
FFC0
FFC0
F3C0
F3C0
F3C0
F3C0
F3C0
F3C0
F3C0
F3C0
ENDCHAR
STARTCHAR 04A5
ENCODING 1189
SWIDTH 468 0
DWIDTH 13 0
BBX 11 13 2 0
BITMAP
E3E0
E3E0
E3E0
E380
E380
FF80
FF80
FF80
E380
E380
E380
E380
E380
ENDCHAR
STARTCHAR 04A6
ENCODING 1190
SWIDTH 468 0
DWIDTH 13 0
BBX 12 22 1 -5
BITMAP
FE00
FE00
EE00
EE00
EE00
EE00
EFC0
EFE0
EFE0
EE70
EE70
EE70
EE30
EE30
EE30
EE70
EE70
0070
0070
01E0
01E0
0100
ENDCHAR
STARTCHAR 04A7
ENCODING 1191
SWIDTH 468 0
DWIDTH 13 0
BBX 12 18 1 -5
BITMAP
FE00
FE00
FE00
EE00
EE00
EFC0
EFE0
EEF0
EE70
EE70
EE30
EE30
EE70
0070
0070
01E0
01E0
0100
ENDCHAR
STARTCHAR 04A8
ENCODING 1192
SWIDTH 468 0
DWIDTH 13 0
BBX 14 22 0 -5
BITMAP
0180
0FF0
1FF0
3F20
7800
7800
71F0
73F8
73B8
F738
771C
771C
7718
7738
7F38
3FF0
1FF0
0FC0
01C0
01E0
00F0
0070
ENDCHAR
STARTCHAR 04A9
ENCODING 1193
SWIDTH 468 0
DWIDTH 13 0
BBX 14 17 0 -4
BITMAP
0FE0
3FC0
3FC0
7800
70F0
F3F8
F3F8
773C
771C
7738
3F78
1FF0
0FE0
03E0
01F8
0078
0018
ENDCHAR
STARTCHAR 04AA
ENCODING 1194
SWIDTH 468 0
DWIDTH 13 0
BBX 12 23 1 -5
BITMAP
0300
1FF0
3FF0
7EE0
7800
F000
F000
E000
E000
E000
E000
E000
F000
F000
7800
7FF0
3FF0
1FE0
0600
0380
0380
0F80
0E00
ENDCHAR
STARTCHAR 04AB
ENCODING 1195
SWIDTH 468 0
DWIDTH 13 0
BBX 12 18 1 -5
BITMAP
0FF0
3FE0
7FE0
7800
F000
F000
F000
F000
F000
7800
7FF0
3FF0
0FF0
0600
0380
0380
0F80
0E00
ENDCHAR
STARTCHAR 04AC
ENCODING 1196
SWIDTH 468 0
DWIDTH 13 0
BBX 12 22 1 -5
BITMAP
FFF0
FFF0
FFF0
0F00
0F00
0F00
0F00
0F00
0F00
0F00
0F00
0F00
0F00
0F00
0FC0
0FC0
0FC0
03C0
03C0
03C0
03C0
03C0
ENDCHAR
STARTCHAR 04AD
ENCODING 1197
SWIDTH 468 0
DWIDTH 13 0
BBX 12 17 1 -4
BITMAP
FFF0
FFF0
FFF0
0F00
0F00
0F00
0F00
0F00
0F00
0F00
0FC0
0FC0
0FC0
01C0
01C0
01C0
01C0
ENDCHAR
STARTCHAR 04AE
ENCODING 1198
SWIDTH 468 0
DWIDTH 13 0
BBX 12 17 1 0
BITMAP
E070
F0F0
F0F0
70E0
79E0
39C0
3DC0
1F80
1F80
0F00
0F00
0F00
0F00
0F00
0F00
0F00
0F00
ENDCHAR
STARTCHAR 04AF
ENCODING 1199
SWIDTH 468 0
DWIDTH 13 0
BBX 12 18 1 -5
BITMAP
E070
E070
F0F0
F0E0
70E0
79E0
39C0
3BC0
3F80
1F80
1F00
0F00
0F00
0F00
0F00
0F00
0F00
0F00
ENDCHAR
STARTCHAR 04B0
ENCODING 1200
SWIDTH 468 0
DWIDTH 13 0
BBX 12 17 1 0
BITMAP
E070
F0F0
F0F0
70E0
79E0
39C0
3DC0
1F80
1F80
0F00
7FE0
7FE0
0F00
0F00
0F00
0F00
0F00
ENDCHAR
STARTCHAR 04B1
ENCODING 1201
SWIDTH 468 0
DWIDTH 13 0
BBX 12 18 1 -5
BITMAP
E070
E070
F0F0
F0E0
70E0
79E0
39C0
3BC0
3F80
1F80
1F00
7FE0
7FE0
0F00
0F00
0F00
0F00
0F00
ENDCHAR
STARTCHAR 04B2
ENCODING 1202
SWIDTH 468 0
DWIDTH 13 0
BBX 13 22 0 -5
BITMAP
7870
7870
38E0
3CE0
1DC0
1FC0
0F80
0F80
0F80
0FC0
1FC0
1DE0
3CE0
38F0
78F8
7878
F078
0038
0038
0038
0038
0038
ENDCHAR
STARTCHAR 04B3
ENCODING 1203
SWIDTH 468 0
DWIDTH 13 0
BBX 12 17 1 -4
BITMAP
F0E0
71E0
79C0
3B80
1F80
1F00
0F00
1F80
3F80
3BC0
71F0
F1F0
E0F0
0070
0070
0070
0070
ENDCHAR
STARTCHAR 04B4
ENCODING 1204
SWIDTH 468 0
DWIDTH 13 0
BBX 13 22 0 -5
BITMAP
FF70
FF70
FF70
3C70
3C70
3C70
3C70
3C70
3C70
3C70
3C70
3C70
3C70
3C70
3FF8
3FF8
3FF8
0038
0038
0038
0038
0038
ENDCHAR
STARTCHAR 04B5
ENCODING 1205
SWIDTH 468 0
DWIDTH 13 0
BBX 13 17 0 -4
BITMAP
FE70
FE70
FE70
3870
3870
3870
3870
3870
3870
3870
3FF8
3FF8
3FF8
0038
0038
0038
0038
ENDCHAR
STARTCHAR 04B6
ENCODING 1206
SWIDTH 468 0
DWIDTH 13 0
BBX 12 22 1 -5
BITMAP
F0E0
F0E0
F0E0
F0E0
F0E0
F0E0
F0E0
F0E0
7FE0
7FE0
3FE0
00E0
00E0
00E0
00F0
00F0
00F0
0070
0070
0070
0070
0070
ENDCHAR
STARTCHAR 04B7
ENCODING 1207
SWIDTH 468 0
DWIDTH 13 0
BBX 12 17 1 -4
BITMAP
F1E0
F1E0
F1E0
F1E0
F1E0
F1E0
7FE0
7FE0
1FE0
01E0
01F0
01F0
01F0
00F0
00F0
00F0
00F0
ENDCHAR
STARTCHAR 04B8
ENCODING 1208
SWIDTH 468 0
DWIDTH 13 0
BBX 12 17 1 0
BITMAP
E0F0
E0F0
E0F0
E0F0
E0F0
E6F0
E6F0
F6F0
FFF0
7FF0
3FF0
06F0
06F0
06F0
00F0
00F0
00F0
ENDCHAR
STARTCHAR 04B9
ENCODING 1209
SWIDTH 468 0
DWIDTH 13 0
BBX 12 13 1 0
BITMAP
F0F0
F0F0
F0F0
F0F0
F6F0
F6F0
7FF0
7FF0
1FF0
06F0
06F0
00F0
00F0
ENDCHAR
STARTCHAR 04BA
ENCODING 1210
SWIDTH 468 0
DWIDTH 13 0
BBX 12 17 1 0
BITMAP
F000
F000
F000
F000
F000
FE00
FFC0
FFE0
FBE0
F0F0
F0F0
F0F0
F0F0
F0F0
F0F0
F0F0
F0F0
ENDCHAR
STARTCHAR 04BB
ENCODING 1211
SWIDTH 468 0
DWIDTH 13 0
BBX 10 19 2 0
BITMAP
E000
E000
E000
E000
E000
E000
FF00
FF80
FFC0
E3C0
E1C0
E1C0
E1C0
E1C0
E1C0
E1C0
E1C0
E1C0
E1C0
ENDCHAR
STARTCHAR 04BC
ENCODING 1212
SWIDTH 468 0
DWIDTH 13 0
BBX 13 17 0 1
BITMAP
03E0
07F0
0738
8638
EE38
EE18
EE18
7FF8
3FF8
0E00
0E00
0E00
0600
0700
07D8
03F8
01F8
ENDCHAR
STARTCHAR 04BD
ENCODING 1213
SWIDTH 468 0
DWIDTH 13 0
BBX 13 13 0 0
BITMAP
03E0
07F0
E770
EE38
EE38
7FF8
3FF8
0FF8
0E00
0E00
0FB0
07F0
03F0
ENDCHAR
STARTCHAR 04BE
ENCODING 1214
SWIDTH 468 0
DWIDTH 13 0
BBX 13 21 0 -3
BITMAP
03E0
07F0
0738
8638
EE38
EE18
EE18
7FF8
3FF8
0E00
0E00
0E00
0600
0700
07D8
03F8
01F8
00E0
00E0
00E0
00E0
ENDCHAR
STARTCHAR 04BF
ENCODING 1215
SWIDTH 468 0
DWIDTH 13 0
BBX 13 17 0 -4
BITMAP
03E0
07F0
E770
EE38
EE38
7FF8
3FF8
0FF8
0E00
0E00
07B0
07F0
03F0
01C0
01C0
01C0
01C0
ENDCHAR
STARTCHAR 04C0
ENCODING 1216
SWIDTH 468 0
DWIDTH 13 0
BBX 11 17 1 0
BITMAP
FFE0
FFE0
FFE0
0F00
0F00
0F00
0F00
0F00
0F00
0F00
0F00
0F00
0F00
0F00
FFE0
FFE0
FFE0
ENDCHAR
STARTCHAR 04C1
ENCODING 1217
SWIDTH 468 0
DWIDTH 13 0
BBX 14 23 0 0
BITMAP
0840
1CE0
1FE0
0FC0
0000
0000
E318
7338
7338
3330
3B70
1B60
1FE0
0FC0
0FC0
1B60
3B70
3370
7330
7338
7338
6318
E31C
ENDCHAR
STARTCHAR 04C2
ENCODING 1218
SWIDTH 468 0
DWIDTH 13 0
BBX 12 19 1 0
BITMAP
30C0
3BC0
3FC0
1F00
0000
0000
C670
E670
6660
76E0
36C0
3FC0
3FC0
36C0
76E0
76E0
E660
E670
C670
ENDCHAR
STARTCHAR 04C3
ENCODING 1219
SWIDTH 468 0
DWIDTH 13 0
BBX 12 22 1 -5
BITMAP
F0F0
F0F0
F1E0
F3C0
F780
FF00
FE00
FF00
FFC0
FFE0
F0F0
F070
F070
F070
F070
F070
F070
00F0
01E0
0FE0
0FC0
0F00
ENDCHAR
STARTCHAR 04C4
ENCODING 1220
SWIDTH 468 0
DWIDTH 13 0
BBX 11 18 2 -5
BITMAP
E1E0
E3C0
E780
EF00
FE00
FF00
FFC0
FFC0
E1E0
E0E0
E0E0
E0E0
E0E0
01E0
03C0
0FC0
0F80
0C00
ENDCHAR
STARTCHAR 04C5
ENCODING 1221
SWIDTH 468 0
DWIDTH 13 0
BBX 13 21 0 -5
BITMAP
0FF0
0FF0
0FF0
0E70
0E70
0E70
0E70
0E70
0E70
1E70
1E70
1C70
1C70
3C70
F878
F078
6078
0038
0070
00F0
00E0
ENDCHAR
STARTCHAR 04C6
ENCODING 1222
SWIDTH 468 0
DWIDTH 13 0
BBX 13 17 0 -4
BITMAP
0FF0
0FF0
0FF0
0E70
0E70
1E70
1C70
1C70
1C70
3C70
F878
7878
7078
0038
0070
00E0
0060
ENDCHAR
STARTCHAR 04C7
ENCODING 1223
SWIDTH 468 0
DWIDTH 13 0
BBX 12 22 1 -5
BITMAP
F0F0
F0F0
F0F0
F0F0
F0F0
F0F0
F0F0
FFF0
FFF0
F0F0
F0F0
F0F0
F0F0
F0F0
F0F0
F0F0
F0F0
00F0
01E0
07E0
07C0
0200
ENDCHAR
STARTCHAR 04C8
ENCODING 1224
SWIDTH 468 0
DWIDTH 13 0
BBX 10 18 2 -5
BITMAP
E1C0
E1C0
E1C0
E1C0
E1C0
FFC0
FFC0
FFC0
E1C0
E1C0
E1C0
E1C0
E1C0
01C0
13C0
1FC0
1F80
0E00
ENDCHAR
STARTCHAR 04C9
ENCODING 1225
SWIDTH 468 0
DWIDTH 13 0
BBX 12 21 1 -5
BITMAP
F0E0
F0E0
F0E0
F0E0
F0E0
F0E0
F0E0
FFE0
FFE0
F0E0
F0E0
F0E0
F0E0
F0E0
F0F0
F0F0
F0F0
0070
00E0
01E0
01C0
ENDCHAR
STARTCHAR 04CA
ENCODING 1226
SWIDTH 468 0
DWIDTH 13 0
BBX 11 17 2 -4
BITMAP
E1C0
E1C0
E1C0
E1C0
E1C0
FFC0
FFC0
FFC0
E1C0
E1C0
E1E0
E1E0
E1E0
00E0
01C0
0380
0180
ENDCHAR
STARTCHAR 04CB
ENCODING 1227
SWIDTH 468 0
DWIDTH 13 0
BBX 12 22 1 -5
BITMAP
F0F0
F0F0
F0F0
F0F0
F0F0
F0F0
F0F0
F0F0
7FF0
7FF0
3FF0
00F0
00F0
00F0
03F0
03F0
03F0
03C0
03C0
03C0
03C0
03C0
ENDCHAR
STARTCHAR 04CC
ENCODING 1228
SWIDTH 468 0
DWIDTH 13 0
BBX 11 17 1 -4
BITMAP
F0E0
F0E0
F0E0
F0E0
F0E0
F8E0
7FE0
7FE0
1FE0
00E0
07E0
07E0
07E0
0700
0700
0700
0700
ENDCHAR
STARTCHAR 04CD
ENCODING 1229
SWIDTH 468 0
DWIDTH 13 0
BBX 13 22 1 -5
BITMAP
70E0
F1E0
F1E0
F9E0
F9E0
FB60
FB60
EF60
EF60
EE60
EE70
E070
E070
E070
E078
E078
E070
0070
0070
00E0
01C0
0040
ENDCHAR
STARTCHAR 04CE
ENCODING 1230
SWIDTH 468 0
DWIDTH 13 0
BBX 13 17 1 -4
BITMAP
70E0
F1E0
F1E0
F9E0
F9E0
FB60
FB60
EB60
EF70
EE70
EE78
E078
E070
0070
00F0
00E0
0040
ENDCHAR
STARTCHAR 04CF
ENCODING 1231
SWIDTH 468 0
DWIDTH 13 0
BBX 11 17 1 0
BITMAP
FFE0
FFE0
FFE0
0F00
0F00
0F00
0F00
0F00
0F00
0F00
0F00
0F00
0F00
0F00
FFE0
FFE0
FFE0
ENDCHAR
STARTCHAR 04D0
ENCODING 1232
SWIDTH 468 0
DWIDTH 13 0
BBX 14 23 0 0
BITMAP
0840
1CE0
1FE0
0FC0
0000
0000
0780
0780
0FC0
0FC0
0FC0
1CE0
1CE0
1CE0
3CE0
38F0
3FF0
3FF0
7FF8
7078
7078
7038
F03C
ENDCHAR
STARTCHAR 04D1
ENCODING 1233
SWIDTH 468 0
DWIDTH 13 0
BBX 11 19 1 0
BITMAP
30C0
3BC0
3FC0
1F00
0000
0000
7F80
3FC0
3FE0
00E0
00E0
1FE0
7FE0
F8E0
F0E0
F0E0
FCE0
7FE0
3FE0
ENDCHAR
STARTCHAR 04D2
ENCODING 1234
SWIDTH 468 0
DWIDTH 13 0
BBX 14 23 0 0
BITMAP
0840
3CE0
3CF0
1CE0
0000
0000
0780
0780
0FC0
0FC0
0FC0
1CE0
1CE0
1CE0
3CE0
38F0
3FF0
3FF0
7FF8
7078
7078
7038
F03C
ENDCHAR
STARTCHAR 04D3
ENCODING 1235
SWIDTH 468 0
DWIDTH 13 0
BBX 11 19 1 0
BITMAP
30C0
79E0
79E0
39C0
0000
0000
7F80
3FC0
3FE0
00E0
00E0
1FE0
7FE0
F8E0
F0E0
F0E0
FCE0
7FE0
3FE0
ENDCHAR
STARTCHAR 04D4
ENCODING 1236
SWIDTH 468 0
DWIDTH 13 0
BBX 14 17 0 0
BITMAP
07F8
07F8
0FF8
0FC0
0FC0
1DC0
1DF8
1DF8
1DF8
39C0
3FC0
3FC0
7FC0
71C0
71FC
71FC
F1FC
ENDCHAR
STARTCHAR 04D5
ENCODING 1237
SWIDTH 468 0
DWIDTH 13 0
BBX 13 13 1 0
BITMAP
7DE0
7FF0
4F70
0730
0730
7FF8
FFF8
E7F8
C700
C700
FFF0
FFF0
7DF0
ENDCHAR
STARTCHAR 04D6
ENCODING 1238
SWIDTH 468 0
DWIDTH 13 0
BBX 11 23 2 0
BITMAP
3180
39C0
3F80
1F00
0000
0000
FFC0
FFC0
FFC0
E000
E000
E000
FF80
FF80
FF80
E000
E000
E000
E000
E000
FFE0
FFE0
FFE0
ENDCHAR
STARTCHAR 04D7
ENCODING 1239
SWIDTH 468 0
DWIDTH 13 0
BBX 12 19 1 0
BITMAP
38C0
3DC0
1FC0
0F80
0000
0000
1F80
3FE0
7FE0
F0F0
F070
FFF0
FFF0
FFF0
F000
F000
7FE0
3FE0
1FE0
ENDCHAR
STARTCHAR 04D8
ENCODING 1240
SWIDTH 468 0
DWIDTH 13 0
BBX 12 18 1 0
BITMAP
1800
FF80
7FC0
67E0
01E0
00E0
0070
0070
FFF0
FFF0
FFF0
E070
E070
E0F0
F0E0
7BE0
3FC0
1F80
ENDCHAR
STARTCHAR 04D9
ENCODING 1241
SWIDTH 468 0
DWIDTH 13 0
BBX 12 13 1 0
BITMAP
7F80
7FC0
7FE0
00E0
00F0
FFF0
FFF0
FFF0
E0F0
F0E0
7FE0
7FC0
3F80
ENDCHAR
STARTCHAR 04DA
ENCODING 1242
SWIDTH 468 0
DWIDTH 13 0
BBX 12 23 1 0
BITMAP
2080
71C0
7BC0
71C0
0000
1800
FF80
7FC0
67E0
01E0
00E0
0070
0070
FFF0
FFF0
FFF0
E070
E070
E0F0
F0E0
7BE0
3FC0
1F80
ENDCHAR
STARTCHAR 04DB
ENCODING 1243
SWIDTH 468 0
DWIDTH 13 0
BBX 12 19 1 0
BITMAP
3080
79C0
79C0
31C0
0000
0000
7F80
7FC0
7FE0
00E0
00F0
FFF0
FFF0
FFF0
E0F0
F0E0
7FE0
7FC0
3F80
ENDCHAR
STARTCHAR 04DC
ENCODING 1244
SWIDTH 468 0
DWIDTH 13 0
BBX 14 23 0 0
BITMAP
0840
3CE0
3CF0
1CE0
0000
0000
E318
7338
7338
3330
3B70
1B60
1FE0
0FC0
0FC0
1B60
3B70
3370
7330
7338
7338
6318
E31C
ENDCHAR
STARTCHAR 04DD
ENCODING 1245
SWIDTH 468 0
DWIDTH 13 0
BBX 12 19 1 0
BITMAP
30C0
79E0
79E0
39C0
0000
0000
C670
E670
6660
76E0
36C0
3FC0
3FC0
36C0
76E0
76E0
E660
E670
C670
ENDCHAR
STARTCHAR 04DE
ENCODING 1246
SWIDTH 468 0
DWIDTH 13 0
BBX 12 23 1 0
BITMAP
1080
79C0
79E0
39C0
0000
0400
7FC0
7FE0
7BE0
40F0
00F0
00E0
03E0
1FC0
1FE0
1FF0
00F0
0070
0070
00F0
FFF0
FFE0
7FC0
ENDCHAR
STARTCHAR 04DF
ENCODING 1247
SWIDTH 468 0
DWIDTH 13 0
BBX 10 19 2 0
BITMAP
6100
F380
F380
6380
0000
0000
FF00
FF80
FFC0
03C0
03C0
3F80
3F80
3FC0
01C0
01C0
FFC0
FF80
FF00
ENDCHAR
STARTCHAR 04E0
ENCODING 1248
SWIDTH 468 0
DWIDTH 13 0
BBX 12 17 1 0
BITMAP
FFF0
FFF0
FFE0
01E0
03C0
0780
0F00
0F80
0FE0
03F0
00F0
0070
0070
00F0
FFF0
FFE0
7FC0
ENDCHAR
STARTCHAR 04E1
ENCODING 1249
SWIDTH 468 0
DWIDTH 13 0
BBX 11 18 1 -5
BITMAP
FFE0
FFE0
FFE0
03C0
0380
0700
0E00
1F00
1FC0
03E0
01E0
00E0
00E0
01E0
E3E0
FFC0
FF80
1800
ENDCHAR
STARTCHAR 04E2
ENCODING 1250
SWIDTH 468 0
DWIDTH 13 0
BBX 12 22 1 0
BITMAP
3FC0
3FC0
3FC0
0000
0000
E0F0
E0F0
E1F0
E1F0
E3F0
E3F0
E770
E770
EE70
EC70
FC70
F870
F870
F870
F070
F070
E070
ENDCHAR
STARTCHAR 04E3
ENCODING 1251
SWIDTH 468 0
DWIDTH 13 0
BBX 10 18 2 0
BITMAP
7F80
7F80
0000
0000
0000
E1C0
E3C0
E3C0
E7C0
EFC0
EFC0
FDC0
FDC0
F9C0
F1C0
F1C0
E1C0
E1C0
ENDCHAR
STARTCHAR 04E4
ENCODING 1252
SWIDTH 468 0
DWIDTH 13 0
BBX 12 23 1 0
BITMAP
1080
79C0
79E0
39C0
0000
0000
E0F0
E0F0
E1F0
E1F0
E3F0
E3F0
E770
E770
EE70
EC70
FC70
F870
F870
F870
F070
F070
E070
ENDCHAR
STARTCHAR 04E5
ENCODING 1253
SWIDTH 468 0
DWIDTH 13 0
BBX 10 19 2 0
BITMAP
6180
F3C0
F3C0
7380
0000
0000
E1C0
E3C0
E3C0
E7C0
EFC0
EFC0
FDC0
FDC0
F9C0
F1C0
F1C0
E1C0
E1C0
ENDCHAR
STARTCHAR 04E6
ENCODING 1254
SWIDTH 468 0
DWIDTH 13 0
BBX 12 23 1 0
BITMAP
1080
79C0
79E0
39C0
0000
0600
1F80
3FC0
7FE0
F0E0
F0F0
E0F0
E070
E070
E070
E070
E070
E0F0
F0F0
F0E0
7FE0
3FC0
1F80
ENDCHAR
STARTCHAR 04E7
ENCODING 1255
SWIDTH 468 0
DWIDTH 13 0
BBX 12 19 1 0
BITMAP
30C0
79E0
79E0
39C0
0000
0000
1F80
3FC0
7FE0
F0F0
F0F0
E070
E070
E070
F0F0
F0F0
7FE0
3FC0
1F80
ENDCHAR
STARTCHAR 04E8
ENCODING 1256
SWIDTH 468 0
DWIDTH 13 0
BBX 12 18 1 0
BITMAP
0600
1F80
3FC0
7FE0
F0E0
F0F0
E0F0
E070
FFF0
FFF0
FFF0
E070
E0F0
F0F0
F0E0
7FE0
3FC0
1F80
ENDCHAR
STARTCHAR 04E9
ENCODING 1257
SWIDTH 468 0
DWIDTH 13 0
BBX 12 13 1 0
BITMAP
1F80
3FC0
7FE0
F0F0
F0F0
FFF0
FFF0
FFF0
F0F0
F0F0
7FE0
3FC0
1F80
ENDCHAR
STARTCHAR 04EA
ENCODING 1258
SWIDTH 468 0
DWIDTH 13 0
BBX 12 23 1 0
BITMAP
1080
79C0
79E0
39C0
0000
0600
1F80
3FC0
7FE0
F0E0
F0F0
E0F0
E070
FFF0
FFF0
FFF0
E070
E0F0
F0F0
F0E0
7FE0
3FC0
1F80
ENDCHAR
STARTCHAR 04EB
ENCODING 1259
SWIDTH 468 0
DWIDTH 13 0
BBX 12 19 1 0
BITMAP
30C0
79E0
79E0
39C0
0000
0000
1F80
3FC0
7FE0
F0F0
F0F0
FFF0
FFF0
FFF0
F0F0
F0F0
7FE0
3FC0
1F80
ENDCHAR
STARTCHAR 04EC
ENCODING 1260
SWIDTH 468 0
DWIDTH 13 0
BBX 12 23 1 0
BITMAP
3080
79C0
79C0
79C0
0000
0C00
7F80
7FC0
73E0
00F0
00F0
0070
0070
1FF0
1FF0
1FF0
0070
0070
00F0
01E0
7FE0
FFC0
7F80
ENDCHAR
STARTCHAR 04ED
ENCODING 1261
SWIDTH 468 0
DWIDTH 13 0
BBX 12 19 1 0
BITMAP
3080
79C0
79C0
31C0
0000
0000
FF00
FFC0
7FE0
01E0
00F0
1FF0
1FF0
1FF0
00E0
01E0
FFE0
FFC0
FF00
ENDCHAR
STARTCHAR 04EE
ENCODING 1262
SWIDTH 468 0
DWIDTH 13 0
BBX 13 22 0 0
BITMAP
1FE0
1FE0
1FE0
0000
0000
F038
7878
7878
3878
3CF0
1CF0
1EF0
0EE0
0FE0
07C0
03C0
03C0
0380
0780
7F00
7F00
7E00
ENDCHAR
STARTCHAR 04EF
ENCODING 1263
SWIDTH 468 0
DWIDTH 13 0
BBX 12 23 1 -5
BITMAP
3FC0
3FC0
0000
0000
0000
F0F0
F0F0
70E0
78E0
78E0
39E0
3DC0
3DC0
1DC0
1F80
0F80
0F00
0700
0F00
9E00
FE00
FC00
F000
ENDCHAR
STARTCHAR 04F0
ENCODING 1264
SWIDTH 468 0
DWIDTH 13 0
BBX 13 23 0 0
BITMAP
0840
3CE0
3CF0
1CE0
0000
0000
F038
7878
7878
3878
3CF0
1CF0
1EF0
0EE0
0FE0
07C0
03C0
03C0
0380
0780
7F00
7F00
7E00
ENDCHAR
STARTCHAR 04F1
ENCODING 1265
SWIDTH 468 0
DWIDTH 13 0
BBX 12 24 1 -5
BITMAP
10C0
39E0
39E0
38C0
0000
0000
F0F0
F0F0
70E0
78E0
78E0
39E0
3DC0
3DC0
1DC0
1F80
0F80
0F00
0700
0F00
9E00
FE00
FC00
F000
ENDCHAR
STARTCHAR 04F2
ENCODING 1266
SWIDTH 468 0
DWIDTH 13 0
BBX 13 23 0 0
BITMAP
0210
0738
0E70
1CE0
0840
0000
F038
7878
7878
3878
3CF0
1CF0
1EF0
0EE0
0FE0
07C0
03C0
03C0
0380
0780
7F00
7F00
7E00
ENDCHAR
STARTCHAR 04F3
ENCODING 1267
SWIDTH 468 0
DWIDTH 13 0
BBX 12 24 1 -5
BITMAP
0420
0E70
1CE0
39C0
1080
0000
F0F0
F0F0
70E0
78E0
78E0
39E0
3DC0
3DC0
1DC0
1F80
0F80
0F00
0700
0F00
9E00
FE00
FC00
F000
ENDCHAR
STARTCHAR 04F4
ENCODING 1268
SWIDTH 468 0
DWIDTH 13 0
BBX 12 23 1 0
BITMAP
1080
79C0
79E0
39C0
0000
0000
F0F0
F0F0
F0F0
F0F0
F0F0
F0F0
F0F0
F0F0
7FF0
7FF0
3FF0
00F0
00F0
00F0
00F0
00F0
00F0
ENDCHAR
STARTCHAR 04F5
ENCODING 1269
SWIDTH 468 0
DWIDTH 13 0
BBX 11 19 1 0
BITMAP
30C0
79E0
79E0
39C0
0000
0000
F0E0
F0E0
F0E0
F0E0
F0E0
F8E0
7FE0
7FE0
1FE0
00E0
00E0
00E0
00E0
ENDCHAR
STARTCHAR 04F6
ENCODING 1270
SWIDTH 468 0
DWIDTH 13 0
BBX 12 21 1 -4
BITMAP
3FF0
3FF0
3FF0
3C00
3C00
3C00
3C00
3C00
3C00
3C00
3C00
3C00
3C00
3C00
FFC0
FFC0
FFC0
03C0
03C0
03C0
03C0
ENDCHAR
STARTCHAR 04F7
ENCODING 1271
SWIDTH 468 0
DWIDTH 13 0
BBX 10 17 2 -4
BITMAP
FFC0
FFC0
FFC0
F000
F000
F000
F000
F000
F000
F000
FC00
FC00
FC00
1C00
1C00
1C00
1C00
ENDCHAR
STARTCHAR 04F8
ENCODING 1272
SWIDTH 468 0
DWIDTH 13 0
BBX 12 23 1 0
BITMAP
1080
79C0
79E0
39C0
0000
0000
E070
E070
E070
E070
E070
E070
FC70
FE70
EF70
E770
E770
E770
E770
E770
FF70
FE70
FC70
ENDCHAR
STARTCHAR 04F9
ENCODING 1273
SWIDTH 468 0
DWIDTH 13 0
BBX 12 19 1 0
BITMAP
30C0
79E0
79E0
39C0
0000
0000
E070
E070
E070
E070
F870
FE70
FF70
E770
E770
E770
EF70
FE70
FE70
ENDCHAR
STARTCHAR 1E80
ENCODING 7808
SWIDTH 468 0
DWIDTH 13 0
BBX 12 23 1 0
BITMAP
0800
1C00
1F00
0F00
0100
0000
E070
E070
E070
E070
E070
E070
E670
EF70
EF70
EF70
FF70
F9F0
F9F0
F9F0
F0E0
F0E0
70E0
ENDCHAR
STARTCHAR 1E81
ENCODING 7809
SWIDTH 468 0
DWIDTH 13 0
BBX 14 19 0 0
BITMAP
0400
0F00
0F80
0380
0080
0000
E01C
E018
6018
6318
67B8
67B8
77B8
77B8
7DF8
7CF0
3CF0
38F0
3870
ENDCHAR
STARTCHAR 1E82
ENCODING 7810
SWIDTH 468 0
DWIDTH 13 0
BBX 12 23 1 0
BITMAP
0100
0780
0F80
0E00
0800
0000
E070
E070
E070
E070
E070
E070
E670
EF70
EF70
EF70
FF70
F9F0
F9F0
F9F0
F0E0
F0E0
70E0
ENDCHAR
STARTCHAR 1E83
ENCODING 7811
SWIDTH 468 0
DWIDTH 13 0
BBX 14 19 0 0
BITMAP
0080
03C0
07C0
0700
0400
0000
E01C
E018
6018
6318
67B8
67B8
77B8
77B8
7DF8
7CF0
3CF0
38F0
3870
ENDCHAR
STARTCHAR 1E84
ENCODING 7812
SWIDTH 468 0
DWIDTH 13 0
BBX 12 23 1 0
BITMAP
1080
79C0
79E0
39C0
0000
0000
E070
E070
E070
E070
E070
E070
E670
EF70
EF70
EF70
FF70
F9F0
F9F0
F9F0
F0E0
F0E0
70E0
ENDCHAR
STARTCHAR 1E85
ENCODING 7813
SWIDTH 468 0
DWIDTH 13 0
BBX 14 19 0 0
BITMAP
1860
3CF0
3CF0
1CE0
0000
0000
E01C
E018
6018
6318
67B8
67B8
77B8
77B8
7DF8
7CF0
3CF0
38F0
3870
ENDCHAR
STARTCHAR 1EF2
ENCODING 7922
SWIDTH 468 0
DWIDTH 13 0
BBX 12 23 1 0
BITMAP
0800
1C00
3F00
0F00
0200
0000
E070
F0F0
F0F0
70E0
79E0
39C0
3DC0
1F80
1F80
0F00
0F00
0F00
0F00
0F00
0F00
0F00
0F00
ENDCHAR
STARTCHAR 1EF3
ENCODING 7923
SWIDTH 468 0
DWIDTH 13 0
BBX 12 24 1 -5
BITMAP
0800
1E00
1F00
0700
0100
0000
F0F0
F0F0
70E0
78E0
78E0
39E0
3DC0
3DC0
1DC0
1F80
0F80
0F00
0700
0F00
9E00
FE00
FC00
F000
ENDCHAR
STARTCHAR 1F00
ENCODING 7936
SWIDTH 468 0
DWIDTH 13 0
BBX 12 21 1 0
BITMAP
0200
0700
0700
0700
0600
0C00
0000
0000
1FE0
3FE0
7FE0
70E0
F0E0
F0E0
F0E0
F0E0
F0E0
F0E0
7FF0
7FF0
1F70
ENDCHAR
STARTCHAR 1F01
ENCODING 7937
SWIDTH 468 0
DWIDTH 13 0
BBX 12 21 1 0
BITMAP
0400
0E00
0E00
0C00
0600
0300
0000
0000
1FE0
3FE0
7FE0
70E0
F0E0
F0E0
F0E0
F0E0
F0E0
F0E0
7FF0
7FF0
1F70
ENDCHAR
STARTCHAR 1F02
ENCODING 7938
SWIDTH 468 0
DWIDTH 13 0
BBX 12 21 1 0
BITMAP
1000
3980
39C0
18E0
38E0
7060
0000
0000
1FE0
3FE0
7FE0
70E0
F0E0
F0E0
F0E0
F0E0
F0E0
F0E0
7FF0
7FF0
1F70
ENDCHAR
STARTCHAR 1F03
ENCODING 7939
SWIDTH 468 0
DWIDTH 13 0
BBX 12 20 1 1
BITMAP
7B00
7B80
71C0
30C0
18C0
0000
0000
1FE0
3FE0
7FE0
70E0
F0E0
F0E0
F0E0
F0E0
F0E0
F0E0
7FF0
7FF0
1F70
ENDCHAR
STARTCHAR 1F04
ENCODING 7940
SWIDTH 468 0
DWIDTH 13 0
BBX 12 21 1 0
BITMAP
1000
3CE0
3CE0
1DC0
1B80
3300
0000
0000
1FE0
3FE0
7FE0
70E0
F0E0
F0E0
F0E0
F0E0
F0E0
F0E0
7FF0
7FF0
1F70
ENDCHAR
STARTCHAR 1F05
ENCODING 7941
SWIDTH 468 0
DWIDTH 13 0
BBX 12 21 1 0
BITMAP
1000
3860
78E0
31C0
3980
1D80
0800
0000
1FE0
3FE0
7FE0
70E0
F0E0
F0E0
F0E0
F0E0
F0E0
F0E0
7FF0
7FF0
1F70
ENDCHAR
STARTCHAR 1F06
ENCODING 7942
SWIDTH 468 0
DWIDTH 13 0
BBX 12 23 1 0
BITMAP
0F00
1F80
39C0
30C0
0600
0E00
0600
0C00
0000
0000
1FE0
3FE0
7FE0
70E0
F0E0
F0E0
F0E0
F0E0
F0E0
F0E0
7FF0
7FF0
1F70
ENDCHAR
STARTCHAR 1F07
ENCODING 7943
SWIDTH 468 0
DWIDTH 13 0
BBX 12 23 1 0
BITMAP
0F00
1F80
39C0
30C0
0600
0E00
0600
0300
0000
0000
1FE0
3FE0
7FE0
70E0
F0E0
F0E0
F0E0
F0E0
F0E0
F0E0
7FF0
7FF0
1F70
ENDCHAR
STARTCHAR 1F08
ENCODING 7944
SWIDTH 468 0
DWIDTH 13 0
BBX 15 18 -1 0
BITMAP
2000
73C0
73C0
37E0
67E0
C7E0
0E70
0E70
0E70
1E70
1C78
1FF8
1FF8
3FFC
383C
383C
381C
781E
ENDCHAR
STARTCHAR 1F09
ENCODING 7945
SWIDTH 468 0
DWIDTH 13 0
BBX 15 18 -1 0
BITMAP
4000
E3C0
E3C0
C7E0
67E0
37E0
0E70
0E70
0E70
1E70
1C78
1FF8
1FF8
3FFC
383C
383C
381C
781E
ENDCHAR
STARTCHAR 1F0A
ENCODING 7946
SWIDTH 468 0
DWIDTH 13 0
BBX 21 18 -7 0
BITMAP
200000
770F00
770F00
339F80
61DF80
C09F80
0039C0
0039C0
0039C0
0079C0
0071E0
007FE0
007FE0
00FFF0
00E0F0
00E0F0
00E070
01E078
ENDCHAR
STARTCHAR 1F0B
ENCODING 7947
SWIDTH 468 0
DWIDTH 13 0
BBX 20 18 -6 0
BITMAP
400000
EE1E00
EE1E00
C73F00
E3BF00
713F00
007380
007380
007380
00F380
00E3C0
00FFC0
00FFC0
01FFE0
01C1E0
01C1E0
01C0E0
03C0F0
ENDCHAR
STARTCHAR 1F0C
ENCODING 7948
SWIDTH 468 0
DWIDTH 13 0
BBX 19 18 -5 0
BITMAP
600000
E33C00
F73C00
677E00
EE7E00
CC7E00
00E700
00E700
00E700
01E700
01C780
01FF80
01FF80
03FFC0
0383C0
0383C0
0381C0
0781E0
ENDCHAR
STARTCHAR 1F0D
ENCODING 7949
SWIDTH 468 0
DWIDTH 13 0
BBX 20 18 -6 0
BITMAP
400000
E19E00
E39E00
C3BF00
673F00
363F00
007380
007380
007380
00F380
00E3C0
00FFC0
00FFC0
01FFE0
01C1E0
01C1E0
01C0E0
03C0F0
ENDCHAR
STARTCHAR 1F0E
ENCODING 7950
SWIDTH 468 0
DWIDTH 13 0
BBX 18 20 -4 0
BITMAP
3C0000
7E0000
E70000
C37800
187800
1CFC00
18FC00
30FC00
01CE00
01CE00
01CE00
03CE00
038F00
03FF00
03FF00
07FF80
070780
070780
070380
0F03C0
ENDCHAR
STARTCHAR 1F0F
ENCODING 7951
SWIDTH 468 0
DWIDTH 13 0
BBX 18 20 -4 0
BITMAP
3C0000
7E0000
E70000
C37800
187800
1CFC00
18FC00
0CFC00
01CE00
01CE00
01CE00
03CE00
038F00
03FF00
03FF00
07FF80
070780
070780
070380
0F03C0
ENDCHAR
STARTCHAR 1F10
ENCODING 7952
SWIDTH 468 0
DWIDTH 13 0
BBX 10 21 2 0
BITMAP
0400
0F00
0F00
0600
0E00
1C00
0000
0000
3FC0
7FC0
FFC0
F000
F000
7F00
7F00
FF00
E000
E000
FFC0
FFC0
7FC0
ENDCHAR
STARTCHAR 1F11
ENCODING 7953
SWIDTH 468 0
DWIDTH 13 0
BBX 10 21 2 0
BITMAP
0800
1C00
1C00
1800
0C00
0600
0000
0000
3FC0
7FC0
FFC0
F000
F000
7F00
7F00
FF00
E000
E000
FFC0
FFC0
7FC0
ENDCHAR
STARTCHAR 1F12
ENCODING 7954
SWIDTH 468 0
DWIDTH 13 0
BBX 10 21 2 0
BITMAP
2000
7300
7380
31C0
71C0
E0C0
0000
0000
3FC0
7FC0
FFC0
F000
F000
7F00
7F00
FF00
E000
E000
FFC0
FFC0
7FC0
ENDCHAR
STARTCHAR 1F13
ENCODING 7955
SWIDTH 468 0
DWIDTH 13 0
BBX 10 20 2 1
BITMAP
F600
F700
E380
6180
3180
0000
0000
3FC0
7FC0
FFC0
F000
F000
7F00
7F00
FF00
E000
E000
FFC0
FFC0
7FC0
ENDCHAR
STARTCHAR 1F14
ENCODING 7956
SWIDTH 468 0
DWIDTH 13 0
BBX 10 21 2 0
BITMAP
2000
79C0
79C0
3B80
3700
6600
0000
0000
3FC0
7FC0
FFC0
F000
F000
7F00
7F00
FF00
E000
E000
FFC0
FFC0
7FC0
ENDCHAR
STARTCHAR 1F15
ENCODING 7957
SWIDTH 468 0
DWIDTH 13 0
BBX 10 21 2 0
BITMAP
2000
70C0
F1C0
6380
7300
3B00
1000
0000
3FC0
7FC0
FFC0
F000
F000
7F00
7F00
FF00
E000
E000
FFC0
FFC0
7FC0
ENDCHAR
STARTCHAR 1F18
ENCODING 7960
SWIDTH 468 0
DWIDTH 13 0
BBX 17 18 -4 0
BITMAP
200000
73FF00
73FF00
33FF00
638000
C38000
038000
03FE00
03FE00
03FE00
038000
038000
038000
038000
038000
03FF80
03FF80
03FF80
ENDCHAR
STARTCHAR 1F19
ENCODING 7961
SWIDTH 468 0
DWIDTH 13 0
BBX 17 18 -4 0
BITMAP
600000
F3FF00
F3FF00
63FF00
738000
3B8000
038000
03FE00
03FE00
03FE00
038000
038000
038000
038000
038000
03FF80
03FF80
03FF80
ENDCHAR
STARTCHAR 1F1A
ENCODING 7962
SWIDTH 468 0
DWIDTH 13 0
BBX 23 18 -10 0
BITMAP
210000
730FFC
7B8FFC
31CFFC
70CE00
E0CE00
000E00
000FF8
000FF8
000FF8
000E00
000E00
000E00
000E00
000E00
000FFE
000FFE
000FFE
ENDCHAR
STARTCHAR 1F1B
ENCODING 7963
SWIDTH 468 0
DWIDTH 13 0
BBX 22 18 -9 0
BITMAP
420000
E61FF8
E71FF8
C39FF8
619C00
319C00
001C00
001FF0
001FF0
001FF0
001C00
001C00
001C00
001C00
001C00
001FFC
001FFC
001FFC
ENDCHAR
STARTCHAR 1F1C
ENCODING 7964
SWIDTH 468 0
DWIDTH 13 0
BBX 22 18 -9 0
BITMAP
210000
719FF8
739FF8
331FF8
671C00
C61C00
001C00
001FF0
001FF0
001FF0
001C00
001C00
001C00
001C00
001C00
001FFC
001FFC
001FFC
ENDCHAR
STARTCHAR 1F1D
ENCODING 7965
SWIDTH 468 0
DWIDTH 13 0
BBX 22 18 -9 0
BITMAP
C10000
E19FF8
E39FF8
C71FF8
661C00
361C00
001C00
001FF0
001FF0
001FF0
001C00
001C00
001C00
001C00
001C00
001FFC
001FFC
001FFC
ENDCHAR
STARTCHAR 1F20
ENCODING 7968
SWIDTH 468 0
DWIDTH 13 0
BBX 10 26 2 -5
BITMAP
0400
0E00
0E00
0E00
0C00
1800
0000
0000
FF00
FF80
FFC0
E3C0
E1C0
E1C0
E1C0
E1C0
E1C0
E1C0
E1C0
E1C0
E1C0
01C0
01C0
01C0
01C0
01C0
ENDCHAR
STARTCHAR 1F21
ENCODING 7969
SWIDTH 468 0
DWIDTH 13 0
BBX 10 26 2 -5
BITMAP
0800
1C00
1C00
1800
0C00
0600
0000
0000
FF00
FF80
FFC0
E3C0
E1C0
E1C0
E1C0
E1C0
E1C0
E1C0
E1C0
E1C0
E1C0
01C0
01C0
01C0
01C0
01C0
ENDCHAR
STARTCHAR 1F22
ENCODING 7970
SWIDTH 468 0
DWIDTH 13 0
BBX 10 26 2 -5
BITMAP
2000
7300
7380
31C0
71C0
E0C0
0000
0000
FF00
FF80
FFC0
E3C0
E1C0
E1C0
E1C0
E1C0
E1C0
E1C0
E1C0
E1C0
E1C0
01C0
01C0
01C0
01C0
01C0
ENDCHAR
STARTCHAR 1F23
ENCODING 7971
SWIDTH 468 0
DWIDTH 13 0
BBX 10 25 2 -4
BITMAP
F600
F700
E380
6180
3180
0000
0000
FF00
FF80
FFC0
E3C0
E1C0
E1C0
E1C0
E1C0
E1C0
E1C0
E1C0
E1C0
E1C0
01C0
01C0
01C0
01C0
01C0
ENDCHAR
STARTCHAR 1F24
ENCODING 7972
SWIDTH 468 0
DWIDTH 13 0
BBX 10 26 2 -5
BITMAP
2000
79C0
79C0
3B80
3700
6600
0000
0000
FF00
FF80
FFC0
E3C0
E1C0
E1C0
E1C0
E1C0
E1C0
E1C0
E1C0
E1C0
E1C0
01C0
01C0
01C0
01C0
01C0
ENDCHAR
STARTCHAR 1F25
ENCODING 7973
SWIDTH 468 0
DWIDTH 13 0
BBX 10 26 2 -5
BITMAP
2000
70C0
F1C0
6380
7300
3B00
1000
0000
FF00
FF80
FFC0
E3C0
E1C0
E1C0
E1C0
E1C0
E1C0
E1C0
E1C0
E1C0
E1C0
01C0
01C0
01C0
01C0
01C0
ENDCHAR
STARTCHAR 1F26
ENCODING 7974
SWIDTH 468 0
DWIDTH 13 0
BBX 10 28 2 -5
BITMAP
1E00
3F00
7380
6180
0C00
1C00
0C00
1800
0000
0000
FF00
FF80
FFC0
E3C0
E1C0
E1C0
E1C0
E1C0
E1C0
E1C0
E1C0
E1C0
E1C0
01C0
01C0
01C0
01C0
01C0
ENDCHAR
STARTCHAR 1F27
ENCODING 7975
SWIDTH 468 0
DWIDTH 13 0
BBX 10 28 2 -5
BITMAP
1E00
3F00
7380
6180
0C00
1C00
0C00
0600
0000
0000
FF00
FF80
FFC0
E3C0
E1C0
E1C0
E1C0
E1C0
E1C0
E1C0
E1C0
E1C0
E1C0
01C0
01C0
01C0
01C0
01C0
ENDCHAR
STARTCHAR 1F28
ENCODING 7976
SWIDTH 468 0
DWIDTH 13 0
BBX 17 18 -4 0
BITMAP
600000
F78780
F78780
678780
E78780
C78780
078780
078780
07FF80
07FF80
078780
078780
078780
078780
078780
078780
078780
078780
ENDCHAR
STARTCHAR 1F29
ENCODING 7977
SWIDTH 468 0
DWIDTH 13 0
BBX 17 18 -4 0
BITMAP
400000
E78780
E78780
C78780
678780
378780
078780
078780
07FF80
07FF80
078780
078780
078780
078780
078780
078780
078780
078780
ENDCHAR
STARTCHAR 1F2A
ENCODING 7978
SWIDTH 468 0
DWIDTH 13 0
BBX 23 18 -10 0
BITMAP
200000
771E1E
779E1E
339E1E
61DE1E
C0DE1E
001E1E
001E1E
001FFE
001FFE
001E1E
001E1E
001E1E
001E1E
001E1E
001E1E
001E1E
001E1E
ENDCHAR
STARTCHAR 1F2B
ENCODING 7979
SWIDTH 468 0
DWIDTH 13 0
BBX 22 18 -9 0
BITMAP
400000
EE3C3C
EE3C3C
C73C3C
63BC3C
713C3C
003C3C
003C3C
003FFC
003FFC
003C3C
003C3C
003C3C
003C3C
003C3C
003C3C
003C3C
003C3C
ENDCHAR
STARTCHAR 1F2C
ENCODING 7980
SWIDTH 468 0
DWIDTH 13 0
BBX 22 18 -9 0
BITMAP
600000
F3BC3C
73BC3C
773C3C
6E3C3C
C43C3C
003C3C
003C3C
003FFC
003FFC
003C3C
003C3C
003C3C
003C3C
003C3C
003C3C
003C3C
003C3C
ENDCHAR
STARTCHAR 1F2D
ENCODING 7981
SWIDTH 468 0
DWIDTH 13 0
BBX 23 18 -10 0
BITMAP
600000
F1DE1E
E3DE1E
E39E1E
671E1E
321E1E
001E1E
001E1E
001FFE
001FFE
001E1E
001E1E
001E1E
001E1E
001E1E
001E1E
001E1E
001E1E
ENDCHAR
STARTCHAR 1F2E
ENCODING 7982
SWIDTH 468 0
DWIDTH 13 0
BBX 20 20 -7 0
BITMAP
7C0000
FE0000
C60000
C6F0F0
38F0F0
38F0F0
18F0F0
30F0F0
00F0F0
00F0F0
00FFF0
00FFF0
00F0F0
00F0F0
00F0F0
00F0F0
00F0F0
00F0F0
00F0F0
00F0F0
ENDCHAR
STARTCHAR 1F2F
ENCODING 7983
SWIDTH 468 0
DWIDTH 13 0
BBX 20 20 -7 0
BITMAP
7C0000
FE0000
C60000
C6F0F0
38F0F0
38F0F0
30F0F0
18F0F0
00F0F0
00F0F0
00FFF0
00FFF0
00F0F0
00F0F0
00F0F0
00F0F0
00F0F0
00F0F0
00F0F0
00F0F0
ENDCHAR
STARTCHAR 1F30
ENCODING 7984
SWIDTH 468 0
DWIDTH 13 0
BBX 12 21 1 0
BITMAP
0200
0700
0700
0700
0600
0C00
0000
0000
FE00
FE00
FE00
0E00
0E00
0E00
0E00
0E00
0E00
0E00
0FF0
0FF0
07F0
ENDCHAR
STARTCHAR 1F31
ENCODING 7985
SWIDTH 468 0
DWIDTH 13 0
BBX 12 21 1 0
BITMAP
0400
0E00
0E00
0C00
0600
0300
0000
0000
FE00
FE00
FE00
0E00
0E00
0E00
0E00
0E00
0E00
0E00
0FF0
0FF0
07F0
ENDCHAR
STARTCHAR 1F32
ENCODING 7986
SWIDTH 468 0
DWIDTH 13 0
BBX 12 21 1 0
BITMAP
1000
3980
39C0
18E0
38E0
7060
0000
0000
FE00
FE00
FE00
0E00
0E00
0E00
0E00
0E00
0E00
0E00
0FF0
0FF0
07F0
ENDCHAR
STARTCHAR 1F33
ENCODING 7987
SWIDTH 468 0
DWIDTH 13 0
BBX 12 20 1 1
BITMAP
7B00
7B80
71C0
30C0
18C0
0000
0000
FE00
FE00
FE00
0E00
0E00
0E00
0E00
0E00
0E00
0E00
0FF0
0FF0
07F0
ENDCHAR
STARTCHAR 1F34
ENCODING 7988
SWIDTH 468 0
DWIDTH 13 0
BBX 12 21 1 0
BITMAP
1000
3CE0
3CE0
1DC0
1B80
3300
0000
0000
FE00
FE00
FE00
0E00
0E00
0E00
0E00
0E00
0E00
0E00
0FF0
0FF0
07F0
ENDCHAR
STARTCHAR 1F35
ENCODING 7989
SWIDTH 468 0
DWIDTH 13 0
BBX 12 21 1 0
BITMAP
1000
3860
78E0
31C0
3980
1D80
0800
0000
FE00
FE00
FE00
0E00
0E00
0E00
0E00
0E00
0E00
0E00
0FF0
0FF0
07F0
ENDCHAR
STARTCHAR 1F36
ENCODING 7990
SWIDTH 468 0
DWIDTH 13 0
BBX 12 23 1 0
BITMAP
0F00
1F80
39C0
30C0
0600
0E00
0600
0C00
0000
0000
FE00
FE00
FE00
0E00
0E00
0E00
0E00
0E00
0E00
0E00
0FF0
0FF0
07F0
ENDCHAR
STARTCHAR 1F37
ENCODING 7991
SWIDTH 468 0
DWIDTH 13 0
BBX 12 23 1 0
BITMAP
0F00
1F80
39C0
30C0
0600
0E00
0600
0300
0000
0000
FE00
FE00
FE00
0E00
0E00
0E00
0E00
0E00
0E00
0E00
0FF0
0FF0
07F0
ENDCHAR
STARTCHAR 1F38
ENCODING 7992
SWIDTH 468 0
DWIDTH 13 0
BBX 16 18 -4 0
BITMAP
6000
F7FF
77FF
77FF
6078
C078
0078
0078
0078
0078
0078
0078
0078
0078
0078
07FF
07FF
07FF
ENDCHAR
STARTCHAR 1F39
ENCODING 7993
SWIDTH 468 0
DWIDTH 13 0
BBX 16 18 -4 0
BITMAP
4000
E7FF
E7FF
C7FF
6078
3078
0078
0078
0078
0078
0078
0078
0078
0078
0078
07FF
07FF
07FF
ENDCHAR
STARTCHAR 1F3A
ENCODING 7994
SWIDTH 468 0
DWIDTH 13 0
BBX 22 18 -10 0
BITMAP
200000
731FFC
739FFC
319FFC
61C1E0
C0C1E0
0001E0
0001E0
0001E0
0001E0
0001E0
0001E0
0001E0
0001E0
0001E0
001FFC
001FFC
001FFC
ENDCHAR
STARTCHAR 1F3B
ENCODING 7995
SWIDTH 468 0
DWIDTH 13 0
BBX 21 18 -9 0
BITMAP
400000
E63FF8
E73FF8
C73FF8
6383C0
3183C0
0003C0
0003C0
0003C0
0003C0
0003C0
0003C0
0003C0
0003C0
0003C0
003FF8
003FF8
003FF8
ENDCHAR
STARTCHAR 1F3C
ENCODING 7996
SWIDTH 468 0
DWIDTH 13 0
BBX 21 18 -9 0
BITMAP
210000
71BFF8
73BFF8
373FF8
6603C0
C603C0
0003C0
0003C0
0003C0
0003C0
0003C0
0003C0
0003C0
0003C0
0003C0
003FF8
003FF8
003FF8
ENDCHAR
STARTCHAR 1F3D
ENCODING 7997
SWIDTH 468 0
DWIDTH 13 0
BBX 22 18 -10 0
BITMAP
600000
F1DFFC
F1DFFC
639FFC
7701E0
3201E0
0001E0
0001E0
0001E0
0001E0
0001E0
0001E0
0001E0
0001E0
0001E0
001FFC
001FFC
001FFC
ENDCHAR
STARTCHAR 1F3E
ENCODING 7998
SWIDTH 468 0
DWIDTH 13 0
BBX 19 20 -7 0
BITMAP
3C0000
7E0000
C60000
C3FFE0
38FFE0
38FFE0
180F00
300F00
000F00
000F00
000F00
000F00
000F00
000F00
000F00
000F00
000F00
00FFE0
00FFE0
00FFE0
ENDCHAR
STARTCHAR 1F3F
ENCODING 7999
SWIDTH 468 0
DWIDTH 13 0
BBX 19 20 -7 0
BITMAP
3C0000
7E0000
E60000
C3FFE0
38FFE0
38FFE0
180F00
0C0F00
000F00
000F00
000F00
000F00
000F00
000F00
000F00
000F00
000F00
00FFE0
00FFE0
00FFE0
ENDCHAR
STARTCHAR 1F40
ENCODING 8000
SWIDTH 468 0
DWIDTH 13 0
BBX 12 21 1 0
BITMAP
0200
0700
0700
0700
0600
0C00
0000
0000
1F80
3FC0
7FE0
F0F0
F0F0
E070
E070
E070
F0F0
F0F0
7FE0
3FC0
1F80
ENDCHAR
STARTCHAR 1F41
ENCODING 8001
SWIDTH 468 0
DWIDTH 13 0
BBX 12 21 1 0
BITMAP
0400
0E00
0E00
0C00
0600
0300
0000
0000
1F80
3FC0
7FE0
F0F0
F0F0
E070
E070
E070
F0F0
F0F0
7FE0
3FC0
1F80
ENDCHAR
STARTCHAR 1F42
ENCODING 8002
SWIDTH 468 0
DWIDTH 13 0
BBX 12 21 1 0
BITMAP
1000
3980
39C0
18E0
38E0
7060
0000
0000
1F80
3FC0
7FE0
F0F0
F0F0
E070
E070
E070
F0F0
F0F0
7FE0
3FC0
1F80
ENDCHAR
STARTCHAR 1F43
ENCODING 8003
SWIDTH 468 0
DWIDTH 13 0
BBX 12 20 1 1
BITMAP
7B00
7B80
71C0
30C0
18C0
0000
0000
1F80
3FC0
7FE0
F0F0
F0F0
E070
E070
E070
F0F0
F0F0
7FE0
3FC0
1F80
ENDCHAR
STARTCHAR 1F44
ENCODING 8004
SWIDTH 468 0
DWIDTH 13 0
BBX 12 21 1 0
BITMAP
1000
3CE0
3CE0
1DC0
1B80
3300
0000
0000
1F80
3FC0
7FE0
F0F0
F0F0
E070
E070
E070
F0F0
F0F0
7FE0
3FC0
1F80
ENDCHAR
STARTCHAR 1F45
ENCODING 8005
SWIDTH 468 0
DWIDTH 13 0
BBX 12 21 1 0
BITMAP
1000
3860
78E0
31C0
3980
1D80
0800
0000
1F80
3FC0
7FE0
F0F0
F0F0
E070
E070
E070
F0F0
F0F0
7FE0
3FC0
1F80
ENDCHAR
STARTCHAR 1F48
ENCODING 8008
SWIDTH 468 0
DWIDTH 13 0
BBX 17 18 -4 0
BITMAP
303000
78FC00
79FE00
33FF00
778700
E78780
070780
070380
070380
070380
070380
070380
070780
078780
078700
03FF00
01FE00
00FC00
ENDCHAR
STARTCHAR 1F49
ENCODING 8009
SWIDTH 468 0
DWIDTH 13 0
BBX 17 18 -4 0
BITMAP
403000
E0FC00
E1FE00
C3FF00
678700
378780
070780
070380
070380
070380
070380
070380
070780
078780
078700
03FF00
01FE00
00FC00
ENDCHAR
STARTCHAR 1F4A
ENCODING 8010
SWIDTH 468 0
DWIDTH 13 0
BBX 23 18 -10 0
BITMAP
2000C0
7303F0
7387F8
318FFC
61DE1C
C0DE1E
001C1E
001C0E
001C0E
001C0E
001C0E
001C0E
001C1E
001E1E
001E1C
000FFC
0007F8
0003F0
ENDCHAR
STARTCHAR 1F4B
ENCODING 8011
SWIDTH 468 0
DWIDTH 13 0
BBX 22 18 -9 0
BITMAP
400180
E607E0
E70FF0
C71FF8
63BC38
31BC3C
00383C
00381C
00381C
00381C
00381C
00381C
00383C
003C3C
003C38
001FF8
000FF0
0007E0
ENDCHAR
STARTCHAR 1F4C
ENCODING 8012
SWIDTH 468 0
DWIDTH 13 0
BBX 21 18 -8 0
BITMAP
600300
F38FC0
F39FE0
673FF0
EE7870
C47878
007078
007038
007038
007038
007038
007038
007078
007878
007870
003FF0
001FE0
000FC0
ENDCHAR
STARTCHAR 1F4D
ENCODING 8013
SWIDTH 468 0
DWIDTH 13 0
BBX 22 18 -9 0
BITMAP
400180
E187E0
E38FF0
C39FF8
673C38
363C3C
00383C
00381C
00381C
00381C
00381C
00381C
00383C
003C3C
003C38
001FF8
000FF0
0007E0
ENDCHAR
STARTCHAR 1F50
ENCODING 8016
SWIDTH 468 0
DWIDTH 13 0
BBX 11 21 1 0
BITMAP
0200
0700
0700
0700
0600
0C00
0000
0000
F0E0
F0E0
F0E0
F0E0
F0E0
F0E0
F0E0
F0E0
F0E0
71E0
7FE0
7FC0
3F80
ENDCHAR
STARTCHAR 1F51
ENCODING 8017
SWIDTH 468 0
DWIDTH 13 0
BBX 11 21 1 0
BITMAP
0400
0E00
0E00
0C00
0600
0300
0000
0000
F0E0
F0E0
F0E0
F0E0
F0E0
F0E0
F0E0
F0E0
F0E0
71E0
7FE0
7FC0
3F80
ENDCHAR
STARTCHAR 1F52
ENCODING 8018
SWIDTH 468 0
DWIDTH 13 0
BBX 11 21 1 0
BITMAP
1000
3980
39C0
18E0
38E0
7060
0000
0000
F0E0
F0E0
F0E0
F0E0
F0E0
F0E0
F0E0
F0E0
F0E0
71E0
7FE0
7FC0
3F80
ENDCHAR
STARTCHAR 1F53
ENCODING 8019
SWIDTH 468 0
DWIDTH 13 0
BBX 11 20 1 1
BITMAP
7B00
7B80
71C0
30C0
18C0
0000
0000
F0E0
F0E0
F0E0
F0E0
F0E0
F0E0
F0E0
F0E0
F0E0
71E0
7FE0
7FC0
3F80
ENDCHAR
STARTCHAR 1F54
ENCODING 8020
SWIDTH 468 0
DWIDTH 13 0
BBX 11 21 1 0
BITMAP
1000
3CE0
3CE0
1DC0
1B80
3300
0000
0000
F0E0
F0E0
F0E0
F0E0
F0E0
F0E0
F0E0
F0E0
F0E0
71E0
7FE0
7FC0
3F80
ENDCHAR
STARTCHAR 1F55
ENCODING 8021
SWIDTH 468 0
DWIDTH 13 0
BBX 11 21 1 0
BITMAP
1000
3860
78E0
31C0
3980
1D80
0800
0000
F0E0
F0E0
F0E0
F0E0
F0E0
F0E0
F0E0
F0E0
F0E0
71E0
7FE0
7FC0
3F80
ENDCHAR
STARTCHAR 1F56
ENCODING 8022
SWIDTH 468 0
DWIDTH 13 0
BBX 11 23 1 0
BITMAP
0F00
1F80
39C0
30C0
0600
0E00
0600
0C00
0000
0000
F0E0
F0E0
F0E0
F0E0
F0E0
F0E0
F0E0
F0E0
F0E0
71E0
7FE0
7FC0
3F80
ENDCHAR
STARTCHAR 1F57
ENCODING 8023
SWIDTH 468 0
DWIDTH 13 0
BBX 11 23 1 0
BITMAP
0F00
1F80
39C0
30C0
0600
0E00
0600
0300
0000
0000
F0E0
F0E0
F0E0
F0E0
F0E0
F0E0
F0E0
F0E0
F0E0
71E0
7FE0
7FC0
3F80
ENDCHAR
STARTCHAR 1F59
ENCODING 8025
SWIDTH 468 0
DWIDTH 13 0
BBX 17 18 -4 0
BITMAP
600000
F70380
F78780
E78780
638700
33CF00
01CE00
01EE00
00FC00
00FC00
007800
007800
007800
007800
007800
007800
007800
007800
ENDCHAR
STARTCHAR 1F5B
ENCODING 8027
SWIDTH 468 0
DWIDTH 13 0
BBX 22 18 -9 0
BITMAP
600000
F7381C
F73C3C
63BC3C
719C38
309E78
000E70
000F70
0007E0
0007E0
0003C0
0003C0
0003C0
0003C0
0003C0
0003C0
0003C0
0003C0
ENDCHAR
STARTCHAR 1F5D
ENCODING 8029
SWIDTH 468 0
DWIDTH 13 0
BBX 23 18 -10 0
BITMAP
400000
E19C0E
E39E1E
C39E1E
670E1C
360F3C
000738
0007B8
0003F0
0003F0
0001E0
0001E0
0001E0
0001E0
0001E0
0001E0
0001E0
0001E0
ENDCHAR
STARTCHAR 1F5F
ENCODING 8031
SWIDTH 468 0
DWIDTH 13 0
BBX 21 20 -8 0
BITMAP
3C0000
7E0000
E60000
C37038
387878
387878
183870
0C3CF0
001CE0
001EE0
000FC0
000FC0
000780
000780
000780
000780
000780
000780
000780
000780
ENDCHAR
STARTCHAR 1F60
ENCODING 8032
SWIDTH 468 0
DWIDTH 13 0
BBX 12 21 1 0
BITMAP
0200
0700
0700
0700
0600
0C00
0000
0000
30C0
70E0
70E0
E070
E070
E670
E670
E670
E670
EF70
FFF0
7FE0
79E0
ENDCHAR
STARTCHAR 1F61
ENCODING 8033
SWIDTH 468 0
DWIDTH 13 0
BBX 12 21 1 0
BITMAP
0400
0E00
0E00
0C00
0600
0300
0000
0000
30C0
70E0
70E0
E070
E070
E670
E670
E670
E670
EF70
FFF0
7FE0
79E0
ENDCHAR
STARTCHAR 1F62
ENCODING 8034
SWIDTH 468 0
DWIDTH 13 0
BBX 12 21 1 0
BITMAP
1000
3980
39C0
18E0
38E0
7060
0000
0000
30C0
70E0
70E0
E070
E070
E670
E670
E670
E670
EF70
FFF0
7FE0
79E0
ENDCHAR
STARTCHAR 1F63
ENCODING 8035
SWIDTH 468 0
DWIDTH 13 0
BBX 12 20 1 1
BITMAP
7B00
7B80
71C0
30C0
18C0
0000
0000
30C0
70E0
70E0
E070
E070
E670
E670
E670
E670
EF70
FFF0
7FE0
79E0
ENDCHAR
STARTCHAR 1F64
ENCODING 8036
SWIDTH 468 0
DWIDTH 13 0
BBX 12 21 1 0
BITMAP
1000
3CE0
3CE0
1DC0
1B80
3300
0000
0000
30C0
70E0
70E0
E070
E070
E670
E670
E670
E670
EF70
FFF0
7FE0
79E0
ENDCHAR
STARTCHAR 1F65
ENCODING 8037
SWIDTH 468 0
DWIDTH 13 0
BBX 12 21 1 0
BITMAP
1000
3860
78E0
31C0
3980
1D80
0800
0000
30C0
70E0
70E0
E070
E070
E670
E670
E670
E670
EF70
FFF0
7FE0
79E0
ENDCHAR
STARTCHAR 1F66
ENCODING 8038
SWIDTH 468 0
DWIDTH 13 0
BBX 12 23 1 0
BITMAP
0F00
1F80
39C0
30C0
0600
0E00
0600
0C00
0000
0000
30C0
70E0
70E0
E070
E070
E670
E670
E670
E670
EF70
FFF0
7FE0
79E0
ENDCHAR
STARTCHAR 1F67
ENCODING 8039
SWIDTH 468 0
DWIDTH 13 0
BBX 12 23 1 0
BITMAP
0F00
1F80
39C0
30C0
0600
0E00
0600
0300
0000
0000
30C0
70E0
70E0
E070
E070
E670
E670
E670
E670
EF70
FFF0
7FE0
79E0
ENDCHAR
STARTCHAR 1F68
ENCODING 8040
SWIDTH 468 0
DWIDTH 13 0
BBX 18 18 -4 0
BITMAP
200000
71FE00
73FF00
37FF00
678780
C70380
0F0380
0F03C0
0F03C0
0F03C0
070380
070380
070780
038700
038F00
0FCFC0
0FCFC0
0FCFC0
ENDCHAR
STARTCHAR 1F69
ENCODING 8041
SWIDTH 468 0
DWIDTH 13 0
BBX 19 18 -5 0
BITMAP
400000
E0FF00
E1FF80
C3FF80
63C3C0
3381C0
0781C0
0781E0
0781E0
0781E0
0381C0
0381C0
0383C0
01C380
01C780
07E7E0
07E7E0
07E7E0
ENDCHAR
STARTCHAR 1F6A
ENCODING 8042
SWIDTH 468 0
DWIDTH 13 0
BBX 25 18 -11 0
BITMAP
21000000
7303FC00
7387FE00
31CFFE00
60CF0F00
E0CE0700
001E0700
001E0780
001E0780
001E0780
000E0700
000E0700
000E0F00
00070E00
00071E00
001F9F80
001F9F80
001F9F80
ENDCHAR
STARTCHAR 1F6B
ENCODING 8043
SWIDTH 468 0
DWIDTH 13 0
BBX 24 18 -10 0
BITMAP
620000
E607F8
E70FFC
E39FFC
619E1E
319C0E
003C0E
003C0F
003C0F
003C0F
001C0E
001C0E
001C1E
000E1C
000E3C
003F3F
003F3F
003F3F
ENDCHAR
STARTCHAR 1F6C
ENCODING 8044
SWIDTH 468 0
DWIDTH 13 0
BBX 22 18 -8 0
BITMAP
600000
F31FE0
F73FF0
677FF0
EE7878
CC7038
00F038
00F03C
00F03C
00F03C
007038
007038
007078
003870
0038F0
00FCFC
00FCFC
00FCFC
ENDCHAR
STARTCHAR 1F6D
ENCODING 8045
SWIDTH 468 0
DWIDTH 13 0
BBX 23 18 -9 0
BITMAP
400000
E18FF0
E39FF8
C3BFF8
673C3C
36381C
00781C
00781E
00781E
00781E
00381C
00381C
00383C
001C38
001C78
007E7E
007E7E
007E7E
ENDCHAR
STARTCHAR 1F6E
ENCODING 8046
SWIDTH 468 0
DWIDTH 13 0
BBX 21 20 -7 0
BITMAP
3C0000
7E0000
E60000
C33FC0
387FE0
38FFE0
18F0F0
30E070
01E070
01E078
01E078
01E078
00E070
00E070
00E0F0
0070E0
0071E0
01F9F8
01F9F8
01F9F8
ENDCHAR
STARTCHAR 1F6F
ENCODING 8047
SWIDTH 468 0
DWIDTH 13 0
BBX 21 20 -7 0
BITMAP
3C0000
7E0000
C60000
C33FC0
387FE0
38FFE0
18F0F0
1CE070
01E070
01E078
01E078
01E078
00E070
00E070
00E0F0
0070E0
0071E0
01F9F8
01F9F8
01F9F8
ENDCHAR
STARTCHAR 1F70
ENCODING 8048
SWIDTH 468 0
DWIDTH 13 0
BBX 12 19 1 1
BITMAP
0C00
1F00
0F80
0380
0080
0000
1FE0
3FE0
7FE0
70E0
F0E0
F0E0
F0E0
F0E0
F0E0
F0E0
7FF0
7FF0
1F70
ENDCHAR
STARTCHAR 1F71
ENCODING 8049
SWIDTH 468 0
DWIDTH 13 0
BBX 12 19 1 1
BITMAP
0380
0780
1F80
0E00
0800
0000
1FE0
3FE0
7FE0
70E0
F0E0
F0E0
F0E0
F0E0
F0E0
F0E0
7FF0
7FF0
1F70
ENDCHAR
STARTCHAR 1F72
ENCODING 8050
SWIDTH 468 0
DWIDTH 13 0
BBX 10 19 2 1
BITMAP
1800
3E00
1F00
0700
0100
0000
3FC0
7FC0
FFC0
F000
F000
7F00
7F00
FF00
E000
E000
FFC0
FFC0
7FC0
ENDCHAR
STARTCHAR 1F73
ENCODING 8051
SWIDTH 468 0
DWIDTH 13 0
BBX 10 19 2 1
BITMAP
0700
0F00
3F00
1C00
1000
0000
3FC0
7FC0
FFC0
F000
F000
7F00
7F00
FF00
E000
E000
FFC0
FFC0
7FC0
ENDCHAR
STARTCHAR 1F74
ENCODING 8052
SWIDTH 468 0
DWIDTH 13 0
BBX 10 24 2 -4
BITMAP
1800
3E00
1F00
0700
0100
0000
FF00
FF80
FFC0
E3C0
E1C0
E1C0
E1C0
E1C0
E1C0
E1C0
E1C0
E1C0
E1C0
01C0
01C0
01C0
01C0
01C0
ENDCHAR
STARTCHAR 1F75
ENCODING 8053
SWIDTH 468 0
DWIDTH 13 0
BBX 10 24 2 -4
BITMAP
0700
0F00
3F00
1C00
1000
0000
FF00
FF80
FFC0
E3C0
E1C0
E1C0
E1C0
E1C0
E1C0
E1C0
E1C0
E1C0
E1C0
01C0
01C0
01C0
01C0
01C0
ENDCHAR
STARTCHAR 1F76
ENCODING 8054
SWIDTH 468 0
DWIDTH 13 0
BBX 12 19 1 1
BITMAP
0C00
1F00
0F80
0380
0080
0000
FE00
FE00
FE00
0E00
0E00
0E00
0E00
0E00
0E00
0E00
0FF0
0FF0
07F0
ENDCHAR
STARTCHAR 1F77
ENCODING 8055
SWIDTH 468 0
DWIDTH 13 0
BBX 12 19 1 1
BITMAP
0380
0780
1F80
0E00
0800
0000
FE00
FE00
FE00
0E00
0E00
0E00
0E00
0E00
0E00
0E00
0FF0
0FF0
07F0
ENDCHAR
STARTCHAR 1F78
ENCODING 8056
SWIDTH 468 0
DWIDTH 13 0
BBX 12 19 1 1
BITMAP
0C00
1F00
0F80
0380
0080
0000
1F80
3FC0
7FE0
F0F0
F0F0
E070
E070
E070
F0F0
F0F0
7FE0
3FC0
1F80
ENDCHAR
STARTCHAR 1F79
ENCODING 8057
SWIDTH 468 0
DWIDTH 13 0
BBX 12 19 1 1
BITMAP
0380
0780
1F80
0E00
0800
0000
1F80
3FC0
7FE0
F0F0
F0F0
E070
E070
E070
F0F0
F0F0
7FE0
3FC0
1F80
ENDCHAR
STARTCHAR 1F7A
ENCODING 8058
SWIDTH 468 0
DWIDTH 13 0
BBX 11 19 1 1
BITMAP
0C00
1F00
0F80
0380
0080
0000
F0E0
F0E0
F0E0
F0E0
F0E0
F0E0
F0E0
F0E0
F0E0
71E0
7FE0
7FC0
3F80
ENDCHAR
STARTCHAR 1F7B
ENCODING 8059
SWIDTH 468 0
DWIDTH 13 0
BBX 11 19 1 1
BITMAP
0380
0780
1F80
0E00
0800
0000
F0E0
F0E0
F0E0
F0E0
F0E0
F0E0
F0E0
F0E0
F0E0
71E0
7FE0
7FC0
3F80
ENDCHAR
STARTCHAR 1F7C
ENCODING 8060
SWIDTH 468 0
DWIDTH 13 0
BBX 12 19 1 1
BITMAP
0C00
1F00
0F80
0380
0080
0000
30C0
70E0
70E0
E070
E070
E670
E670
E670
E670
EF70
FFF0
7FE0
79E0
ENDCHAR
STARTCHAR 1F7D
ENCODING 8061
SWIDTH 468 0
DWIDTH 13 0
BBX 12 19 1 1
BITMAP
0380
0780
1F80
0E00
0800
0000
30C0
70E0
70E0
E070
E070
E670
E670
E670
E670
EF70
FFF0
7FE0
79E0
ENDCHAR
STARTCHAR 1F80
ENCODING 8064
SWIDTH 468 0
DWIDTH 13 0
BBX 12 26 1 -5
BITMAP
0200
0700
0700
0700
0600
0C00
0000
0000
1FE0
3FE0
7FE0
70E0
F0E0
F0E0
F0E0
F0E0
F0E0
F0E0
7FF0
7FF0
1F70
0000
0C00
0E00
0F00
0700
ENDCHAR
STARTCHAR 1F81
ENCODING 8065
SWIDTH 468 0
DWIDTH 13 0
BBX 12 26 1 -5
BITMAP
0400
0E00
0E00
0C00
0600
0300
0000
0000
1FE0
3FE0
7FE0
70E0
F0E0
F0E0
F0E0
F0E0
F0E0
F0E0
7FF0
7FF0
1F70
0000
0C00
0E00
0F00
0700
ENDCHAR
STARTCHAR 1F82
ENCODING 8066
SWIDTH 468 0
DWIDTH 13 0
BBX 12 26 1 -5
BITMAP
1000
3980
39C0
18E0
38E0
7060
0000
0000
1FE0
3FE0
7FE0
70E0
F0E0
F0E0
F0E0
F0E0
F0E0
F0E0
7FF0
7FF0
1F70
0000
0C00
0E00
0F00
0700
ENDCHAR
STARTCHAR 1F83
ENCODING 8067
SWIDTH 468 0
DWIDTH 13 0
BBX 12 25 1 -4
BITMAP
7B00
7B80
71C0
30C0
18C0
0000
0000
1FE0
3FE0
7FE0
70E0
F0E0
F0E0
F0E0
F0E0
F0E0
F0E0
7FF0
7FF0
1F70
0000
0C00
0E00
0F00
0700
ENDCHAR
STARTCHAR 1F84
ENCODING 8068
SWIDTH 468 0
DWIDTH 13 0
BBX 12 26 1 -5
BITMAP
1000
3CE0
3CE0
1DC0
1B80
3300
0000
0000
1FE0
3FE0
7FE0
70E0
F0E0
F0E0
F0E0
F0E0
F0E0
F0E0
7FF0
7FF0
1F70
0000
0C00
0E00
0F00
0700
ENDCHAR
STARTCHAR 1F85
ENCODING 8069
SWIDTH 468 0
DWIDTH 13 0
BBX 12 26 1 -5
BITMAP
1000
3860
78E0
31C0
3980
1D80
0800
0000
1FE0
3FE0
7FE0
70E0
F0E0
F0E0
F0E0
F0E0
F0E0
F0E0
7FF0
7FF0
1F70
0000
0C00
0E00
0F00
0700
ENDCHAR
STARTCHAR 1F86
ENCODING 8070
SWIDTH 468 0
DWIDTH 13 0
BBX 12 28 1 -5
BITMAP
0F00
1F80
39C0
30C0
0600
0E00
0600
0C00
0000
0000
1FE0
3FE0
7FE0
70E0
F0E0
F0E0
F0E0
F0E0
F0E0
F0E0
7FF0
7FF0
1F70
0000
0C00
0E00
0F00
0700
ENDCHAR
STARTCHAR 1F87
ENCODING 8071
SWIDTH 468 0
DWIDTH 13 0
BBX 12 28 1 -5
BITMAP
0F00
1F80
39C0
30C0
0600
0E00
0600
0300
0000
0000
1FE0
3FE0
7FE0
70E0
F0E0
F0E0
F0E0
F0E0
F0E0
F0E0
7FF0
7FF0
1F70
0000
0C00
0E00
0F00
0700
ENDCHAR
STARTCHAR 1F88
ENCODING 8072
SWIDTH 468 0
DWIDTH 13 0
BBX 16 18 -2 0
BITMAP
6000
F780
F780
7780
67C0
CFCE
0FCE
0ECE
0CCE
0CEE
1CEE
1FEE
1FEE
1FEE
1C6E
187E
3877
3873
ENDCHAR
STARTCHAR 1F89
ENCODING 8073
SWIDTH 468 0
DWIDTH 13 0
BBX 17 18 -3 0
BITMAP
600000
F3C000
F3C000
63C000
73E000
3FE700
07E700
076700
066700
067700
0E7700
0FF700
0FF700
0FF700
0E3700
0C3F00
1C3B80
1C3980
ENDCHAR
STARTCHAR 1F8A
ENCODING 8074
SWIDTH 468 0
DWIDTH 13 0
BBX 23 18 -9 0
BITMAP
210000
730F00
738F00
31CF00
60CF80
E0DF9C
001F9C
001D9C
00199C
0019DC
0039DC
003FDC
003FDC
003FDC
0038DC
0030FC
0070EE
0070E6
ENDCHAR
STARTCHAR 1F8B
ENCODING 8075
SWIDTH 468 0
DWIDTH 13 0
BBX 22 18 -8 0
BITMAP
420000
E61E00
E71E00
C39E00
619F00
31BF38
003F38
003B38
003338
0033B8
0073B8
007FB8
007FB8
007FB8
0071B8
0061F8
00E1DC
00E1CC
ENDCHAR
STARTCHAR 1F8C
ENCODING 8076
SWIDTH 468 0
DWIDTH 13 0
BBX 21 18 -7 0
BITMAP
600000
F3BC00
73BC00
773C00
6E3E00
C47E70
007E70
007670
006670
006770
00E770
00FF70
00FF70
00FF70
00E370
00C3F0
01C3B8
01C398
ENDCHAR
STARTCHAR 1F8D
ENCODING 8077
SWIDTH 468 0
DWIDTH 13 0
BBX 22 18 -8 0
BITMAP
600000
F1DE00
F1DE00
639E00
771F00
323F38
003F38
003B38
003338
0033B8
0073B8
007FB8
007FB8
007FB8
0071B8
0061F8
00E1DC
00E1CC
ENDCHAR
STARTCHAR 1F8E
ENCODING 8078
SWIDTH 468 0
DWIDTH 13 0
BBX 20 20 -6 0
BITMAP
3C0000
7E0000
E70000
C37800
187800
1C7800
187C00
30FCE0
00FCE0
00ECE0
00CCE0
00CEE0
01CEE0
01FEE0
01FEE0
01FEE0
01C6E0
0187E0
038770
038730
ENDCHAR
STARTCHAR 1F8F
ENCODING 8079
SWIDTH 468 0
DWIDTH 13 0
BBX 20 20 -6 0
BITMAP
3C0000
7E0000
E70000
C37800
187800
1C7800
187C00
0CFCE0
00FCE0
00ECE0
00CCE0
00CEE0
01CEE0
01FEE0
01FEE0
01FEE0
01C6E0
0187E0
038770
038730
ENDCHAR
STARTCHAR 1F90
ENCODING 8080
SWIDTH 468 0
DWIDTH 13 0
BBX 10 26 2 -5
BITMAP
0400
0E00
0E00
0E00
0C00
1800
0000
0000
FF00
FF80
FFC0
E3C0
E1C0
E1C0
E1C0
E1C0
E1C0
E1C0
E1C0
E1C0
E1C0
01C0
E1C0
E1C0
F9C0
39C0
ENDCHAR
STARTCHAR 1F91
ENCODING 8081
SWIDTH 468 0
DWIDTH 13 0
BBX 10 26 2 -5
BITMAP
0800
1C00
1C00
1800
0C00
0600
0000
0000
FF00
FF80
FFC0
E3C0
E1C0
E1C0
E1C0
E1C0
E1C0
E1C0
E1C0
E1C0
E1C0
01C0
E1C0
E1C0
F9C0
39C0
ENDCHAR
STARTCHAR 1F92
ENCODING 8082
SWIDTH 468 0
DWIDTH 13 0
BBX 10 26 2 -5
BITMAP
2000
7300
7380
31C0
71C0
E0C0
0000
0000
FF00
FF80
FFC0
E3C0
E1C0
E1C0
E1C0
E1C0
E1C0
E1C0
E1C0
E1C0
E1C0
01C0
E1C0
E1C0
F9C0
39C0
ENDCHAR
STARTCHAR 1F93
ENCODING 8083
SWIDTH 468 0
DWIDTH 13 0
BBX 10 25 2 -4
BITMAP
F600
F700
E380
6180
3180
0000
0000
FF00
FF80
FFC0
E3C0
E1C0
E1C0
E1C0
E1C0
E1C0
E1C0
E1C0
E1C0
E1C0
01C0
E1C0
E1C0
F9C0
39C0
ENDCHAR
STARTCHAR 1F94
ENCODING 8084
SWIDTH 468 0
DWIDTH 13 0
BBX 10 26 2 -5
BITMAP
2000
79C0
79C0
3B80
3700
6600
0000
0000
FF00
FF80
FFC0
E3C0
E1C0
E1C0
E1C0
E1C0
E1C0
E1C0
E1C0
E1C0
E1C0
01C0
E1C0
E1C0
F9C0
39C0
ENDCHAR
STARTCHAR 1F95
ENCODING 8085
SWIDTH 468 0
DWIDTH 13 0
BBX 10 26 2 -5
BITMAP
2000
70C0
F1C0
6380
7300
3B00
1000
0000
FF00
FF80
FFC0
E3C0
E1C0
E1C0
E1C0
E1C0
E1C0
E1C0
E1C0
E1C0
E1C0
01C0
E1C0
E1C0
F9C0
39C0
ENDCHAR
STARTCHAR 1F96
ENCODING 8086
SWIDTH 468 0
DWIDTH 13 0
BBX 10 28 2 -5
BITMAP
1E00
3F00
7380
6180
0C00
1C00
0C00
1800
0000
0000
FF00
FF80
FFC0
E3C0
E1C0
E1C0
E1C0
E1C0
E1C0
E1C0
E1C0
E1C0
E1C0
01C0
E1C0
E1C0
F9C0
39C0
ENDCHAR
STARTCHAR 1F97
ENCODING 8087
SWIDTH 468 0
DWIDTH 13 0
BBX 10 28 2 -5
BITMAP
1E00
3F00
7380
6180
0C00
1C00
0C00
0600
0000
0000
FF00
FF80
FFC0
E3C0
E1C0
E1C0
E1C0
E1C0
E1C0
E1C0
E1C0
E1C0
E1C0
01C0
E1C0
E1C0
F9C0
39C0
ENDCHAR
STARTCHAR 1F98
ENCODING 8088
SWIDTH 468 0
DWIDTH 13 0
BBX 19 18 -5 0
BITMAP
200000
771C00
7F1C00
371C00
671C00
E71DC0
071DC0
071DC0
07FDC0
07FDC0
071DC0
071DC0
071DC0
071DC0
071DC0
071DC0
071DE0
071CE0
ENDCHAR
STARTCHAR 1F99
ENCODING 8089
SWIDTH 468 0
DWIDTH 13 0
BBX 19 18 -5 0
BITMAP
200000
771C00
F71C00
671C00
771C00
3F1DC0
071DC0
071DC0
07FDC0
07FDC0
071DC0
071DC0
071DC0
071DC0
071DC0
071DC0
071DE0
071CE0
ENDCHAR
STARTCHAR 1F9A
ENCODING 8090
SWIDTH 468 0
DWIDTH 13 0
BBX 24 18 -10 0
BITMAP
600000
F738E0
F738E0
63B8E0
E1F8E0
C0B8EE
0038EE
0038EE
003FEE
003FEE
0038EE
0038EE
0038EE
0038EE
0038EE
0038EE
0038EF
0038E7
ENDCHAR
STARTCHAR 1F9B
ENCODING 8091
SWIDTH 468 0
DWIDTH 13 0
BBX 24 18 -10 0
BITMAP
600000
F738E0
F738E0
63B8E0
71F8E0
30B8EE
0038EE
0038EE
003FEE
003FEE
0038EE
0038EE
0038EE
0038EE
0038EE
0038EE
0038EF
0038E7
ENDCHAR
STARTCHAR 1F9C
ENCODING 8092
SWIDTH 468 0
DWIDTH 13 0
BBX 23 18 -9 0
BITMAP
600000
F371C0
F771C0
6771C0
EE71C0
CC71DC
0071DC
0071DC
007FDC
007FDC
0071DC
0071DC
0071DC
0071DC
0071DC
0071DC
0071DE
0071CE
ENDCHAR
STARTCHAR 1F9D
ENCODING 8093
SWIDTH 468 0
DWIDTH 13 0
BBX 24 18 -10 0
BITMAP
400000
E1F8E0
E3B8E0
C3B8E0
6738E0
3638EE
0038EE
0038EE
003FEE
003FEE
0038EE
0038EE
0038EE
0038EE
0038EE
0038EE
0038EF
0038E7
ENDCHAR
STARTCHAR 1F9E
ENCODING 8094
SWIDTH 468 0
DWIDTH 13 0
BBX 22 20 -8 0
BITMAP
3C0000
7E0000
E70000
C3E380
18E380
38E380
18E380
30E3B8
00E3B8
00E3B8
00FFB8
00FFB8
00E3B8
00E3B8
00E3B8
00E3B8
00E3B8
00E3B8
00E3BC
00E39C
ENDCHAR
STARTCHAR 1F9F
ENCODING 8095
SWIDTH 468 0
DWIDTH 13 0
BBX 22 20 -8 0
BITMAP
3C0000
7E0000
E70000
C3E380
18E380
38E380
18E380
0CE3B8
00E3B8
00E3B8
00FFB8
00FFB8
00E3B8
00E3B8
00E3B8
00E3B8
00E3B8
00E3B8
00E3BC
00E39C
ENDCHAR
STARTCHAR 1FA0
ENCODING 8096
SWIDTH 468 0
DWIDTH 13 0
BBX 12 26 1 -5
BITMAP
0200
0700
0700
0700
0600
0C00
0000
0000
30C0
70E0
70E0
E070
E070
E670
E670
E670
E670
EF70
FFF0
7FE0
79E0
0000
0E00
0E00
0780
0380
ENDCHAR
STARTCHAR 1FA1
ENCODING 8097
SWIDTH 468 0
DWIDTH 13 0
BBX 12 26 1 -5
BITMAP
0400
0E00
0E00
0C00
0600
0300
0000
0000
30C0
70E0
70E0
E070
E070
E670
E670
E670
E670
EF70
FFF0
7FE0
79E0
0000
0E00
0E00
0780
0380
ENDCHAR
STARTCHAR 1FA2
ENCODING 8098
SWIDTH 468 0
DWIDTH 13 0
BBX 12 26 1 -5
BITMAP
1000
3980
39C0
18E0
38E0
7060
0000
0000
30C0
70E0
70E0
E070
E070
E670
E670
E670
E670
EF70
FFF0
7FE0
79E0
0000
0E00
0E00
0780
0380
ENDCHAR
STARTCHAR 1FA3
ENCODING 8099
SWIDTH 468 0
DWIDTH 13 0
BBX 12 25 1 -4
BITMAP
7B00
7B80
71C0
30C0
18C0
0000
0000
30C0
70E0
70E0
E070
E070
E670
E670
E670
E670
EF70
FFF0
7FE0
79E0
0000
0E00
0E00
0780
0380
ENDCHAR
STARTCHAR 1FA4
ENCODING 8100
SWIDTH 468 0
DWIDTH 13 0
BBX 12 26 1 -5
BITMAP
1000
3CE0
3CE0
1DC0
1B80
3300
0000
0000
30C0
70E0
70E0
E070
E070
E670
E670
E670
E670
EF70
FFF0
7FE0
79E0
0000
0E00
0E00
0780
0380
ENDCHAR
STARTCHAR 1FA5
ENCODING 8101
SWIDTH 468 0
DWIDTH 13 0
BBX 12 26 1 -5
BITMAP
1000
3860
78E0
31C0
3980
1D80
0800
0000
30C0
70E0
70E0
E070
E070
E670
E670
E670
E670
EF70
FFF0
7FE0
79E0
0000
0E00
0E00
0780
0380
ENDCHAR
STARTCHAR 1FA6
ENCODING 8102
SWIDTH 468 0
DWIDTH 13 0
BBX 12 28 1 -5
BITMAP
0F00
1F80
39C0
30C0
0600
0E00
0600
0C00
0000
0000
30C0
70E0
70E0
E070
E070
E670
E670
E670
E670
EF70
FFF0
7FE0
79E0
0000
0E00
0E00
0780
0380
ENDCHAR
STARTCHAR 1FA7
ENCODING 8103
SWIDTH 468 0
DWIDTH 13 0
BBX 12 28 1 -5
BITMAP
0F00
1F80
39C0
30C0
0600
0E00
0600
0300
0000
0000
30C0
70E0
70E0
E070
E070
E670
E670
E670
E670
EF70
FFF0
7FE0
79E0
0000
0E00
0E00
0780
0380
ENDCHAR
STARTCHAR 1FA8
ENCODING 8104
SWIDTH 468 0
DWIDTH 13 0
BBX 18 18 -4 0
BITMAP
20C000
73E000
77F000
377000
673800
C63B80
0E3B80
0E3B80
0E3B80
0E3B80
063B80
063B80
063B80
073380
033380
0F7B80
0F79C0
0F78C0
ENDCHAR
STARTCHAR 1FA9
ENCODING 8105
SWIDTH 468 0
DWIDTH 13 0
BBX 19 18 -5 0
BITMAP
406000
E1F000
E3F800
C3B800
639C00
331DC0
071DC0
071DC0
071DC0
071DC0
031DC0
031DC0
031DC0
0399C0
0199C0
07BDC0
07BCE0
07BC60
ENDCHAR
STARTCHAR 1FAA
ENCODING 8106
SWIDTH 468 0
DWIDTH 13 0
BBX 25 18 -11 0
BITMAP
21018000
7307C000
738FE000
31CEE000
60CE7000
E0CC7700
001C7700
001C7700
001C7700
001C7700
000C7700
000C7700
000C7700
000E6700
00066700
001EF700
001EF380
001EF180
ENDCHAR
STARTCHAR 1FAB
ENCODING 8107
SWIDTH 468 0
DWIDTH 13 0
BBX 24 18 -10 0
BITMAP
620300
E60F80
E71FC0
E39DC0
619CE0
3198EE
0038EE
0038EE
0038EE
0038EE
0018EE
0018EE
0018EE
001CCE
000CCE
003DEE
003DE7
003DE3
ENDCHAR
STARTCHAR 1FAC
ENCODING 8108
SWIDTH 468 0
DWIDTH 13 0
BBX 22 18 -8 0
BITMAP
600C00
F33E00
F77F00
677700
EE7380
CC63B8
00E3B8
00E3B8
00E3B8
00E3B8
0063B8
0063B8
0063B8
007338
003338
00F7B8
00F79C
00F78C
ENDCHAR
STARTCHAR 1FAD
ENCODING 8109
SWIDTH 468 0
DWIDTH 13 0
BBX 23 18 -9 0
BITMAP
400600
E19F00
E3BF80
C3BB80
6739C0
3631DC
0071DC
0071DC
0071DC
0071DC
0031DC
0031DC
0031DC
00399C
00199C
007BDC
007BCE
007BC6
ENDCHAR
STARTCHAR 1FAE
ENCODING 8110
SWIDTH 468 0
DWIDTH 13 0
BBX 21 20 -7 0
BITMAP
3C0000
7E0000
E61800
C37C00
38FE00
38EE00
18E700
30C770
01C770
01C770
01C770
01C770
00C770
00C770
00C770
00E670
006670
01EF70
01EF38
01EF18
ENDCHAR
STARTCHAR 1FAF
ENCODING 8111
SWIDTH 468 0
DWIDTH 13 0
BBX 21 20 -7 0
BITMAP
3C0000
7E0000
C61800
C37C00
38FE00
38EE00
18E700
1CC770
01C770
01C770
01C770
01C770
00C770
00C770
00C770
00E670
006670
01EF70
01EF38
01EF18
ENDCHAR
STARTCHAR 1FB0
ENCODING 8112
SWIDTH 468 0
DWIDTH 13 0
BBX 12 19 1 0
BITMAP
31C0
39C0
1F80
0F00
0000
0000
1FE0
3FE0
7FE0
70E0
F0E0
F0E0
F0E0
F0E0
F0E0
F0E0
7FF0
7FF0
1F70
ENDCHAR
STARTCHAR 1FB1
ENCODING 8113
SWIDTH 468 0
DWIDTH 13 0
BBX 12 18 1 0
BITMAP
3FC0
3FC0
0000
0000
0000
1FE0
3FE0
7FE0
70E0
F0E0
F0E0
F0E0
F0E0
F0E0
F0E0
7FF0
7FF0
1F70
ENDCHAR
STARTCHAR 1FB2
ENCODING 8114
SWIDTH 468 0
DWIDTH 13 0
BBX 12 24 1 -4
BITMAP
0C00
1F00
0F80
0380
0080
0000
1FE0
3FE0
7FE0
70E0
F0E0
F0E0
F0E0
F0E0
F0E0
F0E0
7FF0
7FF0
1F70
0000
0C00
0E00
0F00
0700
ENDCHAR
STARTCHAR 1FB3
ENCODING 8115
SWIDTH 468 0
DWIDTH 13 0
BBX 12 18 1 -5
BITMAP
1FE0
3FE0
7FE0
70E0
F0E0
F0E0
F0E0
F0E0
F0E0
F0E0
7FF0
7FF0
1F70
0000
0C00
0E00
0F00
0700
ENDCHAR
STARTCHAR 1FB4
ENCODING 8116
SWIDTH 468 0
DWIDTH 13 0
BBX 12 24 1 -4
BITMAP
0380
0780
1F80
0E00
0800
0000
1FE0
3FE0
7FE0
70E0
F0E0
F0E0
F0E0
F0E0
F0E0
F0E0
7FF0
7FF0
1F70
0000
0C00
0E00
0F00
0700
ENDCHAR
STARTCHAR 1FB6
ENCODING 8118
SWIDTH 468 0
DWIDTH 13 0
BBX 12 19 1 0
BITMAP
0F00
1FC0
1DC0
38C0
0000
0000
1FE0
3FE0
7FE0
70E0
F0E0
F0E0
F0E0
F0E0
F0E0
F0E0
7FF0
7FF0
1F70
ENDCHAR
STARTCHAR 1FB7
ENCODING 8119
SWIDTH 468 0
DWIDTH 13 0
BBX 12 24 1 -5
BITMAP
0F00
1FC0
1DC0
38C0
0000
0000
1FE0
3FE0
7FE0
70E0
F0E0
F0E0
F0E0
F0E0
F0E0
F0E0
7FF0
7FF0
1F70
0000
0C00
0E00
0F00
0700
ENDCHAR
STARTCHAR 1FB8
ENCODING 8120
SWIDTH 468 0
DWIDTH 13 0
BBX 14 23 0 0
BITMAP
18E0
1CE0
1FC0
0FC0
0000
0000
0780
0780
0FC0
0FC0
0FC0
1CE0
1CE0
1CE0
3CE0
38F0
3FF0
3FF0
7FF8
7078
7078
7038
F03C
ENDCHAR
STARTCHAR 1FB9
ENCODING 8121
SWIDTH 468 0
DWIDTH 13 0
BBX 14 22 0 0
BITMAP
1FE0
1FE0
1FE0
0000
0000
0780
0780
0FC0
0FC0
0FC0
1CE0
1CE0
1CE0
3CE0
38F0
3FF0
3FF0
7FF8
7078
7078
7038
F03C
ENDCHAR
STARTCHAR 1FBA
ENCODING 8122
SWIDTH 468 0
DWIDTH 13 0
BBX 18 17 -4 0
BITMAP
407800
F07800
F8FC00
3CFC00
08FC00
01CE00
01CE00
01CE00
03CE00
038F00
03FF00
03FF00
07FF80
070780
070780
070380
0F03C0
ENDCHAR
STARTCHAR 1FBB
ENCODING 8123
SWIDTH 468 0
DWIDTH 13 0
BBX 17 17 -3 0
BITMAP
18F000
38F000
FDF800
F1F800
41F800
039C00
039C00
039C00
079C00
071E00
07FE00
07FE00
0FFF00
0E0F00
0E0F00
0E0700
1E0780
ENDCHAR
STARTCHAR 1FBC
ENCODING 8124
SWIDTH 468 0
DWIDTH 13 0
BBX 14 17 0 0
BITMAP
1E00
1E00
1E00
1F00
3F38
3F38
3B38
3338
33B8
73B8
7FB8
7FB8
7FB8
71B8
61F8
E1DC
E1CC
ENDCHAR
STARTCHAR 1FBD
ENCODING 8125
SWIDTH 468 0
DWIDTH 13 0
BBX 4 6 5 14
BITMAP
20
70
70
70
60
C0
ENDCHAR
STARTCHAR 1FBE
ENCODING 8126
SWIDTH 468 0
DWIDTH 13 0
BBX 4 4 5 -5
BITMAP
C0
E0
F0
70
ENDCHAR
STARTCHAR 1FBF
ENCODING 8127
SWIDTH 468 0
DWIDTH 13 0
BBX 4 6 5 14
BITMAP
20
70
70
70
60
C0
ENDCHAR
STARTCHAR 1FC0
ENCODING 8128
SWIDTH 468 0
DWIDTH 13 0
BBX 8 4 3 15
BITMAP
3C
7E
FF
E7
ENDCHAR
STARTCHAR 1FC1
ENCODING 8129
SWIDTH 468 0
DWIDTH 13 0
BBX 8 8 3 15
BITMAP
3C
7E
E6
C3
00
C7
E7
E7
ENDCHAR
STARTCHAR 1FC2
ENCODING 8130
SWIDTH 468 0
DWIDTH 13 0
BBX 10 24 2 -4
BITMAP
1C00
1E00
1F80
0700
0100
0000
FF00
FF80
FFC0
E3C0
E1C0
E1C0
E1C0
E1C0
E1C0
E1C0
E1C0
E1C0
E1C0
01C0
E1C0
E1C0
F9C0
39C0
ENDCHAR
STARTCHAR 1FC3
ENCODING 8131
SWIDTH 468 0
DWIDTH 13 0
BBX 10 18 2 -5
BITMAP
FF00
FF80
FFC0
E3C0
E1C0
E1C0
E1C0
E1C0
E1C0
E1C0
E1C0
E1C0
E1C0
01C0
E1C0
E1C0
F9C0
39C0
ENDCHAR
STARTCHAR 1FC4
ENCODING 8132
SWIDTH 468 0
DWIDTH 13 0
BBX 10 24 2 -4
BITMAP
0300
0F80
1F00
1C00
1000
0000
FF00
FF80
FFC0
E3C0
E1C0
E1C0
E1C0
E1C0
E1C0
E1C0
E1C0
E1C0
E1C0
01C0
E1C0
E1C0
F9C0
39C0
ENDCHAR
STARTCHAR 1FC6
ENCODING 8134
SWIDTH 468 0
DWIDTH 13 0
BBX 10 24 2 -5
BITMAP
1E00
3F00
7F80
7380
0000
0000
FF00
FF80
FFC0
E3C0
E1C0
E1C0
E1C0
E1C0
E1C0
E1C0
E1C0
E1C0
E1C0
01C0
01C0
01C0
01C0
01C0
ENDCHAR
STARTCHAR 1FC7
ENCODING 8135
SWIDTH 468 0
DWIDTH 13 0
BBX 10 24 2 -5
BITMAP
1E00
3F00
7F80
7380
0000
0000
FF00
FF80
FFC0
E3C0
E1C0
E1C0
E1C0
E1C0
E1C0
E1C0
E1C0
E1C0
E1C0
01C0
E1C0
E1C0
F9C0
39C0
ENDCHAR
STARTCHAR 1FC8
ENCODING 8136
SWIDTH 468 0
DWIDTH 13 0
BBX 19 17 -6 0
BITMAP
20FFC0
70FFC0
FCFFC0
3CE000
04E000
00E000
00FF80
00FF80
00FF80
00E000
00E000
00E000
00E000
00E000
00FFE0
00FFE0
00FFE0
ENDCHAR
STARTCHAR 1FC9
ENCODING 8137
SWIDTH 468 0
DWIDTH 13 0
BBX 18 17 -5 0
BITMAP
19FF80
39FF80
FDFF80
F1C000
41C000
01C000
01FF00
01FF00
01FF00
01C000
01C000
01C000
01C000
01C000
01FFC0
01FFC0
01FFC0
ENDCHAR
STARTCHAR 1FCA
ENCODING 8138
SWIDTH 468 0
DWIDTH 13 0
BBX 19 17 -6 0
BITMAP
61E1E0
71E1E0
F9E1E0
3DE1E0
09E1E0
01E1E0
01E1E0
01FFE0
01FFE0
01E1E0
01E1E0
01E1E0
01E1E0
01E1E0
01E1E0
01E1E0
01E1E0
ENDCHAR
STARTCHAR 1FCB
ENCODING 8139
SWIDTH 468 0
DWIDTH 13 0
BBX 18 17 -5 0
BITMAP
13C3C0
7BC3C0
FBC3C0
E3C3C0
83C3C0
03C3C0
03C3C0
03FFC0
03FFC0
03C3C0
03C3C0
03C3C0
03C3C0
03C3C0
03C3C0
03C3C0
03C3C0
ENDCHAR
STARTCHAR 1FCC
ENCODING 8140
SWIDTH 468 0
DWIDTH 13 0
BBX 14 17 0 0
BITMAP
E380
E380
E380
E380
E3B8
E3B8
E3B8
FFB8
FFB8
E3B8
E3B8
E3B8
E3B8
E3B8
E3B8
E3BC
E39C
ENDCHAR
STARTCHAR 1FCD
ENCODING 8141
SWIDTH 468 0
DWIDTH 13 0
BBX 10 6 2 14
BITMAP
2000
7300
7700
7380
61C0
C0C0
ENDCHAR
STARTCHAR 1FCE
ENCODING 8142
SWIDTH 468 0
DWIDTH 13 0
BBX 9 6 2 14
BITMAP
2000
7180
7380
3380
6700
E600
ENDCHAR
STARTCHAR 1FCF
ENCODING 8143
SWIDTH 468 0
DWIDTH 13 0
BBX 8 8 3 14
BITMAP
3C
7E
E7
C3
18
38
18
30
ENDCHAR
STARTCHAR 1FD0
ENCODING 8144
SWIDTH 468 0
DWIDTH 13 0
BBX 12 19 1 0
BITMAP
7380
7380
3F00
1E00
0000
0000
FE00
FE00
FE00
0E00
0E00
0E00
0E00
0E00
0E00
0E00
0FF0
0FF0
07F0
ENDCHAR
STARTCHAR 1FD1
ENCODING 8145
SWIDTH 468 0
DWIDTH 13 0
BBX 12 18 1 0
BITMAP
7F80
7F80
0000
0000
0000
FE00
FE00
FE00
0E00
0E00
0E00
0E00
0E00
0E00
0E00
0FF0
0FF0
07F0
ENDCHAR
STARTCHAR 1FD2
ENCODING 8146
SWIDTH 468 0
DWIDTH 13 0
BBX 12 20 1 0
BITMAP
0C00
5C40
ECE0
EEE0
E6E0
0000
0000
FE00
FE00
FE00
0E00
0E00
0E00
0E00
0E00
0E00
0E00
0FF0
0FF0
07F0
ENDCHAR
STARTCHAR 1FD3
ENCODING 8147
SWIDTH 468 0
DWIDTH 13 0
BBX 12 20 1 0
BITMAP
0600
4740
EEE0
ECE0
ECE0
0000
0000
FE00
FE00
FE00
0E00
0E00
0E00
0E00
0E00
0E00
0E00
0FF0
0FF0
07F0
ENDCHAR
STARTCHAR 1FD6
ENCODING 8150
SWIDTH 468 0
DWIDTH 13 0
BBX 12 19 1 0
BITMAP
1E00
3F00
7F80
7380
0000
0000
FE00
FE00
FE00
0E00
0E00
0E00
0E00
0E00
0E00
0E00
0FF0
0FF0
07F0
ENDCHAR
STARTCHAR 1FD7
ENCODING 8151
SWIDTH 468 0
DWIDTH 13 0
BBX 12 23 1 0
BITMAP
1E00
3F00
7380
6180
0000
7380
7380
7380
0000
0000
FE00
FE00
FE00
0E00
0E00
0E00
0E00
0E00
0E00
0E00
0FF0
0FF0
07F0
ENDCHAR
STARTCHAR 1FD8
ENCODING 8152
SWIDTH 468 0
DWIDTH 13 0
BBX 11 23 1 0
BITMAP
31C0
39C0
3F80
1F80
0000
0000
FFE0
FFE0
FFE0
0F00
0F00
0F00
0F00
0F00
0F00
0F00
0F00
0F00
0F00
0F00
FFE0
FFE0
FFE0
ENDCHAR
STARTCHAR 1FD9
ENCODING 8153
SWIDTH 468 0
DWIDTH 13 0
BBX 11 22 1 0
BITMAP
3FC0
3FC0
3FC0
0000
0000
FFE0
FFE0
FFE0
0F00
0F00
0F00
0F00
0F00
0F00
0F00
0F00
0F00
0F00
0F00
FFE0
FFE0
FFE0
ENDCHAR
STARTCHAR 1FDA
ENCODING 8154
SWIDTH 468 0
DWIDTH 13 0
BBX 18 17 -6 0
BITMAP
41FFC0
71FFC0
F9FFC0
3C1E00
081E00
001E00
001E00
001E00
001E00
001E00
001E00
001E00
001E00
001E00
01FFC0
01FFC0
01FFC0
ENDCHAR
STARTCHAR 1FDB
ENCODING 8155
SWIDTH 468 0
DWIDTH 13 0
BBX 18 17 -6 0
BITMAP
19FFC0
39FFC0
FDFFC0
F01E00
401E00
001E00
001E00
001E00
001E00
001E00
001E00
001E00
001E00
001E00
01FFC0
01FFC0
01FFC0
ENDCHAR
STARTCHAR 1FDD
ENCODING 8157
SWIDTH 468 0
DWIDTH 13 0
BBX 9 5 2 15
BITMAP
F600
F700
E380
6180
3180
ENDCHAR
STARTCHAR 1FDE
ENCODING 8158
SWIDTH 468 0
DWIDTH 13 0
BBX 9 6 2 14
BITMAP
4000
E180
E380
C380
6700
3600
ENDCHAR
STARTCHAR 1FDF
ENCODING 8159
SWIDTH 468 0
DWIDTH 13 0
BBX 8 8 3 14
BITMAP
3C
7E
E7
C3
18
38
18
0C
ENDCHAR
STARTCHAR 1FE0
ENCODING 8160
SWIDTH 468 0
DWIDTH 13 0
BBX 11 19 1 0
BITMAP
31C0
39C0
1F80
0F00
0000
0000
F0E0
F0E0
F0E0
F0E0
F0E0
F0E0
F0E0
F0E0
F0E0
71E0
7FE0
7FC0
3F80
ENDCHAR
STARTCHAR 1FE1
ENCODING 8161
SWIDTH 468 0
DWIDTH 13 0
BBX 11 18 1 0
BITMAP
3FC0
3FC0
0000
0000
0000
F0E0
F0E0
F0E0
F0E0
F0E0
F0E0
F0E0
F0E0
F0E0
71E0
7FE0
7FC0
3F80
ENDCHAR
STARTCHAR 1FE2
ENCODING 8162
SWIDTH 468 0
DWIDTH 13 0
BBX 12 20 1 0
BITMAP
0C00
4C00
FEF0
F6F0
6760
0200
0000
F0E0
F0E0
F0E0
F0E0
F0E0
F0E0
F0E0
F0E0
F0E0
71E0
7FE0
7FC0
3F80
ENDCHAR
STARTCHAR 1FE3
ENCODING 8163
SWIDTH 468 0
DWIDTH 13 0
BBX 12 20 1 0
BITMAP
0300
4700
F7F0
F6F0
6C60
0400
0000
F0E0
F0E0
F0E0
F0E0
F0E0
F0E0
F0E0
F0E0
F0E0
71E0
7FE0
7FC0
3F80
ENDCHAR
STARTCHAR 1FE4
ENCODING 8164
SWIDTH 468 0
DWIDTH 13 0
BBX 11 26 2 -5
BITMAP
0400
0E00
0E00
0E00
0C00
1800
0000
0000
3F80
7FC0
FFC0
F1E0
E1E0
E1E0
E0E0
E1E0
E1E0
E1E0
FFC0
FFC0
FF80
E000
E000
E000
E000
E000
ENDCHAR
STARTCHAR 1FE5
ENCODING 8165
SWIDTH 468 0
DWIDTH 13 0
BBX 11 26 2 -5
BITMAP
0800
1C00
1C00
1800
0C00
0600
0000
0000
3F80
7FC0
FFC0
F1E0
E1E0
E1E0
E0E0
E1E0
E1E0
E1E0
FFC0
FFC0
FF80
E000
E000
E000
E000
E000
ENDCHAR
STARTCHAR 1FE6
ENCODING 8166
SWIDTH 468 0
DWIDTH 13 0
BBX 11 19 1 0
BITMAP
0F00
1F80
3FC0
39C0
0000
0000
F0E0
F0E0
F0E0
F0E0
F0E0
F0E0
F0E0
F0E0
F0E0
71E0
7FE0
7FC0
3F80
ENDCHAR
STARTCHAR 1FE7
ENCODING 8167
SWIDTH 468 0
DWIDTH 13 0
BBX 11 23 1 0
BITMAP
0F00
1F80
3980
30C0
0000
31C0
39C0
39C0
0000
0000
F0E0
F0E0
F0E0
F0E0
F0E0
F0E0
F0E0
F0E0
F0E0
71E0
7FE0
7FC0
3F80
ENDCHAR
STARTCHAR 1FE8
ENCODING 8168
SWIDTH 468 0
DWIDTH 13 0
BBX 12 23 1 0
BITMAP
31C0
39C0
3F80
1F80
0000
0000
E070
F0F0
F0F0
70E0
79E0
39C0
3DC0
1F80
1F80
0F00
0F00
0F00
0F00
0F00
0F00
0F00
0F00
ENDCHAR
STARTCHAR 1FE9
ENCODING 8169
SWIDTH 468 0
DWIDTH 13 0
BBX 12 22 1 0
BITMAP
3FC0
3FC0
3FC0
0000
0000
E070
F0F0
F0F0
70E0
79E0
39C0
3DC0
1F80
1F80
0F00
0F00
0F00
0F00
0F00
0F00
0F00
0F00
ENDCHAR
STARTCHAR 1FEA
ENCODING 8170
SWIDTH 468 0
DWIDTH 13 0
BBX 19 17 -6 0
BITMAP
21C0E0
71E1E0
FDE1E0
3CE1C0
08F3C0
007380
007B80
003F00
003F00
001E00
001E00
001E00
001E00
001E00
001E00
001E00
001E00
ENDCHAR
STARTCHAR 1FEB
ENCODING 8171
SWIDTH 468 0
DWIDTH 13 0
BBX 19 17 -6 0
BITMAP
19C0E0
39E1E0
7DE1E0
F0E1C0
40F3C0
007380
007B80
003F00
003F00
001E00
001E00
001E00
001E00
001E00
001E00
001E00
001E00
ENDCHAR
STARTCHAR 1FEC
ENCODING 8172
SWIDTH 468 0
DWIDTH 13 0
BBX 18 18 -5 0
BITMAP
600000
F3FF00
F3FF80
63FFC0
73C3C0
3BC1C0
03C1C0
03C3C0
03C3C0
03FF80
03FF80
03FE00
03C000
03C000
03C000
03C000
03C000
03C000
ENDCHAR
STARTCHAR 1FED
ENCODING 8173
SWIDTH 468 0
DWIDTH 13 0
BBX 12 6 1 14
BITMAP
0C00
4C00
FEF0
F6F0
6760
0200
ENDCHAR
STARTCHAR 1FEE
ENCODING 8174
SWIDTH 468 0
DWIDTH 13 0
BBX 12 6 1 14
BITMAP
0300
4700
F7F0
F6F0
6C60
0400
ENDCHAR
STARTCHAR 1FEF
ENCODING 8175
SWIDTH 468 0
DWIDTH 13 0
BBX 6 4 4 15
BITMAP
60
F0
7C
1C
ENDCHAR
STARTCHAR 1FF2
ENCODING 8178
SWIDTH 468 0
DWIDTH 13 0
BBX 12 24 1 -4
BITMAP
0C00
1E00
0F80
0380
0000
0000
30C0
70E0
70E0
E070
E070
E670
E670
E670
E670
EF70
FFF0
7FE0
79E0
0000
0E00
0E00
0780
0380
ENDCHAR
STARTCHAR 1FF3
ENCODING 8179
SWIDTH 468 0
DWIDTH 13 0
BBX 12 18 1 -5
BITMAP
30C0
70E0
70E0
E070
E070
E670
E670
E670
E670
EF70
FFF0
7FE0
79E0
0000
0E00
0E00
0780
0380
ENDCHAR
STARTCHAR 1FF4
ENCODING 8180
SWIDTH 468 0
DWIDTH 13 0
BBX 12 25 1 -5
BITMAP
0080
0180
07C0
0F80
0E00
0000
0000
30C0
70E0
70E0
E070
E070
E670
E670
E670
E670
EF70
FFF0
7FE0
79E0
0000
0E00
0E00
0780
0380
ENDCHAR
STARTCHAR 1FF6
ENCODING 8182
SWIDTH 468 0
DWIDTH 13 0
BBX 12 19 1 0
BITMAP
0F00
1F80
3FC0
39C0
0000
0000
30C0
70E0
70E0
E070
E070
E670
E670
E670
E670
EF70
FFF0
7FE0
79E0
ENDCHAR
STARTCHAR 1FF7
ENCODING 8183
SWIDTH 468 0
DWIDTH 13 0
BBX 12 24 1 -5
BITMAP
0F00
1F80
3FC0
39C0
0000
0000
30C0
70E0
70E0
E070
E070
E670
E670
E670
E670
EF70
FFF0
7FE0
79E0
0000
0E00
0E00
0780
0380
ENDCHAR
STARTCHAR 1FF8
ENCODING 8184
SWIDTH 468 0
DWIDTH 13 0
BBX 20 18 -7 0
BITMAP
000600
201F80
703FC0
FC7FE0
3CF0E0
04F0F0
00E0F0
00E070
00E070
00E070
00E070
00E070
00E0F0
00F0F0
00F0E0
007FE0
003FC0
001F80
ENDCHAR
STARTCHAR 1FF9
ENCODING 8185
SWIDTH 468 0
DWIDTH 13 0
BBX 18 18 -5 0
BITMAP
001800
187E00
38FF00
FDFF80
F3C380
43C3C0
0383C0
0381C0
0381C0
0381C0
0381C0
0381C0
0383C0
03C3C0
03C380
01FF80
00FF00
007E00
ENDCHAR
STARTCHAR 1FFA
ENCODING 8186
SWIDTH 468 0
DWIDTH 13 0
BBX 21 17 -7 1
BITMAP
403FC0
F07FE0
F8FFE0
38F0F0
08E070
01E070
01E078
01E078
01E078
00E070
00E070
00E0F0
0070E0
0071E0
01F9F8
01F9F8
01F9F8
ENDCHAR
STARTCHAR 1FFB
ENCODING 8187
SWIDTH 468 0
DWIDTH 13 0
BBX 19 17 -5 1
BITMAP
10FF00
79FF80
FBFF80
E3C3C0
8381C0
0781C0
0781E0
0781E0
0781E0
0381C0
0381C0
0383C0
01C380
01C780
07E7E0
07E7E0
07E7E0
ENDCHAR
STARTCHAR 1FFC
ENCODING 8188
SWIDTH 468 0
DWIDTH 13 0
BBX 14 18 0 0
BITMAP
0C00
3E00
7F00
7700
7380
63B8
E3B8
E3B8
E3B8
E3B8
63B8
63B8
63B8
7338
3338
F7B8
F79C
F78C
ENDCHAR
STARTCHAR 1FFD
ENCODING 8189
SWIDTH 468 0
DWIDTH 13 0
BBX 6 5 4 14
BITMAP
08
18
7C
F8
E0
ENDCHAR
STARTCHAR 1FFE
ENCODING 8190
SWIDTH 468 0
DWIDTH 13 0
BBX 4 6 5 14
BITMAP
40
E0
E0
C0
60
30
ENDCHAR
STARTCHAR 2013
ENCODING 8211
SWIDTH 468 0
DWIDTH 13 0
BBX 11 3 1 6
BITMAP
FFE0
FFE0
FFE0
ENDCHAR
STARTCHAR 2014
ENCODING 8212
SWIDTH 468 0
DWIDTH 13 0
BBX 14 3 0 6
BITMAP
FFFC
FFFC
FFFC
ENDCHAR
STARTCHAR 2015
ENCODING 8213
SWIDTH 468 0
DWIDTH 13 0
BBX 14 3 0 6
BITMAP
FFFC
FFFC
FFFC
ENDCHAR
STARTCHAR 2018
ENCODING 8216
SWIDTH 468 0
DWIDTH 13 0
BBX 6 9 4 11
BITMAP
0C
3C
78
60
F0
F8
F8
F8
70
ENDCHAR
STARTCHAR 2019
ENCODING 8217
SWIDTH 468 0
DWIDTH 13 0
BBX 6 8 4 12
BITMAP
3C
7C
7C
3C
1C
18
F8
E0
ENDCHAR
STARTCHAR 201A
ENCODING 8218
SWIDTH 468 0
DWIDTH 13 0
BBX 6 9 4 -4
BITMAP
30
78
7C
7C
7C
18
38
F0
C0
ENDCHAR
STARTCHAR 201C
ENCODING 8220
SWIDTH 468 0
DWIDTH 13 0
BBX 12 8 1 11
BITMAP
1830
3CF0
61C0
E180
F1E0
F1E0
F1E0
2000
ENDCHAR
STARTCHAR 201D
ENCODING 8221
SWIDTH 468 0
DWIDTH 13 0
BBX 12 8 1 12
BITMAP
38E0
78F0
78F0
3870
1860
71E0
E1C0
8100
ENDCHAR
STARTCHAR 201E
ENCODING 8222
SWIDTH 468 0
DWIDTH 13 0
BBX 13 8 0 -4
BITMAP
1820
3CF0
3CF8
3C70
0C30
1870
F1E0
6180
ENDCHAR
STARTCHAR 2020
ENCODING 8224
SWIDTH 468 0
DWIDTH 13 0
BBX 10 21 2 -4
BITMAP
1C00
1C00
1C00
1C00
1C00
FFC0
FFC0
FFC0
1C00
1C00
1C00
1C00
1C00
1C00
1C00
1C00
0C00
0C00
0C00
0C00
0C00
ENDCHAR
STARTCHAR 2021
ENCODING 8225
SWIDTH 468 0
DWIDTH 13 0
BBX 10 21 2 -4
BITMAP
1C00
1C00
1C00
1C00
1C00
FFC0
FFC0
FFC0
1C00
1C00
1C00
FFC0
FFC0
FFC0
1C00
1C00
1C00
1C00
0C00
0C00
0C00
ENDCHAR
STARTCHAR 2022
ENCODING 8226
SWIDTH 468 0
DWIDTH 13 0
BBX 8 8 3 5
BITMAP
18
7E
7E
FF
FF
FF
7E
3C
ENDCHAR
STARTCHAR 2026
ENCODING 8230
SWIDTH 468 0
DWIDTH 13 0
BBX 12 3 1 0
BITMAP
E670
EF70
E670
ENDCHAR
STARTCHAR 2030
ENCODING 8240
SWIDTH 468 0
DWIDTH 13 0
BBX 14 17 0 1
BITMAP
7800
7800
CC00
CC08
CC38
78E0
7B80
0E00
3800
E000
1E78
3E78
32C8
32CC
32CC
3EF8
1E78
ENDCHAR
STARTCHAR 2039
ENCODING 8249
SWIDTH 468 0
DWIDTH 13 0
BBX 7 12 4 1
BITMAP
18
1C
3C
78
78
F0
F0
78
78
3C
1E
18
ENDCHAR
STARTCHAR 203A
ENCODING 8250
SWIDTH 468 0
DWIDTH 13 0
BBX 7 12 4 1
BITMAP
20
F0
78
3C
3C
1E
1E
3C
78
78
F0
20
ENDCHAR
STARTCHAR 2044
ENCODING 8260
SWIDTH 468 0
DWIDTH 13 0
BBX 12 17 1 0
BITMAP
0070
00E0
00E0
01C0
01C0
0380
0300
0700
0E00
0E00
1C00
1C00
3800
3000
7000
6000
E000
ENDCHAR
STARTCHAR 2070
ENCODING 8304
SWIDTH 468 0
DWIDTH 13 0
BBX 8 10 3 8
BITMAP
7E
FE
E7
E7
DF
E7
E7
FF
7E
18
ENDCHAR
STARTCHAR 2074
ENCODING 8308
SWIDTH 468 0
DWIDTH 13 0
BBX 9 10 2 7
BITMAP
0E00
1E00
1E00
3600
7600
7F80
FF80
0600
0600
0600
ENDCHAR
STARTCHAR 2075
ENCODING 8309
SWIDTH 468 0
DWIDTH 13 0
BBX 8 10 3 7
BITMAP
7E
7E
60
78
7E
0E
07
7E
FE
38
ENDCHAR
STARTCHAR 2076
ENCODING 8310
SWIDTH 468 0
DWIDTH 13 0
BBX 7 10 3 7
BITMAP
3E
7E
F0
F8
FE
C6
C6
EE
7E
38
ENDCHAR
STARTCHAR 2077
ENCODING 8311
SWIDTH 468 0
DWIDTH 13 0
BBX 8 10 3 7
BITMAP
FF
FF
0E
1C
1C
38
38
38
38
30
ENDCHAR
STARTCHAR 2078
ENCODING 8312
SWIDTH 468 0
DWIDTH 13 0
BBX 8 11 3 7
BITMAP
18
7E
FF
E7
FE
7E
EF
E7
E7
FE
3C
ENDCHAR
STARTCHAR 2079
ENCODING 8313
SWIDTH 468 0
DWIDTH 13 0
BBX 7 11 4 7
BITMAP
30
FC
FE
C6
C6
FE
7E
0E
FC
F8
80
ENDCHAR
STARTCHAR 2080
ENCODING 8320
SWIDTH 468 0
DWIDTH 13 0
BBX 8 10 3 0
BITMAP
3C
7E
E7
E7
DF
DF
E7
E7
7E
3C
ENDCHAR
STARTCHAR 2081
ENCODING 8321
SWIDTH 468 0
DWIDTH 13 0
BBX 8 10 4 0
BITMAP
18
78
F8
D8
18
18
18
18
FF
FF
ENDCHAR
STARTCHAR 2082
ENCODING 8322
SWIDTH 468 0
DWIDTH 13 0
BBX 8 10 3 0
BITMAP
7C
FE
6E
06
0E
1C
38
70
7F
7F
ENDCHAR
STARTCHAR 2083
ENCODING 8323
SWIDTH 468 0
DWIDTH 13 0
BBX 8 10 3 0
BITMAP
7C
7E
4E
0E
3C
3E
07
07
FE
FC
ENDCHAR
STARTCHAR 2084
ENCODING 8324
SWIDTH 468 0
DWIDTH 13 0
BBX 9 10 2 0
BITMAP
0600
0E00
1E00
3E00
7600
6600
FF80
FF80
0600
0600
ENDCHAR
STARTCHAR 2085
ENCODING 8325
SWIDTH 468 0
DWIDTH 13 0
BBX 8 10 3 0
BITMAP
7E
7E
60
60
7E
7E
07
0F
FE
FC
ENDCHAR
STARTCHAR 2086
ENCODING 8326
SWIDTH 468 0
DWIDTH 13 0
BBX 7 10 3 0
BITMAP
1E
3E
78
E0
FC
FE
C6
E6
FE
7C
ENDCHAR
STARTCHAR 2087
ENCODING 8327
SWIDTH 468 0
DWIDTH 13 0
BBX 8 10 3 0
BITMAP
FF
FF
0E
0E
1C
1C
38
38
38
30
ENDCHAR
STARTCHAR 2088
ENCODING 8328
SWIDTH 468 0
DWIDTH 13 0
BBX 8 10 3 0
BITMAP
7E
7E
E7
E6
7E
7E
E7
E7
FF
7E
ENDCHAR
STARTCHAR 2089
ENCODING 8329
SWIDTH 468 0
DWIDTH 13 0
BBX 7 10 4 0
BITMAP
7C
FE
CE
C6
FE
7E
0E
3C
F8
F0
ENDCHAR
STARTCHAR 20AC
ENCODING 8364
SWIDTH 468 0
DWIDTH 13 0
BBX 12 18 1 0
BITMAP
0080
07F0
1FF0
1F60
3C00
3C00
FFC0
FFC0
7800
7800
FFC0
FF80
FF80
3C00
3C00
1FF0
1FF0
07F0
ENDCHAR
STARTCHAR 20AE
ENCODING 8366
SWIDTH 468 0
DWIDTH 13 0
BBX 12 17 1 0
BITMAP
FFF0
FFF0
FFF0
0F00
0F00
0FC0
0FE0
1F80
7F00
3F40
0FE0
0FC0
3F00
7F00
3F00
0F00
0F00
ENDCHAR
STARTCHAR 20B4
ENCODING 8372
SWIDTH 468 0
DWIDTH 13 0
BBX 13 18 1 0
BITMAP
0400
7F80
7FC0
33E0
00E0
00E0
FFF8
FFF8
0FC0
1F00
FFF8
FFF8
FFF8
7000
7000
7FE0
3FF0
1FE0
ENDCHAR
STARTCHAR 20B9
ENCODING 8377
SWIDTH 468 0
DWIDTH 13 0
BBX 13 17 1 0
BITMAP
FFF8
FFF0
0780
03C0
FFF0
FFF0
03C0
0780
FF80
FF00
F800
7800
3C00
1E00
0F00
0780
0780
ENDCHAR
STARTCHAR 2113
ENCODING 8467
SWIDTH 468 0
DWIDTH 13 0
BBX 11 19 1 0
BITMAP
0780
0FC0
1CC0
1840
1840
18C0
18C0
18C0
1980
1980
1B00
1E00
1C00
3800
F800
5800
1C00
0FE0
0FC0
ENDCHAR
STARTCHAR 2116
ENCODING 8470
SWIDTH 468 0
DWIDTH 13 0
BBX 14 17 0 1
BITMAP
E678
E6F8
E6CC
E6CC
F6CC
F6D8
F678
FE70
FE00
FE00
EEFC
EEFC
EEFC
E600
E600
E600
E600
ENDCHAR
STARTCHAR 2122
ENCODING 8482
SWIDTH 468 0
DWIDTH 13 0
BBX 13 7 0 10
BITMAP
FD98
31B8
31B8
33E8
3368
3308
3308
ENDCHAR
STARTCHAR 2126
ENCODING 8486
SWIDTH 468 0
DWIDTH 13 0
BBX 14 17 0 1
BITMAP
1FE0
3FF0
7FF0
7878
7038
F038
F03C
F03C
F03C
7038
7038
7078
3870
38F0
FCFC
FCFC
FCFC
ENDCHAR
STARTCHAR 212E
ENCODING 8494
SWIDTH 468 0
DWIDTH 13 0
BBX 12 11 1 0
BITMAP
0F00
30C0
4020
C030
C030
C030
FFC0
C000
4000
4020
3FC0
ENDCHAR
STARTCHAR 2153
ENCODING 8531
SWIDTH 468 0
DWIDTH 13 0
BBX 14 17 0 0
BITMAP
3870
F870
F8E0
38E0
39C0
39C0
3B80
0300
0700
0600
0EF8
0CFC
1C18
1878
381C
30FC
70F8
ENDCHAR
STARTCHAR 2154
ENCODING 8532
SWIDTH 468 0
DWIDTH 13 0
BBX 14 18 0 0
BITMAP
1000
F838
5C70
1C70
38E0
70E0
FDC0
FDC0
0380
0380
0700
06F8
0EFC
0C18
1C78
181C
38FC
30F8
ENDCHAR
STARTCHAR 2155
ENCODING 8533
SWIDTH 468 0
DWIDTH 13 0
BBX 14 17 0 0
BITMAP
3830
F870
F860
38E0
39C0
39C0
3B80
0380
0700
0700
0E7C
0E7C
1C70
1C7C
381C
38FC
70F8
ENDCHAR
STARTCHAR 2156
ENCODING 8534
SWIDTH 468 0
DWIDTH 13 0
BBX 14 18 0 0
BITMAP
1000
F838
5C30
1C70
3860
70E0
FDC0
FDC0
0380
0380
0700
077C
0E7C
0E70
1C7C
1C1C
38FC
38F8
ENDCHAR
STARTCHAR 2157
ENCODING 8535
SWIDTH 468 0
DWIDTH 13 0
BBX 13 18 1 0
BITMAP
2000
F870
1860
78E0
78C0
19C0
FB80
F380
0700
0700
0E00
0EF8
1CF8
1CE0
38F8
3838
71F8
71F0
ENDCHAR
STARTCHAR 2158
ENCODING 8536
SWIDTH 468 0
DWIDTH 13 0
BBX 14 17 0 0
BITMAP
3C38
3C38
7C70
DC60
FEE0
1CC0
1DC0
0180
0380
0300
077C
067C
0E70
0C7C
1C1C
18FC
38F8
ENDCHAR
STARTCHAR 2159
ENCODING 8537
SWIDTH 468 0
DWIDTH 13 0
BBX 13 17 0 0
BITMAP
3870
F870
F8E0
38E0
39C0
39C0
3B80
0380
0700
0700
0E78
0EF8
1CE0
1DF8
3998
39F8
70F8
ENDCHAR
STARTCHAR 215A
ENCODING 8538
SWIDTH 468 0
DWIDTH 13 0
BBX 13 17 0 0
BITMAP
7C38
6070
7870
7CE0
0CC0
FDC0
7180
0380
0300
0700
0678
0EF8
0CE0
1DF8
1998
39F8
30F8
ENDCHAR
STARTCHAR 215B
ENCODING 8539
SWIDTH 468 0
DWIDTH 13 0
BBX 14 17 0 0
BITMAP
3870
F860
F8E0
38C0
39C0
3B80
3B80
0700
0700
0E00
0EF8
1DD8
1CF8
38F8
399C
71DC
70F8
ENDCHAR
STARTCHAR 215C
ENCODING 8540
SWIDTH 468 0
DWIDTH 13 0
BBX 14 18 0 0
BITMAP
3000
FC30
1C70
3860
3CE0
0DC0
FDC0
FB80
0380
0700
0700
0EF8
0EDC
1CFC
1CF8
38DC
39DC
70F8
ENDCHAR
STARTCHAR 215D
ENCODING 8541
SWIDTH 468 0
DWIDTH 13 0
BBX 14 17 0 0
BITMAP
7C30
6070
7860
7CE0
0DC0
FDC0
7380
0380
0700
0700
0EF8
0EDC
1CFC
1CF8
38DC
39DC
70F8
ENDCHAR
STARTCHAR 215E
ENCODING 8542
SWIDTH 468 0
DWIDTH 13 0
BBX 13 17 1 0
BITMAP
F8E0
18C0
31C0
7180
6380
6700
6700
0E00
0E00
1C00
1DF0
39B8
39F8
71F0
71B8
E3B8
E1F0
ENDCHAR
STARTCHAR 2202
ENCODING 8706
SWIDTH 468 0
DWIDTH 13 0
BBX 12 19 1 0
BITMAP
7F00
7F80
7FC0
01E0
00E0
00E0
0EE0
3FE0
7FF0
79F0
F0F0
E0E0
E0E0
E0E0
E0E0
E1C0
FFC0
7F80
3F00
ENDCHAR
STARTCHAR 2206
ENCODING 8710
SWIDTH 468 0
DWIDTH 13 0
BBX 14 17 0 0
BITMAP
0780
0780
0FC0
0FC0
0FC0
1CE0
1CE0
1CE0
3CE0
38F0
3870
3870
7878
7078
7FF8
7FF8
FFFC
ENDCHAR
STARTCHAR 220F
ENCODING 8719
SWIDTH 468 0
DWIDTH 13 0
BBX 12 20 1 -3
BITMAP
FFF0
FFF0
FFF0
F0F0
F0F0
F0F0
F0F0
F0F0
F0F0
F0F0
F0F0
F0F0
F0F0
F0F0
F0F0
F0F0
F0F0
F0F0
F0F0
F0F0
ENDCHAR
STARTCHAR 2211
ENCODING 8721
SWIDTH 468 0
DWIDTH 13 0
BBX 12 20 1 -3
BITMAP
FFF0
FFF0
FFF0
7000
3800
3C00
1C00
0E00
0F00
0700
0F00
0E00
1C00
3C00
3800
7800
7000
FFF0
FFF0
FFF0
ENDCHAR
STARTCHAR 2212
ENCODING 8722
SWIDTH 468 0
DWIDTH 13 0
BBX 12 3 1 6
BITMAP
FFF0
FFF0
FFF0
ENDCHAR
STARTCHAR 2215
ENCODING 8725
SWIDTH 468 0
DWIDTH 13 0
BBX 12 17 1 0
BITMAP
0070
00E0
00E0
01C0
01C0
0380
0300
0700
0E00
0E00
1C00
1C00
3800
3000
7000
6000
E000
ENDCHAR
STARTCHAR 2219
ENCODING 8729
SWIDTH 468 0
DWIDTH 13 0
BBX 4 5 5 5
BITMAP
E0
F0
F0
F0
40
ENDCHAR
ENDFONT
